<?xml version="1.0" encoding="UTF-8" standalone="no"?>
<!-- Created with Inkscape (http://www.inkscape.org/) -->

<svg
   xmlns:dc="http://purl.org/dc/elements/1.1/"
   xmlns:cc="http://creativecommons.org/ns#"
   xmlns:rdf="http://www.w3.org/1999/02/22-rdf-syntax-ns#"
   xmlns:svg="http://www.w3.org/2000/svg"
   xmlns="http://www.w3.org/2000/svg"
   xmlns:sodipodi="http://sodipodi.sourceforge.net/DTD/sodipodi-0.dtd"
   xmlns:inkscape="http://www.inkscape.org/namespaces/inkscape"
   width="5.3239508mm"
   height="6.0341086mm"
   viewBox="0 0 18.864392 21.3807"
   id="svg4301"
   version="1.1"
   inkscape:version="0.91 r13725"
   sodipodi:docname="education.svg">
  <defs
     id="defs4303">
    <filter
       id="filter4313"
       style="color-interpolation-filters:sRGB"
       inkscape:collect="always">
      <feBlend
         id="feBlend4315"
         in2="BackgroundImage"
         mode="lighten"
         inkscape:collect="always" />
    </filter>
  </defs>
  <sodipodi:namedview
     id="base"
     pagecolor="#ffffff"
     bordercolor="#666666"
     borderopacity="1.0"
     inkscape:pageopacity="0.0"
     inkscape:pageshadow="2"
     inkscape:zoom="11.2"
     inkscape:cx="2.6071163"
     inkscape:cy="16.334514"
     inkscape:document-units="px"
     inkscape:current-layer="layer1"
     showgrid="false"
     fit-margin-top="0"
     fit-margin-left="0"
     fit-margin-right="0"
     fit-margin-bottom="0"
     inkscape:window-width="1366"
     inkscape:window-height="722"
     inkscape:window-x="0"
     inkscape:window-y="22"
     inkscape:window-maximized="1" />
  <metadata
     id="metadata4306">
    <rdf:RDF>
      <cc:Work
         rdf:about="">
        <dc:format>image/svg+xml</dc:format>
        <dc:type
           rdf:resource="http://purl.org/dc/dcmitype/StillImage" />
        <dc:title></dc:title>
      </cc:Work>
    </rdf:RDF>
  </metadata>
  <g
     inkscape:label="Layer 1"
     inkscape:groupmode="layer"
     id="layer1"
     transform="translate(58.003625,-607.38615)">
    <g
       transform="translate(-83.640296,440.24682)"
       style="display:inline;filter:url(#filter4313);enable-background:new"
       inkscape:label="circle1-icon5"
       id="circle1-icon5-0">
      <path
         inkscape:connector-curvature="0"
         style="fill:#12323d;fill-opacity:1"
         d="m 28.389722,186.59243 c -0.130981,-0.21193 0.172372,-1.94949 0.487315,-2.79125 0.405354,-1.08341 1.216053,-2.265 2.06141,-3.00449 0.40725,-0.35625 0.790452,-0.64773 0.851566,-0.64773 0.06111,0 0.435291,0.24475 0.831509,0.5439 1.771251,1.33731 3.073921,1.33731 4.845172,0 0.396216,-0.29915 0.776339,-0.5439 0.844714,-0.5439 0.279483,0 1.839886,1.6334 2.293081,2.40035 0.583459,0.98741 1.005119,2.33015 1.055293,3.3605 0,0 0.03674,0.7544 0.03674,0.7544 0,0 -3.257625,0.0368 -3.257625,0.0368 -2.285214,0.0258 -3.257624,-0.008 -3.257624,-0.11297 0,-0.0824 0.555509,-1.10746 1.234469,-2.27799 0.678956,-1.17054 1.234468,-2.16314 1.234468,-2.20578 0,-0.0426 -0.108018,0.0198 -0.240036,0.13865 -0.54715,0.49275 -1.650971,0.92366 -2.366064,0.92366 -0.715093,0 -1.818916,-0.43091 -2.366063,-0.92366 -0.132021,-0.11889 -0.240036,-0.18128 -0.240036,-0.13865 0,0.0426 0.555511,1.03524 1.234468,2.20578 0.678957,1.17053 1.234468,2.19451 1.234468,2.27551 0,0.19904 -6.394292,0.20581 -6.517223,0.007 0,0 0,0 0,0"
         id="path4655-7-7" />
      <path
         inkscape:connector-curvature="0"
         style="fill:#205770;fill-opacity:1"
         d="m 39.57049,172.35645 c 0,0 0,1.76037 0,1.76037 0,0 0,1.76037 0,1.76037 0,0 -0.742804,0.27792 -0.742804,0.27792 -2.090998,0.78234 -4.14061,0.34342 -5.674919,-1.21528 -0.372958,-0.37889 -0.769677,-0.68889 -0.881596,-0.68889 -0.335809,0 -1.314852,0.78597 -1.577072,1.26606 0,0 -0.244957,0.44848 -0.244957,0.44848 0,0 -0.06858,-1.84301 -0.06858,-1.84301 0,0 -0.06858,-1.84301 -0.06858,-1.84301 0,0 -1.508795,-0.4734 -1.508795,-0.4734 0,0 5.160541,-1.9956 6.191402,-2.31551 0,0 7.662076,1.78919 7.662076,1.78919 0,0 -3.086172,1.07671 -3.086172,1.07671"
         id="path4655-8" />
      <path
         inkscape:connector-curvature="0"
         style="fill:#00aeef;fill-opacity:1"
         d="m 30.938447,180.79669 c 0.40725,-0.35625 0.790452,-0.64773 0.851566,-0.64773 0.06111,0 0.435291,0.24475 0.831509,0.5439 1.771251,1.33731 3.073921,1.33731 4.845172,0 0.396216,-0.29915 0.788676,-0.59994 0.844714,-0.5439 0.244456,0.0142 0.413099,0.24513 0.717393,0.54943 -0.387559,0.68085 -1.618629,1.5445 -1.618629,1.5445 -0.54715,0.49275 -1.650971,0.92366 -2.366064,0.92366 -0.715093,0 -1.818916,-0.43091 -2.366063,-0.92366 0,0 -1.233941,-0.97263 -1.739598,-1.4462 0,0 0,0 0,0 m 9.455023,-3.43336 c 0,-3.08117 0.03573,-3.79301 0.201383,-4.01202 0.110758,-0.14644 0.203343,-0.52483 0.205745,-0.84087 0,0 0.0044,-0.57462 0.0044,-0.57462 0,0 1.053611,-0.30501 0.548654,-0.13177 0,0 0.0044,0.6405 0.0044,0.6405 0.0024,0.35228 0.09499,0.76032 0.205743,0.90676 0.165653,0.21901 0.201385,0.93085 0.201385,4.01202 0,0 0,3.74577 0,3.74577 0,0 -0.685817,0 -0.685817,0 0,0 -0.685815,0 -0.685815,0 0,0 0,-3.74577 0,-3.74577"
         id="path4655-2-6" />
      <path
         inkscape:connector-curvature="0"
         style="fill:#12323d;fill-opacity:1"
         d="m 35.012732,173.90962 c 0,0 -7.804028,-2.6014 -7.804028,-2.6014 0,0 7.835404,-2.38717 7.835404,-2.38717 0,0 7.884923,2.38345 7.884923,2.38345 0,0 -7.916299,2.60512 -7.916299,2.60512"
         id="path4655-1-8" />
    </g>
  </g>
</svg>
