<?xml version="1.0" encoding="UTF-8" standalone="no"?>
<!-- Created with Inkscape (http://www.inkscape.org/) -->

<svg
   xmlns:dc="http://purl.org/dc/elements/1.1/"
   xmlns:cc="http://creativecommons.org/ns#"
   xmlns:rdf="http://www.w3.org/1999/02/22-rdf-syntax-ns#"
   xmlns:svg="http://www.w3.org/2000/svg"
   xmlns="http://www.w3.org/2000/svg"
   xmlns:sodipodi="http://sodipodi.sourceforge.net/DTD/sodipodi-0.dtd"
   xmlns:inkscape="http://www.inkscape.org/namespaces/inkscape"
   width="7.6056442mm"
   height="3.4432683mm"
   viewBox="0 0 26.949132 12.200557"
   id="svg4301"
   version="1.1"
   inkscape:version="0.91 r13725"
   sodipodi:docname="logistics.svg">
  <defs
     id="defs4303">
    <filter
       id="filter4313"
       style="color-interpolation-filters:sRGB"
       inkscape:collect="always">
      <feBlend
         id="feBlend4315"
         in2="BackgroundImage"
         mode="lighten"
         inkscape:collect="always" />
    </filter>
  </defs>
  <sodipodi:namedview
     id="base"
     pagecolor="#ffffff"
     bordercolor="#666666"
     borderopacity="1.0"
     inkscape:pageopacity="0.0"
     inkscape:pageshadow="2"
     inkscape:zoom="5.6"
     inkscape:cx="-45.11211"
     inkscape:cy="-8.223081"
     inkscape:document-units="px"
     inkscape:current-layer="layer1"
     showgrid="false"
     fit-margin-top="0"
     fit-margin-left="0"
     fit-margin-right="0"
     fit-margin-bottom="0"
     inkscape:window-width="1366"
     inkscape:window-height="722"
     inkscape:window-x="0"
     inkscape:window-y="22"
     inkscape:window-maximized="1" />
  <metadata
     id="metadata4306">
    <rdf:RDF>
      <cc:Work
         rdf:about="">
        <dc:format>image/svg+xml</dc:format>
        <dc:type
           rdf:resource="http://purl.org/dc/dcmitype/StillImage" />
        <dc:title />
      </cc:Work>
    </rdf:RDF>
  </metadata>
  <g
     inkscape:label="Layer 1"
     inkscape:groupmode="layer"
     id="layer1"
     transform="translate(62.371048,-614.988)">
    <g
       transform="matrix(0.82771775,0,0,0.82771775,-177.6502,586.77992)"
       style="display:inline;filter:url(#filter4313);enable-background:new"
       inkscape:label="circle1-icon1"
       id="circle1-icon1-4">
      <path
         inkscape:connector-curvature="0"
         style="fill:#205770;fill-opacity:1"
         d="m 150.9729,46.359591 c -1.07639,-0.568601 -1.04908,-2.182261 0.0459,-2.71234 0.61659,-0.298484 1.18299,-0.216663 1.66641,0.240731 0.35763,0.338368 0.49685,0.651967 0.49685,1.119139 0,1.138887 -1.21054,1.879994 -2.20916,1.35247 0,0 0,0 0,0 m 11.57856,-0.0038 c -0.89802,-0.474071 -1.0876,-1.686994 -0.37506,-2.39954 0.58175,-0.581758 1.44558,-0.633174 2.02917,-0.120782 0.40985,0.359863 0.56232,0.677525 0.56232,1.171582 0,1.143162 -1.21052,1.879775 -2.21644,1.34874 0,0 1e-5,0 1e-5,0"
         id="path4473-3-5" />
      <path
         inkscape:connector-curvature="0"
         style="fill:#00aeef;fill-opacity:1"
         d="m 146.77476,44.054406 c -0.26991,-0.136046 -0.32893,-0.458738 -0.12512,-0.683968 0.20741,-0.229154 1.52453,-0.248455 1.74739,-0.02561 0.20313,0.203138 0.13468,0.576457 -0.13015,0.709746 -0.28337,0.142638 -1.20907,0.142532 -1.49212,0 0,0 0,-1.66e-4 0,-1.66e-4 m -1.05326,-2.783251 c -0.21865,-0.218639 -0.22417,-0.455402 -0.015,-0.644681 0.13629,-0.123328 0.38882,-0.145262 1.67343,-0.145262 0.87504,0 1.5845,0.03831 1.68268,0.09087 0.24,0.128427 0.22511,0.562588 -0.0253,0.738 -0.15773,0.110486 -0.47691,0.136642 -1.66766,0.136642 -1.35556,0 -1.48653,-0.01395 -1.64813,-0.175543 0,0 0,-2.6e-5 0,-2.6e-5 m -1.20927,-2.682006 c -0.2366,-0.165721 -0.25279,-0.486096 -0.0346,-0.683591 0.14201,-0.128532 0.47075,-0.145261 2.85257,-0.145261 2.59741,0 2.69839,0.0063 2.8721,0.180054 0.1241,0.1241 0.16225,0.239985 0.12279,0.373029 -0.11956,0.403143 -0.18653,0.412403 -2.9771,0.412403 -2.24801,0 -2.66973,-0.02032 -2.8358,-0.136634 0,0 0,0 0,0"
         id="path4473-6-2" />
      <path
         inkscape:connector-curvature="0"
         style="fill:#12323d;fill-opacity:1"
         d="m 148.41928,45.688605 c -0.20133,-0.0549 -0.41572,-0.474923 -0.41572,-0.814449 0,-0.229751 0.0323,-0.267677 0.22821,-0.267677 0.14248,0 0.34027,-0.112084 0.52663,-0.298431 0.31578,-0.315802 0.37764,-0.622774 0.21282,-1.056277 -0.0987,-0.259602 -0.56921,-0.575456 -0.85794,-0.575939 -0.1755,0 -0.19749,-0.0443 -0.19749,-0.395296 0,0 0,-0.394972 0,-0.394972 0,0 0.63634,-0.0019 0.63634,-0.0019 0.85492,-0.0026 1.20686,-0.289023 1.20686,-0.982127 0,-0.596206 -0.49687,-0.946896 -1.3416,-0.946896 0,0 -0.46953,0 -0.46953,0 0,0 0.0498,-0.373029 0.0498,-0.373029 0,0 0.0498,-0.373029 0.0498,-0.373029 0,0 1.17086,-0.04389 1.17086,-0.04389 1.15055,-0.04312 1.17457,-0.04816 1.3824,-0.290155 0.15122,-0.176078 0.21154,-0.351893 0.21154,-0.616813 0,-0.760566 -0.43959,-1.024004 -1.70874,-1.024004 -0.95197,0 -1.01573,-0.0601 -0.58055,-0.547185 0,0 0.25608,-0.286644 0.25608,-0.286644 0,0 5.75611,-0.02379 5.75611,-0.02379 5.65061,-0.02336 5.76259,-0.0205 6.10822,0.15582 0.27375,0.139662 0.63514,0.556822 1.62449,1.875308 0,0 1.27244,1.695692 1.27244,1.695692 0,0 0.63573,0.246743 0.63573,0.246743 1.40626,0.545807 2.05016,0.888914 2.31178,1.231863 0.25299,0.331645 0.2552,0.34496 0.2864,1.738104 0.0449,2.004594 -0.0978,2.337748 -1.01473,2.369469 0,0 -0.42105,0.01457 -0.42105,0.01457 0,0 0.0292,-0.492108 0.0292,-0.492108 0.0786,-1.322988 -0.81226,-2.304326 -2.09186,-2.304326 -1.20136,0 -2.11907,0.904108 -2.11907,2.087636 0,0.248463 0.0127,0.509592 0.0282,0.580274 0.0244,0.111277 -0.47177,0.128524 -3.69714,0.128524 0,0 -3.72536,0 -3.72536,0 0,0 0.0229,-0.495242 0.0229,-0.495242 0.0314,-0.676603 -0.10369,-1.113723 -0.47981,-1.553133 -0.45724,-0.534195 -0.91914,-0.748059 -1.61561,-0.748059 -0.65429,0 -1.10364,0.190991 -1.55349,0.660287 -0.41391,0.43181 -0.56801,0.872975 -0.54294,1.554415 0,0 0.0214,0.581732 0.0214,0.581732 0,0 -0.52042,0.0136 -0.52042,0.0136 -0.28624,0.0075 -0.59009,-0.0054 -0.67523,-0.0286 0,0 0,-2.6e-5 0,-2.6e-5 m 14.06657,-5.698703 c 0,-0.102218 -0.96548,-1.42066 -1.36889,-1.869356 -0.5995,-0.666791 -0.72512,-0.711326 -2.00595,-0.711326 0,0 -1.1015,0 -1.1015,0 0,0 0,1.316572 0,1.316572 0,0 0,1.316571 0,1.316571 0,0 2.23817,0 2.23817,0 1.23099,0 2.23817,-0.02361 2.23817,-0.05246 0,0 0,0 0,0"
         id="path4473-5" />
    </g>
  </g>
</svg>
