<?xml version="1.0" encoding="UTF-8" standalone="no"?>
<!-- Created with Inkscape (http://www.inkscape.org/) -->

<svg
   xmlns:dc="http://purl.org/dc/elements/1.1/"
   xmlns:cc="http://creativecommons.org/ns#"
   xmlns:rdf="http://www.w3.org/1999/02/22-rdf-syntax-ns#"
   xmlns:svg="http://www.w3.org/2000/svg"
   xmlns="http://www.w3.org/2000/svg"
   xmlns:sodipodi="http://sodipodi.sourceforge.net/DTD/sodipodi-0.dtd"
   xmlns:inkscape="http://www.inkscape.org/namespaces/inkscape"
   width="6.084516mm"
   height="5.5628133mm"
   viewBox="0 0 21.559308 19.710756"
   id="svg4301"
   version="1.1"
   inkscape:version="0.91 r13725"
   sodipodi:docname="retail.svg">
  <defs
     id="defs4303">
    <filter
       id="filter4313"
       style="color-interpolation-filters:sRGB"
       inkscape:collect="always">
      <feBlend
         id="feBlend4315"
         in2="BackgroundImage"
         mode="lighten"
         inkscape:collect="always" />
    </filter>
  </defs>
  <sodipodi:namedview
     id="base"
     pagecolor="#ffffff"
     bordercolor="#666666"
     borderopacity="1.0"
     inkscape:pageopacity="0.0"
     inkscape:pageshadow="2"
     inkscape:zoom="11.2"
     inkscape:cx="-22.327511"
     inkscape:cy="23.064887"
     inkscape:document-units="px"
     inkscape:current-layer="layer1"
     showgrid="false"
     fit-margin-top="0"
     fit-margin-left="0"
     fit-margin-right="0"
     fit-margin-bottom="0"
     inkscape:window-width="1366"
     inkscape:window-height="722"
     inkscape:window-x="0"
     inkscape:window-y="22"
     inkscape:window-maximized="1" />
  <metadata
     id="metadata4306">
    <rdf:RDF>
      <cc:Work
         rdf:about="">
        <dc:format>image/svg+xml</dc:format>
        <dc:type
           rdf:resource="http://purl.org/dc/dcmitype/StillImage" />
        <dc:title></dc:title>
      </cc:Work>
    </rdf:RDF>
  </metadata>
  <g
     inkscape:label="Layer 1"
     inkscape:groupmode="layer"
     id="layer1"
     transform="translate(33.068998,-615.78647)">
    <g
       transform="translate(-323.5234,329.95957)"
       style="display:inline;filter:url(#filter4313);enable-background:new"
       inkscape:label="circle1-icon3"
       id="circle1-icon3-4">
      <path
         inkscape:connector-curvature="0"
         style="fill:#12323d;fill-opacity:1"
         d="m 292.62191,293.67052 c 0.005,-0.0177 0.37829,-1.17262 0.83027,-2.56661 0,0 0.8218,-2.53453 0.8218,-2.53453 0,0 6.97523,0.005 6.97523,0.005 0,0 6.97524,0.005 6.97524,0.005 0,0 0.82151,2.53908 0.82151,2.53908 0.45183,1.3965 0.82181,2.5494 0.82218,2.562 5.3e-4,0.0183 -1.73674,0.0229 -8.62702,0.0229 -8.20787,0 -8.62728,-0.002 -8.61921,-0.0321 0,0 0,0 0,0 m 2.92903,-0.34387 c 0,-0.005 0.23924,-0.98734 0.53165,-2.18273 0.2924,-1.19539 0.53165,-2.18118 0.53165,-2.19064 0,-0.0101 -0.1455,-0.0172 -0.35317,-0.0172 0,0 -0.35316,0 -0.35316,0 0,0 -0.52836,2.15868 -0.52836,2.15868 -0.29059,1.18727 -0.53267,2.17724 -0.53796,2.19992 0,0 -0.01,0.0412 -0.01,0.0412 0,0 0.35947,0 0.35947,0 0.19771,0 0.35948,-0.004 0.35948,-0.009 0,0 0,0 0,0 m 2.87824,-0.008 c 0,-0.009 0.14849,-0.99441 0.32999,-2.18923 0.18149,-1.19482 0.32999,-2.17722 0.32999,-2.1831 0,-0.006 -0.16013,-0.0107 -0.35584,-0.0107 0,0 -0.35583,0 -0.35583,0 0,0 -0.0202,0.12374 -0.0202,0.12374 -0.0339,0.2076 -0.6431,4.24351 -0.6431,4.26036 0,0.009 0.16087,0.0157 0.35749,0.0157 0.20472,0 0.35749,-0.007 0.35749,-0.0168 0,0 0,0 0,0 m 3.17156,-2.18311 c 0,0 0,-2.19992 0,-2.19992 0,0 -0.35749,0 -0.35749,0 0,0 -0.35749,0 -0.35749,0 0,0 0,2.19992 0,2.19992 0,0 0,2.19993 0,2.19993 0,0 0.35749,0 0.35749,0 0,0 0.35749,0 0.35749,0 0,0 0,-2.19993 0,-2.19993 m 3.24061,2.17702 c -0.005,-0.0126 -0.15588,-1.00257 -0.33636,-2.19993 0,0 -0.32815,-2.17701 -0.32815,-2.17701 0,0 -0.35308,0 -0.35308,0 -0.31434,0 -0.35308,0.003 -0.35308,0.0299 0,0.0337 0.63648,4.26451 0.65121,4.32868 0.009,0.041 0.0112,0.0412 0.36857,0.0412 0.27944,0 0.35728,-0.005 0.35089,-0.0229 0,0 0,0 0,0 m 2.86361,-0.0367 c -0.009,-0.0328 -0.24789,-1.0083 -0.53135,-2.16784 -0.28345,-1.15955 -0.51953,-2.12271 -0.5246,-2.14035 -0.008,-0.0291 -0.042,-0.0321 -0.36672,-0.0321 -0.33179,0 -0.35682,0.002 -0.34819,0.0321 0.005,0.0176 0.24517,0.9973 0.53345,2.17701 0.28828,1.17971 0.52776,2.15524 0.53217,2.16785 0.006,0.0173 0.0958,0.0229 0.36461,0.0229 0,0 0.35659,0 0.35659,0 0,0 -0.016,-0.0596 -0.016,-0.0596"
         id="path4585-5-7" />
      <path
         inkscape:connector-curvature="0"
         style="fill:#00aeef;fill-opacity:1"
         d="m 298.10722,301.56957 c -0.0936,-0.0242 -0.24554,-0.11562 -0.30535,-0.18374 -0.031,-0.0354 -0.0776,-0.11006 -0.1035,-0.16597 -0.1124,-0.24295 -0.0252,-0.57158 0.19065,-0.71857 0,0 0.0633,-0.0431 0.0633,-0.0431 0,0 1.8e-4,-0.97163 1.8e-4,-0.97163 0,0 1.8e-4,-0.97164 1.8e-4,-0.97164 0,0 -0.0905,-0.078 -0.0905,-0.078 -0.06,-0.0517 -0.11096,-0.11947 -0.15109,-0.20098 -0.0529,-0.10746 -0.0604,-0.14052 -0.0594,-0.26155 0.001,-0.17071 0.0557,-0.30154 0.17444,-0.42025 0.12048,-0.12048 0.25096,-0.17465 0.41992,-0.17433 0.23985,4.4e-4 0.42976,0.11864 0.53532,0.33316 0.0536,0.10899 0.0604,0.13962 0.0595,0.26993 -10e-4,0.18607 -0.0592,0.31784 -0.19244,0.43766 0,0 -0.0908,0.0816 -0.0908,0.0816 0,0 0,0.9787 0,0.9787 0,0 0,0.9787 0,0.9787 0,0 0.0813,0.068 0.0813,0.068 0.0523,0.0437 0.10296,0.11197 0.14208,0.19146 0.0539,0.10955 0.0607,0.1401 0.0599,0.27049 -7.7e-4,0.12409 -0.009,0.16353 -0.0538,0.25315 -0.062,0.12463 -0.1795,0.23939 -0.29929,0.29238 -0.0923,0.0408 -0.28756,0.0585 -0.38048,0.0345 0,0 -1.3e-4,0 -1.3e-4,0 m -4.40394,-5.75905 c -0.19671,-0.0515 -0.37236,-0.15192 -0.53724,-0.30703 -0.27433,-0.25807 -0.43587,-0.58108 -0.48576,-0.97134 -0.01,-0.0774 -0.019,-0.0962 -0.0466,-0.0962 -0.0312,0 -0.0343,-0.0164 -0.0343,-0.18333 0,0 0,-0.18333 0,-0.18333 0,0 8.63687,0 8.63687,0 0,0 8.63687,0 8.63687,0 0,0 -0.009,0.29791 -0.009,0.29791 -0.008,0.26072 -0.0149,0.31736 -0.059,0.45374 -0.16154,0.49927 -0.47239,0.82912 -0.92663,0.98325 -0.0783,0.0266 -0.15416,0.0341 -0.33916,0.0339 -0.21176,-2.8e-4 -0.25331,-0.006 -0.37279,-0.0491 -0.20485,-0.0744 -0.32642,-0.1548 -0.50718,-0.33556 -0.13027,-0.13028 -0.18307,-0.19973 -0.25086,-0.32999 -0.0916,-0.17604 -0.16723,-0.40998 -0.18813,-0.58207 0,0 -0.0128,-0.10541 -0.0128,-0.10541 0,0 -0.11749,0 -0.11749,0 -0.10744,0 -0.11813,0.004 -0.12487,0.0413 -0.0729,0.40827 -0.12463,0.5562 -0.27072,0.77463 -0.16528,0.24711 -0.40802,0.43906 -0.67894,0.53689 -0.12068,0.0436 -0.15984,0.0485 -0.38196,0.0482 -0.23156,-3.1e-4 -0.25706,-0.004 -0.39612,-0.0568 -0.0817,-0.031 -0.19312,-0.085 -0.24749,-0.11982 -0.36151,-0.23177 -0.61541,-0.65116 -0.67258,-1.11098 0,0 -0.013,-0.10424 -0.013,-0.10424 0,0 -0.12077,-0.005 -0.12077,-0.005 0,0 -0.12076,-0.005 -0.12076,-0.005 0,0 -0.0212,0.14964 -0.0212,0.14964 -0.10192,0.72069 -0.6664,1.26352 -1.3139,1.26352 -0.66381,0 -1.23426,-0.56435 -1.32112,-1.307 0,0 -0.0124,-0.1062 -0.0124,-0.1062 0,0 -0.12152,0.005 -0.12152,0.005 0,0 -0.12152,0.005 -0.12152,0.005 0,0 -0.0135,0.10845 -0.0135,0.10845 -0.0206,0.16542 -0.0805,0.3646 -0.15384,0.51104 -0.17899,0.35758 -0.42265,0.58528 -0.76571,0.71555 -0.13906,0.0528 -0.16456,0.0565 -0.39612,0.0568 -0.22213,3.1e-4 -0.26128,-0.005 -0.38196,-0.0482 -0.50922,-0.18388 -0.86619,-0.661 -0.94695,-1.26569 0,0 -0.0116,-0.0871 -0.0116,-0.0871 0,0 -0.11721,0 -0.11721,0 0,0 -0.11721,0 -0.11721,0 0,0 -0.0103,0.0688 -0.0103,0.0688 -0.0672,0.44616 -0.21449,0.7476 -0.49181,1.00614 -0.23622,0.22023 -0.52163,0.33589 -0.83027,0.33646 -0.64681,10e-4 -1.20283,-0.52798 -1.31477,-1.25126 0,0 -0.0234,-0.15093 -0.0234,-0.15093 0,0 -0.12301,-0.005 -0.12301,-0.005 -0.12148,-0.005 -0.123,-0.005 -0.123,0.042 0,0.18552 -0.12282,0.54491 -0.25588,0.74874 -0.31819,0.48743 -0.85656,0.7151 -1.37178,0.58011 0,0 0,0 0,0 m 0.34437,-7.9744 c 0,0 0,-0.36665 0,-0.36665 0,0 7.1956,0 7.1956,0 0,0 7.1956,0 7.1956,0 0,0 0,0.36665 0,0.36665 0,0 0,0.36666 0,0.36666 0,0 -7.1956,0 -7.1956,0 0,0 -7.1956,0 -7.1956,0 0,0 0,-0.36666 0,-0.36666"
         id="path4585-3-4" />
      <path
         inkscape:connector-curvature="0"
         style="fill:#12323d;fill-opacity:1"
         d="m 292.25104,303.51254 c 0,-0.33012 0.005,-0.39931 0.0363,-0.50071 0.0723,-0.23405 0.2575,-0.41858 0.49397,-0.49218 0.10329,-0.0322 0.17145,-0.0357 0.69045,-0.0357 0,0 0.57585,0 0.57585,0 0,0 0,-3.15323 0,-3.15323 0,0 0,-3.15323 0,-3.15323 0,0 0.60498,0 0.60498,0 0,0 0.60498,0 0.60498,0 0,0 0,3.15323 0,3.15323 0,0 0,3.15323 0,3.15323 0,0 2.08994,0 2.08994,0 0,0 2.08993,0 2.08993,0 0,0 0,-3.15323 0,-3.15323 0,0 0,-3.15323 0,-3.15323 0,0 0.30249,0 0.30249,0 0,0 0.30249,0 0.30249,0 0,0 0,3.15323 0,3.15323 0,0 0,3.15323 0,3.15323 0,0 3.89571,0 3.89571,0 0,0 3.8957,0 3.8957,0 0,0 0,-3.15323 0,-3.15323 0,0 0,-3.15323 0,-3.15323 0,0 0.60498,0 0.60498,0 0,0 0.60498,0 0.60498,0 0,0 0,3.15141 0,3.15141 0,0 0,3.15142 0,3.15142 0,0 0.31624,0.006 0.31624,0.006 0.31145,0.006 0.31812,0.007 0.43982,0.0649 0.15618,0.0739 0.29167,0.20769 0.36292,0.35831 0,0 0.0543,0.11475 0.0543,0.11475 0,0 1e-5,0.43541 1e-5,0.43541 0,0 2e-5,0.4354 2e-5,0.4354 0,0 -8.98304,0 -8.98304,0 0,0 -8.98305,0 -8.98305,0 0,0 0,-0.38306 0,-0.38306"
         id="path4585-4" />
      <path
         inkscape:connector-curvature="0"
         style="fill:#205770;fill-opacity:1"
         d="m 294.04765,287.83612 c 0,0 0,-0.36666 0,-0.36666 0,0 7.1956,0 7.1956,0 0,0 7.1956,0 7.1956,0 0,0 0,0.36666 0,0.36666 0,0 0,0.36665 0,0.36665 0,0 -7.1956,0 -7.1956,0 0,0 -7.1956,0 -7.1956,0 0,0 0,-0.36665 0,-0.36665"
         id="path4585-3-6-3" />
    </g>
  </g>
</svg>
