<?xml version="1.0" encoding="UTF-8" standalone="no"?>
<svg xmlns:dc="http://purl.org/dc/elements/1.1/" xmlns:cc="http://creativecommons.org/ns#" xmlns:rdf="http://www.w3.org/1999/02/22-rdf-syntax-ns#" xmlns:svg="http://www.w3.org/2000/svg" xmlns="http://www.w3.org/2000/svg" width="50mm" height="50mm" viewBox="0 0 177.16535 177.16536" id="svg4173" version="1.1">
  <defs id="defs4175" />
  <metadata id="metadata4178">
    <rdf:RDF>
      <cc:Work rdf:about="">
        <dc:format>image/svg+xml</dc:format>
        <dc:type rdf:resource="http://purl.org/dc/dcmitype/StillImage" />
        <dc:title></dc:title>
      </cc:Work>
    </rdf:RDF>
  </metadata>
  <g id="layer1" transform="translate(-119.98876,270.50619)">
    <g transform="translate(53.934652,-456.98205)" style="display:inline" id="layer3">
      <g transform="translate(0,11.982244)" id="g4475">
        <g id="g4411">
          <path style="fill:#0088c9;fill-opacity:1" d="m 130.03516,0.0078125 c -7.59153,0.2476 -14.98783,6.2750287 -12.83985,15.3242185 c 2.0541,8.6537 -2.74841,9.021895 -6.62304,8.083985 c -6.94195,-4.83216 -15.196141,-7.424758 -23.654301,-7.429688 c -22.89011,6.6e-4 -41.445733,18.557156 -41.445313,41.447266 c 0.0169,1.75639 0.145396,3.50992 0.384766,5.25 c 0.004,0.0339 0.008,0.0677 0.01172,0.101562 c 0.32808,3.3112 1.072745,6.763111 2.291015,10.337891 c 3.77612,11.08031 3.306594,17.171898 -4.222656,21.923828 C 41.11117,96.830655 38.118942,97.987228 34,97.423828 c -10.77766,-1.47421 -16.162111,-0.88378 -20.625,1.41211 C -3.611202,107.57433 -2.947361,131.98073 14.5,140.21875 c 6.26313,2.95723 16.132776,2.16456 21.691406,-1.74219 C 45.080882,132.2288 47.34853,124.99869 45.9375,112.51367 c -0.85299,-7.54741 -0.344984,-8.90699 1.384766,-12.4375 c 5.70202,-8.057398 11.791818,-8.427211 21.361328,-4.632811 c 6.31167,2.66449 12.598675,3.380267 18.234375,3.435547 c 22.890101,4.1e-4 41.446591,-18.555212 41.447261,-41.445312 c -0.0181,-8.56398 -3.36253,-16.479845 -7.64453,-23.896485 c -3.00785,-5.20975 0.19736,-8.480392 6.04297,-6.914062 C 141.06,30.369707 148.47476,14.428394 140.78125,4.7714844 c -2.73875,-3.43769 -6.76958,-4.8933719 -10.74609,-4.7636719 z M 86.9375,26.640625 a 30.959391,30.959391 0 0 1 30.95898,30.958984 A 30.959391,30.959391 0 0 1 86.9375,88.558594 A 30.959391,30.959391 0 0 1 55.978516,57.599609 A 30.959391,30.959391 0 0 1 86.9375,26.640625 Z" transform="translate(68.431704,192.0719)" id="path4282" />
          <path style="fill:#12323d;fill-opacity:1" d="m 231.33404,195.93909 c -5.25229,-4.6e-4 -9.51022,4.25748 -9.50976,9.50977 c 6.2e-4,5.25152 4.25824,9.50827 9.50976,9.50781 c 5.25077,-6.1e-4 9.50719,-4.25704 9.50781,-9.50781 c 4.6e-4,-5.25153 -4.25628,-9.50916 -9.50781,-9.50977 z M 87.003974,210.40394 c -2.08374,-9e-5 -4.08897,0.34373 -5.95899,0.97656 c -7.33465,2.4821 -12.61279,9.42087 -12.61328,17.59375 c -4.6e-4,10.25737 8.3149,18.57272 18.57227,18.57226 c 10.2566,-6.2e-4 18.570766,-8.31566 18.570306,-18.57226 c -6.1e-4,-10.25584 -8.314466,-18.56969 -18.570306,-18.57031 z m 42.142576,78.92773 c -5.72031,-1.5e-4 -10.35757,4.63711 -10.35742,10.35742 c -1.5e-4,5.72031 4.63711,10.35757 10.35742,10.35742 c 5.72031,1.6e-4 10.35757,-4.63711 10.35742,-10.35742 c 1.5e-4,-5.72031 -4.63711,-10.35758 -10.35742,-10.35742 z" id="path4282-6" />
        </g>
      </g>
    </g>
  </g>
</svg>
