<?xml version="1.0" encoding="UTF-8" standalone="no"?>
<svg xmlns:dc="http://purl.org/dc/elements/1.1/" xmlns:cc="http://creativecommons.org/ns#" xmlns:rdf="http://www.w3.org/1999/02/22-rdf-syntax-ns#" xmlns:svg="http://www.w3.org/2000/svg" xmlns="http://www.w3.org/2000/svg" xmlns:sodipodi="http://sodipodi.sourceforge.net/DTD/sodipodi-0.dtd" xmlns:inkscape="http://www.inkscape.org/namespaces/inkscape" version="1.1" id="svg4938" viewBox="0 0 198.81687 41.270294" height="41.270294" width="198.81686" inkscape:version="0.91 r13725" sodipodi:docname="ems-edu-logo.svg">
  <sodipodi:namedview pagecolor="#ffffff" bordercolor="#666666" borderopacity="1" objecttolerance="10" gridtolerance="10" guidetolerance="10" inkscape:pageopacity="0" inkscape:pageshadow="2" inkscape:window-width="1366" inkscape:window-height="746" id="namedview20" showgrid="false" fit-margin-top="0" fit-margin-left="0" fit-margin-right="0" fit-margin-bottom="0" units="px" inkscape:zoom="3.1606779" inkscape:cx="88.947987" inkscape:cy="-2.6881408" inkscape:window-x="0" inkscape:window-y="22" inkscape:window-maximized="1" inkscape:current-layer="layer1" />
  <defs id="defs4940" />
  <metadata id="metadata4943">
    <rdf:RDF>
      <cc:Work rdf:about="">
        <dc:format>image/svg+xml</dc:format>
        <dc:type rdf:resource="http://purl.org/dc/dcmitype/StillImage" />
        <dc:title />
      </cc:Work>
    </rdf:RDF>
  </metadata>
  <g transform="matrix(0.68783768,0,0,0.68783768,-128.61937,-468.9936)" id="layer1">
    <g id="g8145">
      <g id="g8129">
        <path inkscape:connector-curvature="0" id="rect5678" d="m 195.97887,703.12704 l 19.024,0 c 4.97935,0 8.988,3.88494 8.988,8.71061 c 0,4.82569 -4.00865,8.71062 -8.988,8.71062 l -19.024,0 c -4.97935,0 -8.988,-3.88493 -8.988,-8.71062 c 0,-4.82567 4.00865,-8.71061 8.988,-8.71061 z" style="opacity:1;fill:#1e9ad6;fill-opacity:1;stroke:none;stroke-width:54;stroke-linejoin:miter;stroke-miterlimit:4;stroke-dasharray:none;stroke-dashoffset:0;stroke-opacity:1" />
        <path inkscape:connector-curvature="0" id="rect5680" d="m 195.97887,681.83765 l 42.024,0 c 4.97935,0 8.988,3.88494 8.988,8.71062 c 0,4.82568 -4.00865,8.71061 -8.988,8.71061 l -42.024,0 c -4.97935,0 -8.988,-3.88493 -8.988,-8.71061 c 0,-4.82568 4.00865,-8.71062 8.988,-8.71062 z" style="opacity:1;fill:#3857a9;fill-opacity:1;stroke:none;stroke-width:54;stroke-linejoin:miter;stroke-miterlimit:4;stroke-dasharray:none;stroke-dashoffset:0;stroke-opacity:1" />
        <path inkscape:connector-curvature="0" id="rect5682" d="m 195.97887,724.41643 l 42.024,0 c 4.97935,0 8.988,3.88494 8.988,8.71062 c 0,4.82567 -4.00865,8.71061 -8.988,8.71061 l -42.024,0 c -4.97935,0 -8.988,-3.88494 -8.988,-8.71061 c 0,-4.82568 4.00865,-8.71062 8.988,-8.71062 z" style="opacity:1;fill:#25b989;fill-opacity:1;stroke:none;stroke-width:54;stroke-linejoin:miter;stroke-miterlimit:4;stroke-dasharray:none;stroke-dashoffset:0;stroke-opacity:1" />
        <path inkscape:connector-curvature="0" id="rect5700" d="m 273.26059,690.82566 l 0,19.024 c 0,4.97935 3.88494,8.988 8.71062,8.988 c 4.82568,0 8.71062,-4.00865 8.71062,-8.988 l 0,-19.024 c 0,-4.97935 -3.88494,-8.988 -8.71062,-8.988 c -4.82568,0 -8.71062,4.00865 -8.71062,8.988 z" style="opacity:1;fill:#3857a9;fill-opacity:1;stroke:none;stroke-width:54;stroke-linejoin:miter;stroke-miterlimit:4;stroke-dasharray:none;stroke-dashoffset:0;stroke-opacity:1" />
        <path inkscape:connector-curvature="0" id="rect5688" d="m 251.97121,690.82566 l 0,42.024 c 0,4.97935 3.88494,8.988 8.71061,8.988 c 4.82568,0 8.71062,-4.00865 8.71062,-8.988 l 0,-42.024 c 0,-4.97935 -3.88494,-8.988 -8.71062,-8.988 c -4.82567,0 -8.71061,4.00865 -8.71061,8.988 z" style="opacity:1;fill:#25b989;fill-opacity:1;stroke:none;stroke-width:54;stroke-linejoin:miter;stroke-miterlimit:4;stroke-dasharray:none;stroke-dashoffset:0;stroke-opacity:1" />
        <path inkscape:connector-curvature="0" id="rect5690" d="m 294.54998,690.82566 l 0,42.024 c 0,4.97935 3.88494,8.988 8.71062,8.988 c 4.82567,0 8.71061,-4.00865 8.71061,-8.988 l 0,-42.024 c 0,-4.97935 -3.88494,-8.988 -8.71061,-8.988 c -4.82568,0 -8.71062,4.00865 -8.71062,8.988 z" style="opacity:1;fill:#1e9ad6;fill-opacity:1;stroke:none;stroke-width:54;stroke-linejoin:miter;stroke-miterlimit:4;stroke-dasharray:none;stroke-dashoffset:0;stroke-opacity:1" />
        <path id="rect5694" d="m 325.93958,720.54823 l 42.024,0 c 4.97935,0 8.988,-3.88494 8.988,-8.71061 c 0,-4.82569 -4.00865,-8.71062 -8.988,-8.71062 l -42.024,0 c -4.97935,0 -8.988,3.88493 -8.988,8.71062 c 0,4.82567 4.00865,8.71061 8.988,8.71061 z" style="opacity:1;fill:#1e9ad6;fill-opacity:1;stroke:none;stroke-width:54;stroke-linejoin:miter;stroke-miterlimit:4;stroke-dasharray:none;stroke-dashoffset:0;stroke-opacity:1" inkscape:connector-curvature="0" />
        <path id="rect5696" d="m 325.93958,741.83762 l 42.024,0 c 4.97935,0 8.988,-3.88494 8.988,-8.71062 c 0,-4.82568 -4.00865,-8.71061 -8.988,-8.71061 l -42.024,0 c -4.97935,0 -8.988,3.88493 -8.988,8.71061 c 0,4.82568 4.00865,8.71062 8.988,8.71062 z" style="opacity:1;fill:#3857a9;fill-opacity:1;stroke:none;stroke-width:54;stroke-linejoin:miter;stroke-miterlimit:4;stroke-dasharray:none;stroke-dashoffset:0;stroke-opacity:1" inkscape:connector-curvature="0" />
        <path id="rect5698" d="m 325.93958,699.25884 l 42.024,0 c 4.97935,0 8.988,-3.88494 8.988,-8.71062 c 0,-4.82567 -4.00865,-8.71061 -8.988,-8.71061 l -42.024,0 c -4.97935,0 -8.988,3.88494 -8.988,8.71061 c 0,4.82568 4.00865,8.71062 8.988,8.71062 z" style="opacity:1;fill:#25b989;fill-opacity:1;stroke:none;stroke-width:54;stroke-linejoin:miter;stroke-miterlimit:4;stroke-dasharray:none;stroke-dashoffset:0;stroke-opacity:1" inkscape:connector-curvature="0" />
      </g>
      <g id="g8140">
        <path inkscape:connector-curvature="0" id="path8181" style="font-style:normal;font-variant:normal;font-weight:normal;font-stretch:normal;font-size:50px;line-height:7.00000003%;font-family:'Delius Swash Caps';-inkscape-font-specification:'Delius Swash Caps';letter-spacing:0px;word-spacing:0px;fill:#1e9ad6;fill-opacity:1;stroke:none;stroke-width:1px;stroke-linecap:butt;stroke-linejoin:miter;stroke-opacity:1" d="m 400.18082,716.92117 q 3.65,-1.75 6.8,-1.75 q 3.15,0 4.45,1.25 q 1.5,1.1 1.5,2.75 q 0,1.3 -0.85,2.3 q -1.85,2 -5.75,2 q -1.6,0 -3.55,-0.7 q -1.95,-0.75 -3.35,-1.8 q -4.25,2.9 -4.25,7.85 q 0,3.35 2.95,6.2 q 2.95,2.8 8,2.8 q 5.1,0 7.85,-2.15 q 2.75,-2.15 3.5,-2.15 q 1.4,0 1.4,1.3 q 0,1.1 -1.6,2.6 q -1.6,1.5 -4.65,2.7 q -3,1.2 -6.2,1.2 q -7.05,0 -11.2,-3.7 q -4.05,-3.75 -4.05,-8.35 q 0,-6.7 5.85,-10.55 q -2.75,-2.8 -2.75,-7.05 q 0,-4.25 3.35,-6.8 q 3.4,-2.55 7.65,-2.55 q 4.25,0 7.45,1.6 q 3.2,1.55 3.2,3.45 q 0,1.2 -1,1.6 q -0.3,0.05 -0.9,0.05 q -0.55,0 -1.7,-0.75 q -3.25,-2.45 -6.55,-2.45 q -3.25,0 -5.4,1.55 q -2.4,1.5 -2.4,4.65 q 0,3.1 2.2,4.9 z m 2.55,2 l -0.55,0.25 q 1.75,1.3 4.4,1.3 q 2.65,0 2.65,-1.25 q 0,-1.05 -2.45,-1.05 q -2.45,0 -4.05,0.75 z" />
        <path inkscape:connector-curvature="0" id="path8183" style="font-style:normal;font-variant:normal;font-weight:normal;font-stretch:normal;font-size:50px;line-height:7.00000003%;font-family:'Delius Swash Caps';-inkscape-font-specification:'Delius Swash Caps';letter-spacing:0px;word-spacing:0px;fill:#1e9ad6;fill-opacity:1;stroke:none;stroke-width:1px;stroke-linecap:butt;stroke-linejoin:miter;stroke-opacity:1" d="m 440.49254,729.17117 l 0,-7.95 q -2.95,-2.9 -7.1,-2.9 q -3.15,0 -5.6,2.95 q -2.45,2.9 -2.45,6.9 q 0,3.95 1.75,6.85 q 1.75,2.8 4.75,2.8 q 5.25,0 8.65,-8.65 z m 2.1,-26.6 q 2.45,0 2.45,4.05 q 0,1.55 -0.2,3.6 l -0.6,6.55 q -0.55,6.1 -0.65,7.35 q 0,6.55 0.45,9.8 q 0.5,3.2 1.75,3.45 q 1.3,0 1.3,0.75 q 0,1.1 -0.75,2.05 q -0.7,0.9 -2.05,0.9 q -2.8,0 -3.45,-6.7 q -3.7,6.7 -9.25,6.7 q -3.3,0 -5.6,-2.1 q -4.35,-3.85 -4.35,-10.35 q 0,-5.45 3.3,-9.5 q 3.3,-4.05 8.45,-4.05 q 3.75,0 7.1,2.45 q 0.1,-9.3 0.1,-11.35 q 0,-2.05 0.45,-2.8 q 0.5,-0.8 1.55,-0.8 z" />
        <path inkscape:connector-curvature="0" id="path8185" style="font-style:normal;font-variant:normal;font-weight:normal;font-stretch:normal;font-size:50px;line-height:7.00000003%;font-family:'Delius Swash Caps';-inkscape-font-specification:'Delius Swash Caps';letter-spacing:0px;word-spacing:0px;fill:#1e9ad6;fill-opacity:1;stroke:none;stroke-width:1px;stroke-linecap:butt;stroke-linejoin:miter;stroke-opacity:1" d="m 456.23707,719.17117 l -0.4,11 q 0,3.45 1.45,5.55 q 1.5,2.1 4.05,2.1 q 2.55,0 4.95,-2.85 q 2.35,-2.9 3.35,-6.5 l -0.15,-10.85 q 0,-2.55 1.9,-2.55 q 2.3,0 2.3,3.45 q 0,3.4 -1,9.95 q 0,3.65 0.5,6.1 q 0.55,2.4 1.35,2.7 q 0.3,0.15 0.7,0.2 q 0.45,0.05 0.6,0.15 q 0.2,0.1 0.2,0.4 q 0,1.35 -0.85,2.2 q -0.8,0.85 -2.05,0.85 q -3.15,0 -3.15,-6.4 q -3.7,6.4 -9.3,6.4 q -4,0 -6.2,-2.95 q -2.2,-3.05 -2.2,-7.3 l 0.3,-7.55 q 0,-1.55 -0.4,-3.7 q -0.4,-2.2 -0.4,-2.75 q 0,-0.55 0.6,-1.15 q 0.65,-0.6 1.55,-0.6 q 2.3,0 2.3,4.1 z" />
      </g>
    </g>
  </g>
</svg>
