<?xml version="1.0" encoding="UTF-8" standalone="no"?>
<svg xmlns:dc="http://purl.org/dc/elements/1.1/" xmlns:cc="http://creativecommons.org/ns#" xmlns:rdf="http://www.w3.org/1999/02/22-rdf-syntax-ns#" xmlns:svg="http://www.w3.org/2000/svg" xmlns="http://www.w3.org/2000/svg" version="1.1" id="svg4188" viewBox="0 0 248.11463 226.75394" height="63.995003mm" width="70.02346mm">
  <defs id="defs4190">
    <style id="style4761">.cls-1,.cls-10,.cls-11{fill:#bfdeff;}.cls-1,.cls-12,.cls-14,.cls-5,.cls-9{stroke:#336ea0;}.cls-1,.cls-4,.cls-5,.cls-6,.cls-8,.cls-9{stroke-linecap:round;stroke-linejoin:round;}.cls-1,.cls-12,.cls-14,.cls-15,.cls-4,.cls-5,.cls-6,.cls-8,.cls-9{stroke-width:2px;}.cls-12,.cls-2,.cls-4,.cls-9{fill:#fff;}.cls-3{fill:#336ea0;}.cls-4,.cls-6{stroke:#59a2d3;}.cls-14,.cls-15,.cls-5,.cls-6,.cls-8{fill:none;}.cls-7{fill:#87c675;}.cls-15,.cls-8{stroke:#fff;}.cls-11{font-size:11.417px;font-family:ArialRoundedMTBold, Arial Rounded MT Bold;}.cls-12,.cls-14,.cls-15{stroke-miterlimit:10;}.cls-13{fill:#59a2d3;}</style>
  </defs>
  <metadata id="metadata4193">
    <rdf:RDF>
      <cc:Work rdf:about="">
        <dc:format>image/svg+xml</dc:format>
        <dc:type rdf:resource="http://purl.org/dc/dcmitype/StillImage" />
        <dc:title></dc:title>
      </cc:Work>
    </rdf:RDF>
  </metadata>
  <g transform="translate(-222.85123,-342.07808)" id="layer1">
    <path id="path4756" d="m 344.0957,342.11328 0.0176,1.5 2.78516,-0.0352 0.0117,0 0.008,0 0.17578,0.002 0.0195,-1.5 -0.19531,-0.002 -0.01,0 -0.01,0 z m 5.97852,1.51172 2.60156,0.0996 0.37695,0.0234 0.0957,-1.49805 -0.39649,-0.0234 -0.01,-0.002 -0.01,0 -2.59961,-0.0996 z m -11.87891,-1.2168 -0.01,0 -0.01,0 -0.1289,0.0117 0.13281,1.49414 0.11133,-0.01 0.0176,-0.002 2.84571,-0.17968 -0.0957,-1.4961 z m 17.83203,1.54102 2.31055,0.20508 0.01,0.002 0.01,0 0.63867,0.0723 0.16993,-1.49024 -0.65625,-0.0742 -0.01,-0.002 -0.01,0 -2.33007,-0.20703 z m -23.54882,-0.96094 -0.01,0 -0.008,0.002 -0.41992,0.0586 0.20898,1.48437 0.39844,-0.0566 0,0.002 2.5625,-0.29297 -0.17188,-1.49024 z m 29.47656,1.59961 2.00195,0.28125 0.94531,0.15625 0.2461,-1.48047 -0.96485,-0.16015 -0.01,0 -0.01,-0.002 -2.00195,-0.28125 z m -35.10547,-0.74023 -0.01,0 -0.01,0.002 -0.75,0.14453 0.28125,1.47266 0.75195,-0.14258 0,-0.002 2.18555,-0.36133 -0.24414,-1.47852 z m 40.99023,1.69336 1.60743,0.30664 0,0.002 1.3125,0.28516 0.32031,-1.4668 -1.31446,-0.28516 -0.008,-0.002 -0.01,-0.002 -1.62696,-0.31055 z m -46.52539,-0.5625 -0.01,0.002 -0.01,0.002 -1.11914,0.27344 0.35547,1.45703 1.10156,-0.26953 0,0.002 1.80664,-0.39453 -0.32031,-1.46484 z m 52.34961,1.82812 1.19532,0.29102 1.6914,0.45703 0.39063,-1.44727 -1.68946,-0.45703 -0.01,-0.004 -0.008,-0.002 -1.21485,-0.29492 z m -57.78515,-0.42969 -0.008,0.002 -0.01,0.002 -1.51172,0.45117 0.42773,1.4375 1.49414,-0.44531 0.0176,-0.006 1.35547,-0.36524 -0.39258,-1.44921 z m 63.53515,2.00391 0.75391,0.22266 0,0.002 2.08789,0.67773 0.46289,-1.42773 -2.08594,-0.67774 -0.01,-0.002 -0.008,-0.004 -0.77343,-0.22852 z m -68.85937,-0.34961 -0.01,0.004 -0.008,0.002 -1.92188,0.67773 0.49805,1.41407 1.9043,-0.66993 0.0117,-0.004 0.006,-0.002 0.89648,-0.29101 -0.46289,-1.42773 z m 74.51758,2.22852 0.29492,0.10351 0.0176,0.006 2.47851,0.94336 0.5332,-1.40234 -2.49609,-0.94922 -0.01,-0.004 -0.008,-0.002 -0.31054,-0.10938 z m -79.72852,-0.32032 -0.008,0.002 -0.008,0.004 -2.33984,0.95508 0.56641,1.38867 2.32226,-0.94726 0.0176,-0.008 0.42578,-0.1621 -0.5332,-1.4004 z m 85.26172,2.49414 2.33594,1.02344 0.004,0.002 0.0137,0.006 0.37305,0.17383 0.63477,-1.35937 -0.39063,-0.18164 -0.008,-0.004 -0.01,-0.004 -2.35156,-1.02929 z m -92.84375,0.82032 -0.008,0.004 -0.008,0.004 -0.27343,0.13672 0.66796,1.34375 0.25586,-0.12891 0.0176,-0.008 2.42578,-1.13281 -0.63476,-1.35743 z m 98.26562,1.66211 1.80469,0.89648 0.002,0 0.0137,0.008 0.83789,0.44336 0.70117,-1.32812 -0.85352,-0.44922 -0.01,-0.004 -0.008,-0.006 -1.82226,-0.90429 z m -103.15429,0.84179 -0.008,0.004 -0.008,0.004 -0.74023,0.41407 0.73242,1.31054 0.72461,-0.40625 0.0156,-0.008 1.88672,-0.99609 -0.69922,-1.32617 z m 108.43554,1.92383 1.2793,0.71289 0.0156,0.01 1.29101,0.76367 0.76367,-1.29102 -1.30664,-0.77343 -0.008,-0.004 -0.008,-0.004 -1.29492,-0.72461 z m -113.18359,0.80664 -0.008,0.004 -0.008,0.004 -1.19336,0.7461 0.79492,1.27343 1.17773,-0.73632 0.0156,-0.01 1.35547,-0.80078 -0.76368,-1.29102 z m 118.31445,2.23438 0.76172,0.47461 0.0156,0.01 1.72461,1.13672 0.82421,-1.25391 -1.74023,-1.14453 -0.008,-0.006 -0.008,-0.004 -0.77735,-0.48633 z m -122.91406,0.71289 -0.008,0.006 -0.008,0.004 -1.62696,1.12891 0.85547,1.23242 1.61133,-1.11719 0.0156,-0.01 0.83789,-0.55274 -0.82617,-1.25195 z m 127.875,2.59375 0.26563,0.18359 0.008,0.006 0.006,0.004 2.13476,1.55664 0.88282,-1.21094 -2.14844,-1.56836 -0.008,-0.004 -0.006,-0.006 -0.28125,-0.19335 z m -132.32031,0.56836 -0.008,0.004 -0.006,0.006 -2.03321,1.5586 0.91211,1.18945 2.03321,-1.55664 0,-0.002 0.33984,-0.24805 -0.88281,-1.21094 z m 137.08398,2.99023 1.90235,1.53125 0.0137,0.0117 0.39844,0.33594 0.96875,-1.14453 -0.41407,-0.34961 -0.006,-0.004 -0.008,-0.006 -1.91601,-1.54297 z m -143.44531,2.13086 -0.008,0.006 -0.006,0.006 -0.33399,0.29687 0.9961,1.1211 0.32031,-0.28321 1.95117,-1.65039 -0.96875,-1.14453 z m 148.02344,1.68945 1.38281,1.22657 0.0137,0.0117 0.81641,0.75977 1.02148,-1.09766 -0.82812,-0.77148 -0.008,-0.006 -0.006,-0.006 -1.39649,-1.24023 z m -152.05078,1.97071 -0.006,0.006 -0.008,0.006 -0.74218,0.72657 1.04687,1.07226 0.73047,-0.71289 0.0137,-0.0117 1.42188,-1.32422 -1.02149,-1.09765 z m 156.42187,2.08398 0.89844,0.87695 0.006,0.006 0.006,0.006 1.19531,1.22461 1.07227,-1.04883 -1.20704,-1.23632 -0.006,-0.006 -0.006,-0.006 -0.91016,-0.88868 z m -160.26953,1.76172 -0.006,0.006 -0.006,0.008 -1.11328,1.19531 1.09766,1.02344 1.10156,-1.18359 0.0117,-0.0137 0.9414,-0.96289 -1.07226,-1.04883 z m 164.42383,2.51758 0.44922,0.48242 0.0117,0.0137 1.52929,1.72461 1.12305,-0.99609 -1.54297,-1.73828 -0.006,-0.006 -0.006,-0.006 -0.46094,-0.4961 z m -168.08203,1.50976 -0.006,0.006 -0.006,0.006 -1.43945,1.70313 1.14453,0.96875 1.42773,-1.68946 0.004,-0.004 0.008,-0.01 0.5,-0.5625 -1.12305,-0.99609 z m 172.00586,2.98243 0.041,0.0488 0.0117,0.0137 1.67383,2.08007 0.0117,0.0137 0.11719,0.1543 1.1914,-0.91406 -0.1289,-0.16602 -0.006,-0.008 -0.006,-0.008 -1.69727,-2.10547 -0.004,-0.008 -0.006,-0.006 -0.0547,-0.0645 z m -175.47266,1.21484 -0.006,0.008 -0.006,0.008 -1.64648,2.14649 -0.004,0.008 -0.006,0.008 -0.0684,0.0918 1.21289,0.88281 0.0547,-0.0762 0.002,0 1.63477,-2.13477 0.0117,-0.0137 L 259,386.25 l -1.16797,-0.93945 z m 179.13281,3.46875 1.28906,1.76562 0.01,0.0156 0.44336,0.63867 1.23242,-0.85351 -0.45312,-0.6543 -0.006,-0.008 -0.004,-0.008 -1.29883,-1.78125 z m -183.95117,3.13867 -0.006,0.008 -0.004,0.008 -0.38281,0.58007 1.25196,0.82422 0.37304,-0.56445 0.01,-0.0156 1.30273,-1.8789 -1.23242,-0.85547 z m 187.37109,1.74609 0.88477,1.34375 0.01,0.0156 0.71679,1.15039 1.27344,-0.79492 -0.72852,-1.16406 -0.004,-0.008 -0.006,-0.008 -0.89453,-1.35937 z m -190.32031,2.85352 -0.006,0.008 -0.004,0.008 -0.64453,1.08984 1.29101,0.76367 0.63477,-1.07422 0.01,-0.0156 0.9082,-1.45508 -1.27148,-0.79492 z m 193.47656,2.20508 0.53125,0.89844 0.01,0.0156 0.9375,1.67773 1.30859,-0.73242 -0.94531,-1.69336 -0.006,-0.008 -0.004,-0.008 -0.54102,-0.91211 z m -196.20703,2.54297 -0.006,0.008 -0.004,0.008 -0.85156,1.61524 1.32617,0.69922 0.84375,-1.59766 0.01,-0.0156 0,-0.002 0.5625,-1.00781 -1.30859,-0.73242 z m -2.5039,4.88867 -0.006,0.008 -0.004,0.008 -1.00195,2.14649 1.35937,0.63476 0.99414,-2.1289 0.008,-0.0176 0.27343,-0.54883 -1.34375,-0.66797 z m -2.27149,5.02148 -0.004,0.008 -0.004,0.01 -1.03906,2.54102 -0.002,0.01 -0.004,0.008 -0.0527,0.13868 1.40235,0.5332 0.0449,-0.12109 0.008,-0.0176 1.02344,-2.50781 0.008,-0.0176 0.0352,-0.0801 -1.37305,-0.60156 z m 212.09961,74.75977 -0.006,0.0176 -0.5,1.68164 1.4375,0.42773 0.50586,-1.69922 0.002,-0.01 0.002,-0.008 0.32031,-1.1836 -1.44726,-0.39258 z m -1.63476,5.2539 -0.002,0.006 -0.004,0.0117 -0.73633,2.08985 1.41601,0.49804 0.74219,-2.10742 0.002,-0.008 0.004,-0.01 0.23633,-0.72851 -1.42774,-0.46289 z m -212.72071,2.48243 0.21875,0.61914 0.004,0.008 0.002,0.01 0.83399,2.18945 1.40234,-0.53125 -0.82812,-2.17383 -0.006,-0.0176 -0.21094,-0.60156 z m 210.83985,2.6582 -0.006,0.0176 -1.02344,2.50195 1.38867,0.56836 1.0293,-2.51953 0.004,-0.01 0.002,-0.008 0.0996,-0.25976 -1.40235,-0.53321 z m -208.65039,2.9668 0.0586,0.14257 0.004,0.008 0.004,0.01 1.09766,2.50977 0.004,0.008 0.004,0.01 0.0449,0.0957 1.35938,-0.63477 -0.0371,-0.0801 -0.008,-0.0156 -1.08399,-2.47656 -0.008,-0.0176 -0.0508,-0.125 z m 205.3789,4.51367 -0.008,0.0176 -0.21484,0.43164 1.34375,0.66797 0.22265,-0.44922 0.004,-0.008 0.004,-0.008 1.05664,-2.26562 -1.35938,-0.63477 z m -202.87695,1 1.05078,2.11328 0.004,0.008 0.004,0.008 0.29883,0.56641 1.32617,-0.69922 -0.29101,-0.55078 -0.008,-0.0137 0,-0.002 -1.04101,-2.09766 z m 200.40625,3.82422 -0.008,0.0156 -0.50196,0.89649 1.31055,0.73242 0.50977,-0.91211 0.004,-0.008 0.004,-0.008 0.91211,-1.73046 -1.32617,-0.69922 z m -197.62109,1.52929 0.88281,1.58008 0.004,0.008 0.004,0.008 0.60742,1.02539 1.29102,-0.76367 -0.59766,-1.00977 -0.008,-0.0156 -0.875,-1.5625 z m 194.92773,3.15625 -0.01,0.0156 -0.83789,1.34375 1.27149,0.79492 0.84961,-1.35937 0.004,-0.008 0.004,-0.008 0.71094,-1.20312 -1.29102,-0.76368 z m -191.86328,2.04297 0.6582,1.05469 0.004,0.008 0.006,0.008 0.96679,1.46679 1.25196,-0.82422 -0.95703,-1.45117 -0.01,-0.0156 -0.64844,-1.03907 z m 188.95312,2.4961 -0.01,0.0156 -1.22852,1.77149 1.23242,0.85546 1.24024,-1.7871 0.004,-0.008 0.006,-0.008 0.45313,-0.68945 -1.25195,-0.82422 z m -185.61914,2.53515 0.37891,0.54688 0.006,0.008 0.006,0.008 1.375,1.88477 1.21094,-0.88281 -1.36329,-1.8711 -0.0117,-0.0156 -0.36914,-0.53125 z m 182.50196,1.85157 -0.006,0.008 -0.006,0.008 -1.625,2.11914 -0.0117,0.0137 -0.0195,0.0234 1.16797,0.94141 0.0312,-0.0391 0.006,-0.006 0.006,-0.008 1.64648,-2.14648 0.006,-0.008 0.006,-0.008 0.14258,-0.19726 -1.21094,-0.88282 z m -178.90821,2.99609 0.0488,0.0644 0.006,0.008 0.006,0.006 1.69727,2.10743 0.006,0.008 0.006,0.006 0.13672,0.16406 1.14649,-0.96875 -0.12696,-0.15039 -0.0117,-0.0137 -1.67383,-2.07813 -0.0117,-0.0137 -0.0371,-0.0508 z m 173.85157,3.2832 -0.004,0.004 -0.008,0.01 -0.41211,0.46485 1.12109,0.99609 0.42578,-0.48047 0.006,-0.006 0.006,-0.008 1.52344,-1.80078 -1.14649,-0.96875 z m -169.98633,1.37696 1.45508,1.64062 0.006,0.006 0.006,0.006 0.55079,0.5918 1.09765,-1.02344 -0.53711,-0.57617 -0.0137,-0.0137 -1.44336,-1.62696 z m 166.375,2.5957 -0.0117,0.0137 -0.84961,0.87109 1.07227,1.04688 0.86328,-0.88281 0.006,-0.008 0.006,-0.006 1.20312,-1.29102 -1.09766,-1.02344 z m -162.28321,1.83789 1.11719,1.14453 0.006,0.006 0.006,0.006 1.00391,0.98047 1.04883,-1.07422 -0.99024,-0.9668 -1.11719,-1.14258 z m 158.48829,1.95898 -0.0137,0.0117 -1.32617,1.23438 1.02149,1.09961 1.33984,-1.24805 0.008,-0.006 0.006,-0.006 0.83594,-0.81836 -1.04688,-1.07226 z m -154.16797,2.25586 0.73437,0.6836 0.006,0.006 0.008,0.006 1.49414,1.32617 0.99415,-1.12305 -1.48047,-1.3125 -0.0137,-0.0137 -0.7207,-0.66992 z m 150.19531,1.35547 -0.01,0.008 -0.004,0.004 -1.83789,1.55469 0.96875,1.14453 1.85156,-1.56445 0.006,-0.006 0.008,-0.006 0.42969,-0.38281 -0.99609,-1.1211 z m -145.66016,2.62696 0.3125,0.26367 0.006,0.006 0.008,0.006 2.01757,1.625 0.94141,-1.16797 -2.00391,-1.61328 -0.0137,-0.0117 -0.29883,-0.25196 z m 139.38282,2.42968 -0.0137,0.01 -0.23632,0.17187 0.88476,1.21289 0.24805,-0.18359 0.008,-0.004 0.008,-0.006 2.13477,-1.63671 -0.91211,-1.19141 z m -134.62891,1.31641 2.04297,1.49023 0.008,0.006 0.008,0.006 0.38672,0.26758 0.85352,-1.23242 -0.3711,-0.25781 -0.0156,-0.01 -2.0293,-1.48047 z m 130.24219,1.80273 -0.0137,0.01 -0.73046,0.48047 0.82617,1.25195 0.74219,-0.48828 0.008,-0.006 0.008,-0.006 1.73438,-1.20117 -0.85547,-1.23242 z m -125.30664,1.66992 1.63086,1.07422 0.008,0.006 0.008,0.004 0.88867,0.55469 0.79297,-1.27149 -0.87305,-0.54492 -0.0137,-0.01 -1.61718,-1.06445 z m 120.76757,1.24024 -0.0156,0.01 -1.24219,0.73438 0.76367,1.29102 1.25782,-0.74414 0.008,-0.004 0.008,-0.006 1.30469,-0.81445 -0.79492,-1.27149 z m -115.65625,1.96875 1.19532,0.70703 0.008,0.004 0.008,0.004 1.40625,0.78711 0.73242,-1.30859 -1.39257,-0.77735 -0.0156,-0.01 -1.17773,-0.69727 z m 110.95508,0.73437 0,0.002 -1.77148,0.93164 0.70117,1.32812 1.78711,-0.94336 0.008,-0.004 0.008,-0.006 0.85547,-0.47656 -0.73242,-1.31055 z m -105.67968,2.20118 0.73828,0.38867 0.008,0.004 0.008,0.004 1.93945,0.96484 0.66602,-1.34375 -1.92187,-0.95507 -0.002,0 -0.0137,-0.008 -0.72266,-0.38281 z m 100.87304,0.26172 -0.0156,0.008 -2.3086,1.07617 0.63477,1.35937 2.32422,-1.08398 0.008,-0.004 0.008,-0.004 0.39063,-0.19532 -0.66797,-1.34179 z m -95.45117,2.38867 0.27148,0.12695 0.01,0.004 0.008,0.004 2.47266,1.08203 0.60156,-1.375 -2.45703,-1.07422 -0.0156,-0.008 -0.25586,-0.11914 z m 87.9707,0.88281 -0.0176,0.008 -0.30274,0.11524 0.5332,1.40234 0.32032,-0.12305 0.008,-0.004 0.01,-0.002 2.45899,-1.00586 -0.56641,-1.38867 z m -82.39648,1.47852 2.375,0.90234 0.008,0.004 0.008,0.002 0.43555,0.15234 0.49805,-1.41406 -0.41797,-0.14648 -0.0137,-0.004 -0.002,-0.002 -2.35742,-0.89649 z m 77.25586,0.40429 -0.0117,0.004 -0.006,0.002 -0.77344,0.25195 0.46485,1.42579 0.79101,-0.25782 0.008,-0.002 0.01,-0.004 2.04492,-0.71875 -0.49805,-1.41601 z m -71.57813,1.64258 1.96485,0.63867 0.008,0.002 0.01,0.004 0.89649,0.26563 0.42773,-1.4375 -0.8789,-0.26172 -0.0176,-0.006 -1.94727,-0.63086 z m 66.30664,-0.004 -1.22851,0.33399 0.39258,1.44726 1.24609,-0.33789 0.01,-0.002 0.008,-0.002 1.63867,-0.48828 -0.42773,-1.4375 z M 317,564.83789 l 1.56445,0.42188 0.01,0.004 0.01,0.002 1.33985,0.32618 0.35547,-1.45703 -1.32227,-0.32227 -0.0176,-0.004 -1.54687,-0.41992 z m 55.18359,-0.37305 -0.0137,0.004 -0.004,0 -1.66016,0.36133 0.31836,1.4668 1.67969,-0.36524 0.008,-0.002 0.01,-0.004 1.2461,-0.30273 -0.35547,-1.45703 z m -49.31836,1.80469 1.18555,0.25781 0.01,0.002 0.008,0.002 1.75586,0.33594 0.28125,-1.47461 -1.73633,-0.33203 -0.0176,-0.004 -1.16797,-0.25391 z m 43.83985,-0.68359 -2.0586,0.34179 0.24414,1.47852 2.07813,-0.34375 0.008,-0.002 0.01,0 0.8789,-0.16993 -0.28125,-1.47265 z m -37.9082,1.79883 0.83789,0.13867 0.008,0.002 0.01,0.002 2.13086,0.29883 0.20899,-1.48633 -2.13086,-0.29882 -0.81836,-0.13477 z m 32.37109,-0.95313 -0.0195,0.002 -2.41211,0.27735 0.16992,1.49023 2.43164,-0.27929 0.01,0 0.01,-0.002 0.54688,-0.0762 -0.20703,-1.48633 z m -26.38672,1.75391 0.52734,0.0605 0.008,0 0.01,0.002 2.46094,0.21875 0.13281,-1.49414 -2.4414,-0.2168 -0.008,0 -0.0117,-0.002 -0.50781,-0.0586 z m 20.72656,-1.17969 0,0.002 -2.71484,0.16992 0.0957,1.49805 2.73242,-0.17383 0.01,0 0.01,-0.002 0.25977,-0.0215 -0.13281,-1.49414 z m -14.70898,1.66211 0.26562,0.0156 0.01,0.002 0.01,0 2.73047,0.10351 0.0586,-1.5 -2.73243,-0.10351 -0.24609,-0.0156 z m 6.11914,-1.33594 -0.0195,0 -0.0449,0 -0.0195,1.5 0.0645,0 0.01,0 0.01,0 2.90625,-0.0371 0.01,0 0.01,0 0.0273,-0.002 -0.0566,-1.49805 -0.008,0 z" style="color:#000000;font-style:normal;font-variant:normal;font-weight:normal;font-stretch:normal;font-size:medium;line-height:normal;font-family:sans-serif;text-indent:0;text-align:start;text-decoration:none;text-decoration-line:none;text-decoration-style:solid;text-decoration-color:#000000;letter-spacing:normal;word-spacing:normal;text-transform:none;direction:ltr;block-progression:tb;writing-mode:lr-tb;baseline-shift:baseline;text-anchor:start;white-space:normal;clip-rule:nonzero;display:inline;overflow:visible;visibility:visible;opacity:1;isolation:auto;mix-blend-mode:normal;color-interpolation:sRGB;color-interpolation-filters:linearRGB;solid-color:#000000;solid-opacity:1;fill:#00aeef;fill-opacity:1;fill-rule:evenodd;stroke:none;stroke-width:1.5;stroke-linecap:butt;stroke-linejoin:miter;stroke-miterlimit:10;stroke-dasharray:3, 3;stroke-dashoffset:0;stroke-opacity:1;color-rendering:auto;image-rendering:auto;shape-rendering:auto;text-rendering:auto;enable-background:accumulate" />
    <g transform="translate(216.46379,387.14155)" id="g4914">
      <path style="fill:#bfdeff;stroke:#336ea0;stroke-width:2px;stroke-linecap:round;stroke-linejoin:round" class="cls-1" d="M 84.438,78.927" id="path4765" />
      <path style="fill:#f1f1f1;fill-opacity:1;stroke:none;stroke-width:2px;stroke-linecap:round;stroke-linejoin:round;stroke-opacity:1" class="cls-1" d="m 87.16,87.074 c 2.185,-0.023 3.068,1.5 1.964,3.388 l -9.065,15.457 c -1.107,1.887 -2.868,1.859 -3.917,-0.06 L 67.9,90.774 c -1.048,-1.919 -0.117,-3.507 2.072,-3.529 l 6.055,-0.06 2.507,6.4 2.666,-6.454 z" id="path4767" />
      <polygon style="fill:#ffffff" class="cls-2" points="76.866,66.793 88.428,66.793 88.428,56.478 88.428,56.478 69.23,56.478 69.23,66.793 73.204,66.793 75.035,69.964 " id="polygon4769" />
      <path style="fill:#f1f1f1;fill-opacity:1;stroke:none;stroke-opacity:1" class="cls-3" d="m 67.429916,67.060333 4.71146,0 1.877232,3.249982 1.877232,-3.249982 14.323244,0 0,-11.534648 -22.786633,0 z" id="path4771" />
      <rect style="fill:#12323d;fill-opacity:1;stroke:none;stroke-opacity:1" class="cls-3" x="73.357002" y="59.686001" width="11.377" height="1.214" id="rect4773" />
      <rect style="fill:#12323d;fill-opacity:1;stroke:none;stroke-opacity:1" class="cls-3" x="73.357002" y="62.183998" width="11.377" height="1.214" id="rect4775" />
      <circle style="fill:#ffffff;stroke:#12323d;stroke-width:2px;stroke-linecap:round;stroke-linejoin:round;stroke-opacity:1" class="cls-4" cx="156.672" cy="116.15" r="12.326" id="circle4777" />
      <circle style="fill:none;stroke:#00aeef;stroke-width:2px;stroke-linecap:round;stroke-linejoin:round;stroke-opacity:1" class="cls-5" cx="182.95" cy="116.25" r="3.45" id="circle4779" />
      <polyline style="fill:none;stroke:#12323d;stroke-width:2px;stroke-linecap:round;stroke-linejoin:round;stroke-opacity:1" class="cls-6" points="190.2 116.25 195.601 116.25 195.601 105.15" id="polyline4781" />
      <circle style="fill:none;stroke:#00aeef;stroke-width:2px;stroke-linecap:round;stroke-linejoin:round;stroke-opacity:1" class="cls-5" cx="78" cy="116.25" r="3.45" id="circle4783" />
      <polyline style="fill:none;stroke:#12323d;stroke-width:2px;stroke-linecap:round;stroke-linejoin:round;stroke-opacity:1" class="cls-6" points="70.23 116.25 43.8 116.25 43.8 83.85" id="polyline4785" />
      <line style="fill:none;stroke:#12323d;stroke-width:2px;stroke-linecap:round;stroke-linejoin:round;stroke-opacity:1" class="cls-6" x1="85.25" y1="116.25" x2="130.3" y2="116.25" id="line4787" />
      <line style="fill:none;stroke:#12323d;stroke-width:2px;stroke-linecap:round;stroke-linejoin:round;stroke-opacity:1" class="cls-6" x1="175.7" y1="116.25" x2="168.998" y2="116.25" id="line4789" />
      <polyline style="fill:none;stroke:#12323d;stroke-width:2px;stroke-linecap:round;stroke-linejoin:round;stroke-opacity:1" class="cls-6" points="144.136 116.25 130.118 116.25 130.118 98.554" id="polyline4791" />
      <circle style="fill:#205770;fill-opacity:1" class="cls-7" cx="156.61501" cy="116.177" r="8.967" id="circle4793" />
      <polyline style="fill:none;stroke:#ffffff;stroke-width:2px;stroke-linecap:round;stroke-linejoin:round" class="cls-8" points="161.86 113.772 155.33 120.301 152.085 117.056" id="polyline4795" />
      <path style="fill:#ffffff;stroke:#12323d;stroke-width:2px;stroke-linecap:round;stroke-linejoin:round;stroke-opacity:1" class="cls-9" d="m 142.449,87.908 -1.176,0 0,-3.152 1.176,0 c 0.646,0 1.176,-0.929 1.176,-1.576 0,-0.647 -0.53,-1.576 -1.176,-1.576 l -1.176,0 0,-25.61" id="path4797" />
      <path style="fill:#f1f1f1;fill-opacity:1;stroke:#12323d;stroke-width:1;stroke-linecap:round;stroke-linejoin:round;stroke-opacity:1;stroke-miterlimit:4;stroke-dasharray:none" class="cls-1" d="m 145.193,64.884 c 0.95774,-0.62771 1.87306,-1.317873 2.74,-2.066 -2.315,-1.006 -6.355,-2.355 -9.142,-3.36 -1.2,-0.431 -2.162,-0.8 -2.657,-1.046 l -6.578,14.7 -5.962,-14.931 c -0.21646,-0.542085 -6.208,2.334 -10.227,3.862 1.11396,1.050016 2.31866,1.999386 3.6,2.837 l 0,12.036 c 0.002,0.352496 0.12334,0.693913 0.345,0.968 l 10.421,0.015 17.066,0.041 c 0.25082,-0.282318 0.39018,-0.646358 0.392,-1.024 z" id="path4803" />
      <path style="fill:none;stroke:#336ea0;stroke-width:2px;stroke-linecap:round;stroke-linejoin:round" class="cls-5" d="M 117.452,25.582" id="path4805" />
      <path style="fill:none;stroke:#336ea0;stroke-width:2px;stroke-linecap:round;stroke-linejoin:round" class="cls-5" d="M 153.229,40.5" id="path4807" />
      <line style="fill:none;stroke:#12323d;stroke-width:2px;stroke-linecap:round;stroke-linejoin:round;stroke-opacity:1" class="cls-5" x1="131.125" y1="11.265" x2="131.125" y2="8.165" id="line4809" />
      <line style="fill:none;stroke:#12323d;stroke-width:2px;stroke-linecap:round;stroke-linejoin:round;stroke-opacity:1" class="cls-5" x1="162.7" y1="42.826" x2="166.06" y2="42.826" id="line4811" />
      <line style="fill:none;stroke:#12323d;stroke-width:2px;stroke-linecap:round;stroke-linejoin:round;stroke-opacity:1" class="cls-5" x1="96.385002" y1="42.826" x2="99.744003" y2="42.826" id="line4813" />
      <line style="fill:none;stroke:#12323d;stroke-width:2px;stroke-linecap:round;stroke-linejoin:round;stroke-opacity:1" class="cls-5" x1="109.102" y1="20.351999" x2="106.911" y2="18.16" id="line4815" />
      <line style="fill:none;stroke:#12323d;stroke-width:2px;stroke-linecap:round;stroke-linejoin:round;stroke-opacity:1" class="cls-5" x1="153.746" y1="20.341999" x2="156.12199" y2="17.966" id="line4817" />
      <path style="fill:#f1f1f1;fill-opacity:1" class="cls-10" d="m 176.4,92.062 0,-51.462 a 4.234,4.234 0 0 1 4.222,-4.222 l 28.85,0 A 4.234,4.234 0 0 1 213.7,40.6 l 0,51.462 z" id="path4819" />
      <path style="fill:#12323d;fill-opacity:1" class="cls-3" d="m 206.477,95.614 0.488,0 a 0.283,0.283 0 1 1 0,0.565 l -1.4,0 a 0.303,0.303 0 0 0 0,0.606 l 1.4,0 a 0.888,0.888 0 1 0 0,-1.776 l -0.488,0 0,-0.457 -1.309,0.755 1.309,0.756 z" id="path4821" />
      <path style="fill:#12323d;fill-opacity:1;stroke:none;stroke-opacity:1" class="cls-3" d="m 183.034,95.239 1.7,0 a 0.303,0.303 0 1 0 0,-0.606 l -1.7,0 a 0.303,0.303 0 1 0 0,0.606 z" id="path4823" />
      <path style="fill:#12323d;fill-opacity:1;stroke:none;stroke-opacity:1" class="cls-3" d="m 183.034,96.178 1.7,0 a 0.3025,0.3025 0 1 0 0,-0.605 l -1.7,0 a 0.3025,0.3025 0 1 0 0,0.605 z" id="path4825" />
      <path style="fill:#12323d;fill-opacity:1;stroke:none;stroke-opacity:1" class="cls-3" d="m 183.034,97.075 1.7,0 a 0.303,0.303 0 1 0 0,-0.606 l -1.7,0 a 0.303,0.303 0 1 0 0,0.606 z" id="path4827" />
      <circle style="fill:#336ea0;stroke:#12323d;stroke-opacity:1" class="cls-3" cx="183.286" cy="39.518002" r="0.79299998" id="circle4829" />
      <line style="fill:none;stroke:#f1f1f1;stroke-width:2px;stroke-linecap:round;stroke-linejoin:round;stroke-opacity:1;fill-opacity:1" class="cls-5" x1="176.48399" y1="92.166" x2="213.54401" y2="92.166" id="line4837" />
      <rect style="fill:none;stroke:#12323d;stroke-width:2px;stroke-linecap:round;stroke-linejoin:round;stroke-opacity:1" class="cls-5" x="176.48399" y="36.458" width="37.294998" height="63.331001" rx="4.2220001" ry="4.2220001" id="rect4831" />
      <rect style="fill:#12323d;fill-opacity:1;stroke:none;stroke-opacity:1" class="cls-3" x="191.495" y="95.098" width="8.092" height="1.642" rx="0.82099998" ry="0.82099998" id="rect4833" />
      <rect style="fill:#336ea0" class="cls-3" x="193.23" y="38.921001" width="4.6240001" height="0.93800002" rx="0.46900001" ry="0.46900001" id="rect4835" />
      <polygon style="fill:#ffffff;stroke:none;stroke-width:2px;stroke-linecap:round;stroke-linejoin:round;stroke-opacity:1" class="cls-9" points="201.349,45.655 209.794,54.444 209.794,62.591 209.794,62.591 181.033,62.591 181.033,45.655 " id="polygon4839" />
      <polygon style="fill:#bfdeff;stroke:#336ea0;stroke-width:2px;stroke-linecap:round;stroke-linejoin:round" class="cls-1" points="201.349,54.444 201.349,45.655 209.794,54.444 209.794,54.444 " id="polygon4841" />
      <polygon style="fill:#ffffff;stroke:none;stroke-width:2px;stroke-linecap:round;stroke-linejoin:round;stroke-opacity:1" class="cls-9" points="201.349,68.124 209.794,76.912 209.794,85.06 209.794,85.06 181.033,85.06 181.033,68.124 " id="polygon4843" />
      <polygon style="fill:#f1f1f1;fill-opacity:0.73026317;stroke:none;stroke-width:2px;stroke-linecap:round;stroke-linejoin:round;stroke-opacity:1" class="cls-1" points="201.349,76.912 201.349,68.124 209.794,76.912 209.794,76.912 " id="polygon4845" />
      <text style="font-size:11.41699982px;font-family:ArialRoundedMTBold, 'Arial Rounded MT Bold';fill:#00aeef;fill-opacity:1" class="cls-11" transform="translate(182.954,58.289)" id="text4847">&lt;/&gt;</text>
      <text style="font-size:11.41699982px;font-family:ArialRoundedMTBold, 'Arial Rounded MT Bold';fill:#00aeef;fill-opacity:1" class="cls-11" transform="translate(182.954,80.704)" id="text4849">&lt;/&gt;</text>
      <polygon style="fill:#ffffff;stroke:#12323d;stroke-width:2px;stroke-miterlimit:10;stroke-opacity:1" class="cls-12" points="62.274,51.008 56.701,54.162 56.701,78.167 21.203,78.167 21.203,38.592 56.701,38.592 56.701,38.592 56.701,47.344 56.701,47.853 " id="polygon4851" />
      <polygon style="fill:#00aeef;fill-opacity:1" class="cls-7" points="23.79,54.372 23.79,54.372 29.271,47.467 37.038,60.86 42.357,54.685 49.556,68.964 50.732,66.816 42.637,49.756 37.239,56.023 29.433,42.564 23.945,50.48 " id="polygon4853" />
      <path style="fill:#87c675" class="cls-7" d="M 53.635,73.33" id="path4855" />
      <rect style="fill:#00aeef;fill-opacity:1" class="cls-10" x="32.831001" y="56.387001" width="1.109" height="37.903" id="rect4857" />
      <path style="fill:#00aeef;fill-opacity:1" class="cls-10" d="M 33.386,97.638 A 16.776,16.776 0 0 0 30.747,92.9 l 2.639,0.955 2.638,-0.955 a 16.749,16.749 0 0 0 -2.638,4.738 z" id="path4859" />
      <rect style="fill:#00aeef;fill-opacity:1" class="cls-10" x="23.5" y="56.387001" width="1.109" height="37.903" id="rect4861" />
      <path style="fill:#00aeef;fill-opacity:1" class="cls-10" d="M 24.054,97.638 A 16.774,16.774 0 0 0 21.416,92.9 l 2.638,0.955 2.638,-0.955 a 16.774,16.774 0 0 0 -2.638,4.738 z" id="path4863" />
      <rect style="fill:#00aeef;fill-opacity:1" class="cls-10" x="14.168" y="56.387001" width="1.109" height="37.903" id="rect4865" />
      <path style="fill:#00aeef;fill-opacity:1" class="cls-10" d="M 14.722,97.638 A 16.749,16.749 0 0 0 12.084,92.9 l 2.638,0.955 2.638,-0.955 a 16.8,16.8 0 0 0 -2.638,4.738 z" id="path4867" />
      <path style="fill:#59a2d3" class="cls-13" d="M 33.34,83.523" id="path4869" />
      <path style="fill:#336ea0" class="cls-3" d="m 23.747,73.884 10.378,9.608 -0.377,0.407" id="path4871" />
      <path style="fill:#ffffff" class="cls-2" d="M 12.679,86.655 A 16.338,16.338 0 0 1 8.718,68.338 l 15.06,6.33 z" id="path4873" />
      <path style="fill:#f1f1f1;fill-opacity:1;stroke:none;stroke-opacity:1" class="cls-3" d="m 8.421,67.612 16.3,6.852 -12.012,12.975 -0.407,-0.377 C 7.092153,82.237545 5.4557848,74.669891 8.207,68.124 Z" id="path4875" />
      <path style="fill:#00aeef;fill-opacity:1" class="cls-10" d="m 11.763,69.619 a 13.032,13.032 0 1 1 21.577,13.9 l -9.562,-8.855 z" id="path4877" />
      <path style="fill:#12323d;fill-opacity:1;stroke:none;stroke-opacity:1" class="cls-3" d="m 23.8,61.084 a 13.461,13.461 0 0 1 2.992,0.335 13.587,13.587 0 0 1 6.956,22.481" id="path4879" />
      <path style="fill:#205770;fill-opacity:1" class="cls-7" d="m 92.69,76.048 a 2.112,2.112 0 1 1 2.11,-2.111 2.114,2.114 0 0 1 -2.11,2.111 z m 0,-2.676 a 0.564,0.564 0 1 0 0.563,0.565 0.565,0.565 0 0 0 -0.563,-0.565 z" id="path4881" />
      <path style="fill:#205770;fill-opacity:1" class="cls-7" d="m 98.675,73.243 a 2.112,2.112 0 1 1 2.112,-2.11 2.114,2.114 0 0 1 -2.112,2.11 z m 0,-2.676 a 0.565,0.565 0 1 0 0.564,0.566 0.566,0.566 0 0 0 -0.564,-0.566 z" id="path4883" />
      <path style="fill:#205770;fill-opacity:1" class="cls-7" d="m 104.69,70.3 a 2.112,2.112 0 1 1 2.112,-2.111 2.114,2.114 0 0 1 -2.112,2.111 z m 0,-2.676 a 0.564,0.564 0 1 0 0.563,0.565 0.565,0.565 0 0 0 -0.563,-0.567 z" id="path4885" />
      <circle style="fill:#ffffff;stroke:#12323d;stroke-width:2px;stroke-miterlimit:10;stroke-opacity:1" class="cls-12" cx="211.097" cy="45.054001" r="21.858999" id="circle4887" />
      <line style="fill:none;stroke:#12323d;stroke-width:2px;stroke-miterlimit:10;stroke-opacity:1" class="cls-14" x1="226.761" y1="60.719002" x2="231.392" y2="65.348999" id="line4889" />
      <rect style="fill:#12323d;fill-opacity:1;stroke:#00aeef;stroke-opacity:1" class="cls-3" x="237.45" y="61.106998" width="8.3669996" height="28.966999" rx="2" ry="2" transform="matrix(0.70710678,-0.70710678,0.70710678,0.70710678,17.322,193)" id="rect4891" />
      <line style="fill:none;stroke:#ffffff;stroke-width:2px;stroke-miterlimit:10" class="cls-15" x1="249.87801" y1="77.917999" x2="243.961" y2="83.834999" id="line4893" />
      <polygon style="fill:#00aeef;fill-opacity:1" class="cls-7" points="198.09,42.334 198.09,42.334 204.865,50.869 214.467,34.314 221.041,41.948 229.94,24.297 231.394,26.953 221.387,48.04 214.715,40.294 205.066,56.93 198.281,47.146 " id="polygon4895" />
      <path style="fill:#87c675" class="cls-7" d="M 234.981,18.9" id="path4897" />
      <polygon style="fill:#205770;fill-opacity:1" class="cls-7" points="133.58,55.878 130.986,60.304 128.595,60.126 127.171,55.675 127.171,55.675 " id="polygon4899" />
      <polygon style="fill:#205770;fill-opacity:1" class="cls-7" points="130.873,60.019 128.66,59.866 127.225,64.693 127.225,64.693 129.551,70.667 132.501,64.184 " id="polygon4901" />
      <path style="fill:#f1f1f1;fill-opacity:1;stroke:#12323d;stroke-width:1;stroke-linecap:round;stroke-linejoin:round;stroke-opacity:1;stroke-miterlimit:4;stroke-dasharray:none" class="cls-1" d="M 141.58,44.418 A 10.819,10.819 0 1 1 130.761,33.6 10.816,10.816 0 0 1 141.58,44.418 Z" id="path4903" />
      <line style="fill:none;stroke:#12323d;stroke-width:1;stroke-linecap:round;stroke-linejoin:round;stroke-opacity:1;stroke-miterlimit:4;stroke-dasharray:none" class="cls-5" x1="123.875" y1="57.875" x2="126.375" y2="54.525002" id="line4905" />
      <line style="fill:none;stroke:#12323d;stroke-width:1;stroke-linecap:round;stroke-linejoin:round;stroke-opacity:1;stroke-miterlimit:4;stroke-dasharray:none" class="cls-5" x1="134.375" y1="55.060001" x2="136.134" y2="58.411999" id="line4907" />
    </g>
  </g>
</svg>
