<?xml version="1.0" encoding="UTF-8" standalone="no"?>
<svg xmlns:dc="http://purl.org/dc/elements/1.1/" xmlns:cc="http://creativecommons.org/ns#" xmlns:rdf="http://www.w3.org/1999/02/22-rdf-syntax-ns#" xmlns:svg="http://www.w3.org/2000/svg" xmlns="http://www.w3.org/2000/svg" height="227.13885" width="230.80231" xml:space="preserve" viewBox="0 0 230.80231 227.13885" y="0px" x="0px" id="Layer_1" version="1.1"><metadata id="metadata61"><rdf:RDF><cc:Work rdf:about=""><dc:format>image/svg+xml</dc:format><dc:type rdf:resource="http://purl.org/dc/dcmitype/StillImage" /><dc:title></dc:title></cc:Work></rdf:RDF></metadata><defs id="defs59"><style id="style4761">.cls-1,.cls-10,.cls-11{fill:#bfdeff;}.cls-1,.cls-12,.cls-14,.cls-5,.cls-9{stroke:#336ea0;}.cls-1,.cls-4,.cls-5,.cls-6,.cls-8,.cls-9{stroke-linecap:round;stroke-linejoin:round;}.cls-1,.cls-12,.cls-14,.cls-15,.cls-4,.cls-5,.cls-6,.cls-8,.cls-9{stroke-width:2px;}.cls-12,.cls-2,.cls-4,.cls-9{fill:#fff;}.cls-3{fill:#336ea0;}.cls-4,.cls-6{stroke:#59a2d3;}.cls-14,.cls-15,.cls-5,.cls-6,.cls-8{fill:none;}.cls-7{fill:#87c675;}.cls-15,.cls-8{stroke:#fff;}.cls-11{font-size:11.417px;font-family:ArialRoundedMTBold, Arial Rounded MT Bold;}.cls-12,.cls-14,.cls-15{stroke-miterlimit:10;}.cls-13{fill:#59a2d3;}</style><style id="style4761-1">.cls-1,.cls-10,.cls-11{fill:#bfdeff;}.cls-1,.cls-12,.cls-14,.cls-5,.cls-9{stroke:#336ea0;}.cls-1,.cls-4,.cls-5,.cls-6,.cls-8,.cls-9{stroke-linecap:round;stroke-linejoin:round;}.cls-1,.cls-12,.cls-14,.cls-15,.cls-4,.cls-5,.cls-6,.cls-8,.cls-9{stroke-width:2px;}.cls-12,.cls-2,.cls-4,.cls-9{fill:#fff;}.cls-3{fill:#336ea0;}.cls-4,.cls-6{stroke:#59a2d3;}.cls-14,.cls-15,.cls-5,.cls-6,.cls-8{fill:none;}.cls-7{fill:#87c675;}.cls-15,.cls-8{stroke:#fff;}.cls-11{font-size:11.417px;font-family:ArialRoundedMTBold, Arial Rounded MT Bold;}.cls-12,.cls-14,.cls-15{stroke-miterlimit:10;}.cls-13{fill:#59a2d3;}</style></defs><g transform="matrix(0.35880996,0,0,0.35880996,63.410313,22.61556)" id="g3"><g id="g5"><g id="g7"><path style="fill:#12323d;fill-opacity:1;stroke:none;stroke-width:1.00052965;stroke-miterlimit:4;stroke-dasharray:none;stroke-opacity:1" id="path19-5" d="m 246.26894,252.11907 7.90975,0 39.54879,0 7.90976,0 0,-19.7744 15.81952,0 0,-51.41343 -31.63903,0 0,-7.90975 3.95487,0 c 10.90361,0 19.7744,-8.8708 19.7744,-19.7744 l 0,-3.95488 c 0,-9.54708 -6.80635,-17.53593 -15.81952,-19.37495 l 0,-4.35432 -7.90975,0 0,11.86463 -23.72928,0 0,-11.86463 -7.90976,0 0,19.77439 7.90976,0 0,35.59391 -31.63903,0 0,51.41343 15.81952,0 z m 39.54879,-106.78174 7.90975,0 0,-7.18206 c 4.59162,1.63732 7.90976,5.98769 7.90976,11.13694 l 0,3.95488 c 0,6.54137 -5.32327,11.86464 -11.86464,11.86464 l -3.95487,0 z m -23.72928,106.78174 23.72928,0 z m 31.63903,-23.72928 0,3.95488 0,11.86464 -39.54879,0 0,-11.86464 0,-3.95488 0,-7.90976 39.54879,0 z m 0,-15.81951 -39.54879,0 0,-7.90976 39.54879,0 z m -23.72927,-67.23295 7.90976,0 0,35.59391 -7.90976,0 z m -31.63903,79.09758 0,-35.59391 71.18782,0 0,35.59391 -7.90976,0 0,-27.68415 -55.3683,0 0,27.68415 z" /><path style="fill:none;fill-opacity:1;stroke:#12323d;stroke-opacity:1;stroke-width:2.78699064;stroke-miterlimit:4;stroke-dasharray:none" id="path9" d="m 360,336 -360,0 0,8 0,8 0,16 16,0 0,-16 16,0 0,16 16,0 0,-16 16,0 0,16 16,0 0,-16 16,0 0,16 16,0 0,-16 16,0 0,16 16,0 0,-16 16,0 0,16 16,0 0,-16 16,0 0,16 16,0 0,-16 16,0 0,16 16,0 0,-16 16,0 0,16 16,0 0,-16 16,0 0,16 16,0 0,-16 16,0 0,16 16,0 0,-16 16,0 0,16 16,0 0,-15.448 c 5.88,0.736 11.536,2.224 16.816,4.456 l -7.752,13.416 13.856,8 7.704,-13.336 c 4.632,3.52 8.752,7.648 12.28,12.28 l -13.336,7.704 8,13.856 13.416,-7.744 c 2.232,5.28 3.72,10.936 4.456,16.816 l -15.44,0 0,16 15.44,0 c -0.736,5.888 -2.224,11.536 -4.456,16.816 l -13.416,-7.744 -8,13.856 13.336,7.704 c -3.52,4.632 -7.648,8.752 -12.28,12.28 l -7.704,-13.336 -13.856,8 7.752,13.416 c -5.28,2.232 -10.936,3.72 -16.816,4.456 l 0,-15.448 -16,0 0,16 -16,0 0,-16 -16,0 0,16 -16,0 0,-16 -16,0 0,16 -16,0 0,-16 -16,0 0,16 -16,0 0,-16 -16,0 0,16 -16,0 0,-16 -16,0 0,16 -16,0 0,-16 -16,0 0,16 -16,0 0,-16 -16,0 0,16 -16,0 0,-16 -16,0 0,16 -16,0 0,-16 -16,0 0,16 -16,0 0,-16 -16,0 0,16 -16,0 0,-16 -16,0 0,16 0,8 0,8 360,0 c 44.112,0 80,-35.888 80,-80 0,-44.112 -35.888,-80 -80,-80 z" /><path style="fill:#00aeef;fill-opacity:1" id="path11" d="m 72,448 c 17.648,0 32,-14.352 32,-32 0,-17.648 -14.352,-32 -32,-32 -17.648,0 -32,14.352 -32,32 0,17.648 14.352,32 32,32 z m 0,-48 c 8.816,0 16,7.176 16,16 0,8.824 -7.184,16 -16,16 -8.824,0 -16,-7.176 -16,-16 0,-8.824 7.176,-16 16,-16 z" /><path style="fill:#00aeef;fill-opacity:1" id="path13" d="m 168,448 c 17.648,0 32,-14.352 32,-32 0,-17.648 -14.352,-32 -32,-32 -17.648,0 -32,14.352 -32,32 0,17.648 14.352,32 32,32 z m 0,-48 c 8.816,0 16,7.176 16,16 0,8.824 -7.184,16 -16,16 -8.824,0 -16,-7.176 -16,-16 0,-8.824 7.176,-16 16,-16 z" /><path style="fill:#00aeef;fill-opacity:1" id="path15" d="m 264,448 c 17.648,0 32,-14.352 32,-32 0,-17.648 -14.352,-32 -32,-32 -17.648,0 -32,14.352 -32,32 0,17.648 14.352,32 32,32 z m 0,-48 c 8.816,0 16,7.176 16,16 0,8.824 -7.184,16 -16,16 -8.824,0 -16,-7.176 -16,-16 0,-8.824 7.176,-16 16,-16 z" /><path style="fill:#00aeef;fill-opacity:1" id="path17" d="m 360,448 c 17.648,0 32,-14.352 32,-32 0,-17.648 -14.352,-32 -32,-32 -17.648,0 -32,14.352 -32,32 0,17.648 14.352,32 32,32 z m 0,-48 c 8.816,0 16,7.176 16,16 0,8.824 -7.184,16 -16,16 -8.824,0 -16,-7.176 -16,-16 0,-8.824 7.176,-16 16,-16 z" /><path style="fill:#12323d;fill-opacity:1;stroke:none;stroke-width:1.00052965;stroke-miterlimit:4;stroke-dasharray:none;stroke-opacity:1" id="path19" d="m -145.36673,252.11907 7.90975,0 39.548791,0 7.909761,0 0,-19.7744 15.819523,0 0,-51.41343 -31.639035,0 0,-7.90975 3.95487,0 c 10.903612,0 19.774404,-8.8708 19.774404,-19.7744 l 0,-3.95488 c 0,-9.54708 -6.806352,-17.53593 -15.819523,-19.37495 l 0,-4.35432 -7.909751,0 0,11.86463 -23.72928,0 0,-11.86463 -7.90976,0 0,19.77439 7.90976,0 0,35.59391 -31.63903,0 0,51.41343 15.81952,0 z m 39.54879,-106.78174 7.909751,0 0,-7.18206 c 4.591621,1.63732 7.909761,5.98769 7.909761,11.13694 l 0,3.95488 c 0,6.54137 -5.323271,11.86464 -11.864642,11.86464 l -3.95487,0 z m -23.72928,106.78174 23.72928,0 z m 31.639031,-23.72928 0,3.95488 0,11.86464 -39.548791,0 0,-11.86464 0,-3.95488 0,-7.90976 39.548791,0 z m 0,-15.81951 -39.548791,0 0,-7.90976 39.548791,0 z m -23.729271,-67.23295 7.90976,0 0,35.59391 -7.90976,0 z m -31.63903,79.09758 0,-35.59391 71.187824,0 0,35.59391 -7.909762,0 0,-27.68415 -55.368302,0 0,27.68415 z" /><rect style="fill:#00aeef;fill-opacity:1" id="rect21" height="7.9097581" width="7.9097581" y="228.38983" x="-130.3627" /><rect style="fill:#00aeef;fill-opacity:1" id="rect23" height="7.9097581" width="7.9097581" y="228.38983" x="-112.91224" /><g transform="matrix(0.49435987,0,0,0.49435987,-16.423948,166.02863)" style="fill:#12323d;fill-opacity:1;stroke:none;stroke-width:1.00052965;stroke-miterlimit:4;stroke-dasharray:none;stroke-opacity:1" id="g4255"><g style="fill:#12323d;fill-opacity:1;stroke:none;stroke-width:1.00052965;stroke-miterlimit:4;stroke-dasharray:none;stroke-opacity:1" id="g4251"><path style="fill:#12323d;fill-opacity:1;stroke:none;stroke-width:1.00052965;stroke-miterlimit:4;stroke-dasharray:none;stroke-opacity:1" id="path25-3-6" d="m 151.26289,173.07979 16,0 16,0 16,0 16,0 16,0 0,16 -16,0 -16,0 -16,0 -16,0 -16,0 z" /><path style="fill:#00aeef;fill-opacity:1;stroke:none;stroke-width:1.00052965;stroke-miterlimit:4;stroke-dasharray:none;stroke-opacity:1" id="path25-3" d="m 151.27725,229.09111 16,0 0,-16 16,0 0,16 16,0 0,-16 16,0 0,16 16,0 0,16 -16,0 0,16 -16,0 0,-16 -16,0 0,16 -16,0 0,-16 -16,0 z" /></g><path d="m 215.27605,109.0713 0,-16.000002 8,0 c 22.056,0 40,-17.944 40,-40 l 0,-8 c 0,-19.312 -13.768,-35.472 -32,-39.192 l 0,-8.808 -16,0 0,24 -48,0 0,-24 -16,0 0,40 16,0 0,72.000002 -64,0 0,104 32,0 0,88 112,0 0,-88 32,0 0,-104 z m 0,-72.000002 16,0 0,-14.528 c 9.288,3.312 16,12.112 16,22.528 l 0,8 c 0,13.232 -10.768,24 -24,24 l -8,0 z m -32,0 16,0 0,72.000002 -16,0 z m 48,152.000002 0,16 0,8 0,16 0,16 0,40 -80,0 0,-40 0,-16 0,-16 0,-8 0,-16 0,-16 0,-16 80,0 0,16 z m 32,8 -16,0 0,-56 -112,0 0,56 -16,0 0,-72 144,0 z" id="path25" style="fill:#12323d;fill-opacity:1;stroke:none;stroke-width:1.00052965;stroke-miterlimit:4;stroke-dasharray:none;stroke-opacity:1" /></g><rect style="fill:#00aeef;fill-opacity:1" id="rect21-3" height="7.9097581" width="7.9097581" y="228.38983" x="261.27298" /><rect style="fill:#00aeef;fill-opacity:1" id="rect23-5" height="7.9097581" width="7.9097581" y="228.38983" x="278.72339" /><rect y="252.12396" x="254.18182" height="55.242676" width="39.540428" id="rect4382" style="color:#000000;clip-rule:nonzero;display:inline;overflow:visible;visibility:visible;opacity:1;isolation:auto;mix-blend-mode:normal;color-interpolation:sRGB;color-interpolation-filters:linearRGB;solid-color:#000000;solid-opacity:1;fill:#f1f1f1;fill-opacity:1;fill-rule:evenodd;stroke:none;stroke-width:0.359;stroke-linecap:butt;stroke-linejoin:miter;stroke-miterlimit:4;stroke-dasharray:none;stroke-dashoffset:0;stroke-opacity:1;color-rendering:auto;image-rendering:auto;shape-rendering:auto;text-rendering:auto;enable-background:accumulate" /><rect y="252.10538" x="-137.47661" height="55.242676" width="39.540428" id="rect4382-2" style="color:#000000;clip-rule:nonzero;display:inline;overflow:visible;visibility:visible;opacity:1;isolation:auto;mix-blend-mode:normal;color-interpolation:sRGB;color-interpolation-filters:linearRGB;solid-color:#000000;solid-opacity:1;fill:#f1f1f1;fill-opacity:1;fill-rule:evenodd;stroke:none;stroke-width:0.359;stroke-linecap:butt;stroke-linejoin:miter;stroke-miterlimit:4;stroke-dasharray:none;stroke-dashoffset:0;stroke-opacity:1;color-rendering:auto;image-rendering:auto;shape-rendering:auto;text-rendering:auto;enable-background:accumulate" /></g></g></g><g transform="translate(-99.368907,-113.5284)" id="g27" /><g transform="translate(-99.368907,-113.5284)" id="g29" /><g transform="translate(-99.368907,-113.5284)" id="g31" /><g transform="translate(-99.368907,-113.5284)" id="g33" /><g transform="translate(-99.368907,-113.5284)" id="g35" /><g transform="translate(-99.368907,-113.5284)" id="g37" /><g transform="translate(-99.368907,-113.5284)" id="g39" /><g transform="translate(-99.368907,-113.5284)" id="g41" /><g transform="translate(-99.368907,-113.5284)" id="g43" /><g transform="translate(-99.368907,-113.5284)" id="g45" /><g transform="translate(-99.368907,-113.5284)" id="g47" /><g transform="translate(-99.368907,-113.5284)" id="g49" /><g transform="translate(-99.368907,-113.5284)" id="g51" /><g transform="translate(-99.368907,-113.5284)" id="g53" /><g transform="translate(-99.368907,-113.5284)" id="g55" /><path id="path4374-3" d="m 120.63017,1.47424 2.47587,0.0312 0.0176,0 0.43711,0.0176 0.0895,-1.47424 -0.45663,-0.0176 -0.008,0 -0.01,0 L 120.68217,0 Z m -3.27054,-1.443 -0.01,0 -0.01,0 -2.59598,0.0996 0.0238,1.4723 2.57835,-0.0976 0.0176,0 0.33603,-0.004 0.0134,-1.47619 z m 9.12604,1.61679 2.31704,0.14644 0.0195,0.002 0.58281,0.0527 0.16561,-1.47034 -0.60429,-0.0527 -0.008,-0.002 -0.01,0 -2.33653,-0.14841 z m -14.91188,-1.32389 -0.01,0 -0.01,0.002 -2.73982,0.24408 0.0981,1.46838 2.72219,-0.24212 0.0176,-0.002 0.18582,-0.0117 -0.061,-1.47033 z m 20.743,1.80228 2.09812,0.24213 0.0195,0.002 0.78463,0.1113 0.23766,-1.46058 -0.80216,-0.11325 -0.01,-0.002 -0.01,0 -2.11564,-0.24408 z m -29.28236,-0.82597 -0.01,0.002 -0.01,0.002 -0.12548,0.0215 0.20974,1.45472 0.10785,-0.0195 0.0176,-0.002 2.78605,-0.39053 -0.17249,-1.46058 z m 35.07536,1.61288 1.82719,0.30462 0.0175,0.004 1.03072,0.19917 0.30966,-1.44886 -1.0482,-0.20308 -0.008,-0.002 -0.01,0 -1.84467,-0.30853 z m -40.664057,-0.61312 -0.01,0.002 -0.01,0.002 -0.40036,0.0859 0.28426,1.44104 0.38078,-0.084 0.0137,-0.002 0.006,-0.002 2.487197,-0.47645 -0.245067,-1.44691 z m 46.397517,1.70465 1.51408,0.33195 0.002,0 0.0155,0.004 1.31113,0.32414 0.38159,-1.43325 -1.32668,-0.32804 -0.01,-0.002 -0.008,-0.002 -1.53157,-0.33586 z m -51.896497,-0.43739 -0.008,0.002 -0.01,0.002 -0.70935,0.19135 0.35691,1.42348 0.68969,-0.18551 2.16806,-0.52916 -0.3196,-1.43324 z m 57.558757,1.83157 1.16863,0.32023 1.63165,0.49012 0.45342,-1.41371 -1.63165,-0.49011 -0.01,-0.002 -0.008,-0.004 -1.18417,-0.32414 z m -62.958137,-0.3007 -0.008,0.002 -0.01,0.002 -1.04074,0.3378 0.42576,1.402 1.02498,-0.33195 0.0177,-0.006 1.77738,-0.52721 -0.39037,-1.41176 z m 68.533607,1.99559 0.79495,0.26166 0.004,0.002 0.0136,0.004 1.93576,0.69123 0.52319,-1.39028 -1.9532,-0.69709 -0.008,-0.004 -0.01,-0.002 -0.8124,-0.26751 z m -73.825367,-0.21087 -0.008,0.004 -0.01,0.002 -1.39067,0.52721 0.49664,1.37661 1.37291,-0.5194 0.0177,-0.006 1.3839,-0.48621 -0.46313,-1.39027 z m 79.294707,2.19866 0.42597,0.16598 5e-5,-0.002 2.26616,0.93921 0.59095,-1.36294 -2.2816,-0.94703 -0.01,-0.002 -0.008,-0.004 -0.42604,-0.16402 z m -84.474817,-0.16597 -0.008,0.004 -0.008,0.004 -1.74741,0.75958 0.56361,1.35122 1.7297,-0.75372 0.0178,-0.008 0.97168,-0.39443 -0.52815,-1.36489 z m 89.826317,2.4447 0.0155,0.006 0.01,0.004 0.008,0.004 2.41198,1.14424 0.0154,0.008 0.14874,0.0742 0.6896,-1.31999 -0.16419,-0.082 -0.01,-0.004 -0.008,-0.004 -2.44482,-1.15987 -0.008,-0.004 -0.008,-0.004 -0.0329,-0.0137 z m -94.882927,-0.16988 -0.01,0.004 -0.008,0.004 -2.10324,1.03881 0.62875,1.31998 2.08745,-1.03099 0.0178,-0.008 0.55457,-0.25774 -0.59715,-1.3356 z m 100.081727,2.72784 2.00144,1.07395 0.0154,0.01 0.53421,0.30461 0.75137,-1.28679 -0.54967,-0.31242 -0.008,-0.004 -0.008,-0.006 -2.01688,-1.08176 z m -105.012647,-0.22065 -0.008,0.006 -0.008,0.004 -2.3988,1.32975 -0.008,0.006 -0.008,0.004 -0.0534,0.0312 0.72368,1.26726 0.0395,-0.0215 0.0159,-0.01 2.36716,-1.31217 0.0158,-0.01 0.13634,-0.0703 -0.66232,-1.30437 z m 110.078187,3.06174 1.54758,0.93141 0.0135,0.008 0.002,0.002 0.90895,0.57994 0.81302,-1.24969 -0.92439,-0.58774 -0.008,-0.006 -0.008,-0.004 -1.56299,-0.94118 z m -117.218407,1.12277 -0.008,0.006 -0.008,0.004 -0.45193,0.2968 0.78706,1.22822 0.438,-0.28509 0.0139,-0.01 2.05964,-1.27311 -0.75727,-1.24969 z m 122.121797,1.98193 1.1065,0.742 0.0134,0.01 1.26707,0.89822 0.87076,-1.21064 -1.28057,-0.90603 -0.008,-0.006 -0.008,-0.004 -1.1199,-0.75372 z m 4.72973,3.36049 0.68203,0.50768 0.0135,0.01 1.6009,1.25555 0.92644,-1.16768 -1.61432,-1.26727 -0.008,-0.004 -0.008,-0.006 -0.69354,-0.51744 z m 4.54455,3.60652 0.2781,0.22847 0.0134,0.0117 1.90655,1.64998 0.98013,-1.12277 -1.91992,-1.66364 -0.008,-0.006 -0.006,-0.004 -0.29148,-0.24213 z m 4.32864,3.82913 1.8378,1.75542 0.0114,0.0117 0.24265,0.24213 1.05668,-1.05248 -0.2541,-0.25384 -0.006,-0.008 -0.008,-0.006 -1.8493,-1.76518 z m 4.12789,4.07321 1.41026,1.484 0.0114,0.0137 0.56041,0.61899 1.10438,-1.00171 -0.57183,-0.63265 -0.006,-0.006 -0.006,-0.006 -1.42166,-1.49768 z m 3.90639,4.28408 1.01661,1.18135 0.008,0.008 0.004,0.006 0.83846,1.02514 1.15012,-0.95093 -0.84992,-1.03686 -0.006,-0.008 -0.006,-0.006 -1.02808,-1.19306 z m 3.6753,4.48717 0.65887,0.84549 0.0114,0.0137 1.07692,1.45472 1.19378,-0.89431 -1.08833,-1.46838 -0.006,-0.006 -0.006,-0.008 -0.67028,-0.85917 z m 3.43283,4.67462 0.34267,0.48621 0.009,0.0156 1.27198,1.90382 1.23352,-0.83768 -1.28143,-1.91749 -0.006,-0.008 -0.004,-0.008 -0.35213,-0.49987 z m 3.18277,4.8523 0.0679,0.1074 0.009,0.0137 1.36323,2.27873 0.009,0.0156 0.0338,0.0586 1.28813,-0.74591 -0.0413,-0.0761 -0.006,-0.008 -0.004,-0.008 -1.38211,-2.30802 -0.006,-0.008 -0.004,-0.006 -0.0773,-0.12302 z m 2.90789,5.00462 1.11551,2.08933 0.007,0.0156 0.23381,0.46277 1.32194,-0.68538 -0.24129,-0.47839 -0.004,-0.008 -0.004,-0.008 -1.12492,-2.10494 z m 2.64439,5.17254 0.82816,1.74957 0.007,0.0156 0.38482,0.87283 1.35175,-0.62094 -0.39229,-0.88845 -0.004,-0.008 -0.004,-0.008 -0.83362,-1.76714 z m 2.36989,5.30727 0.58187,1.40786 0.006,0.0156 0.49105,1.27703 1.37956,-0.55455 -0.49656,-1.29265 -0.004,-0.01 -0.004,-0.008 -0.5874,-1.42347 z m 2.08589,5.43029 0.38048,1.0681 0.005,0.0176 0.54864,1.67147 1.40347,-0.48816 -0.55411,-1.68904 -0.004,-0.008 -0.004,-0.01 -0.38598,-1.08371 z m 1.79635,5.53964 0.22186,0.73615 0.005,0.0176 0.56168,2.05027 1.42339,-0.41787 -0.56715,-2.06785 -0.002,-0.01 -0.002,-0.008 -0.22728,-0.75567 z m 1.50138,5.62946 0.10574,0.42568 0.004,0.0176 0.53036,2.4037 1.44138,-0.34952 -0.53392,-2.41933 -0.002,-0.01 -0.002,-0.008 -0.10925,-0.44325 z m 1.20271,5.70952 0.0281,0.14059 0.004,0.0176 0.45691,2.72003 1.4554,-0.27727 -0.46042,-2.7376 -0.002,-0.01 -0.002,-0.008 -0.0297,-0.15816 z m 0.89707,5.75247 0.31668,2.70246 0.002,0.0176 0.0174,0.1816 1.46855,-0.16598 -0.019,-0.20112 1.8e-4,-0.008 -0.002,-0.01 -0.31819,-2.72199 z m 0.5949,5.81496 0.16755,2.55796 0.002,0 0.0134,0.36319 1.47475,-0.0937 -0.0169,-0.38075 2.2e-4,-0.01 2.1e-4,-0.01 -0.16955,-2.556 z m 0.29146,5.84621 0.0377,2.42518 -4.4e-4,0.0195 -0.005,0.48425 1.47504,-0.0195 0.005,-0.50183 2.2e-4,-0.01 2.1e-4,-0.01 -0.0392,-2.44472 z m -0.0914,8.2128 -3.9e-4,0.0176 -0.002,0.0195 1.47339,0.0547 0.003,-0.0352 2.2e-4,-0.01 2.1e-4,-0.01 0.10205,-2.91139 -1.47417,-0.0195 z m -0.41499,5.73294 -0.002,0 -0.0172,0.15621 1.46778,0.13083 0.0172,-0.15816 2.2e-4,-0.01 1.7e-4,-0.008 0.23794,-2.78641 -1.46866,-0.0918 z m -0.69837,5.65284 -0.002,0.0176 -0.052,0.31633 1.4564,0.20307 0.0543,-0.3339 0.002,-0.01 2.2e-4,-0.01 0.35477,-2.59507 -1.4631,-0.16596 z m -0.96984,5.56503 -0.11793,0.55845 1.44303,0.27727 0.11793,-0.55845 0.002,-0.01 0.002,-0.01 0.43912,-2.34903 -1.44977,-0.23822 z m -221.0517862,0.57017 0.41751,2.47204 0.002,0.01 0.002,0.01 0.0804,0.42176 1.45033,-0.31242 -0.0789,-0.40419 -0.004,-0.0176 -0.414,-2.45447 z m 219.8164062,4.90308 -8e-5,0.004 -0.004,0.0137 -0.21325,0.80448 1.42583,0.34758 0.21756,-0.82207 0.002,-0.008 0.002,-0.01 0.49118,-2.05614 -1.43444,-0.31242 z m -218.7370062,0.90602 0.47722,2.15962 0.002,0.008 0.002,0.01 0.17377,0.70296 1.43236,-0.38273 -0.16826,-0.68733 -0.47726,-2.15766 z m 217.2421862,4.46568 -0.006,0.0176 -0.3487,1.09739 1.40473,0.41786 0.35491,-1.113 0.002,-0.01 0.004,-0.008 0.50339,-1.72809 -1.41724,-0.38271 z m -215.8584762,1.27313 0.49477,1.8101 0.004,0.008 0.002,0.01 0.30361,1.01146 1.4144392,-0.45496 -0.29814,-0.99389 -0.006,-0.0156 -0.4912592,-1.79252 z m 214.1120862,3.99314 -0.006,0.0156 -0.52559,1.4098 1.37974,0.48816 0.5338,-1.42738 0.002,-0.008 0.004,-0.008 0.47194,-1.3688 -1.39419,-0.45301 z m -212.427637,1.65975 0.46998,1.43323 0.004,0.01 0.002,0.008 0.47603,1.33756 1.39253,-0.52331 -0.4706,-1.31804 -0.005,-0.0176 -0.46642,-1.41762 z m 1.97777,5.5494 0.40057,1.04271 0.004,0.008 0.004,0.008 0.68927,1.67146 1.36663,-0.58774 -0.68381,-1.65389 -0.007,-0.0176 -0.39311,-1.02708 z m 2.26753,5.43029 0.28446,0.64437 0.004,0.008 0.004,0.008 0.94741,2.00731 1.33681,-0.65218 -0.9399,-1.99365 -0.007,-0.0156 -0.27704,-0.6268 z m 2.54971,5.30141 0.1216,0.24018 0.004,0.008 0.004,0.008 1.25056,2.33926 1.30504,-0.71662 -1.24113,-2.32364 -0.12155,-0.24213 z m 2.83787,5.16668 1.28989,2.15182 0.004,0.008 0.006,0.008 0.21881,0.34758 1.25241,-0.8084 -0.20939,-0.33195 -0.008,-0.0137 -0.002,-0.002 -1.28042,-2.13814 z m 3.1036,4.98704 1.13207,1.69685 0.004,0.008 0.006,0.006 0.50541,0.72052 1.21465,-0.86697 -0.49794,-0.7049 0.002,0 -1.13402,-1.69685 z m 3.35938,4.81522 0.92908,1.25359 0.006,0.008 0.004,0.006 0.83547,1.07199 1.17099,-0.92359 -0.82409,-1.05637 -0.009,-0.0137 -0.9196,-1.23992 z m 3.60767,4.6297 0.68261,0.83183 0.006,0.006 0.006,0.006 1.20123,1.3981 1.12725,-0.97632 -1.18982,-1.38443 -0.68266,-0.82987 z m 3.84843,4.43054 0.39267,0.43348 0.006,0.008 0.006,0.006 1.60486,1.69098 1.0815,-1.02708 -1.59539,-1.67733 0.002,-0.002 -0.39267,-0.43348 z m 4.07575,4.22161 0.0649,0.0664 0.006,0.006 0.006,0.006 1.9315,1.84525 0.008,0.006 0.006,0.006 0.11293,0.10349 1.00698,-1.10128 -0.10147,-0.0918 -0.0115,-0.0117 -1.90666,-1.81985 -0.0134,-0.0117 -0.0515,-0.0547 z m 4.31105,4.00487 1.71876,1.4879 0.006,0.006 0.008,0.006 0.49672,0.41005 0.95525,-1.14619 -0.48525,-0.39835 -0.0134,-0.0117 -1.7034,-1.4762 z m 4.50796,3.75882 1.40511,1.10129 0.008,0.006 0.006,0.004 0.91067,0.67757 0.89761,-1.18916 -0.8953,-0.66584 -0.0134,-0.0117 -1.39171,-1.08958 z m 4.7028,3.51671 1.0633,0.75176 0.008,0.004 0.008,0.006 1.34125,0.90016 0.84189,-1.23016 -1.3278,-0.8904 -0.0154,-0.01 -1.0479,-0.742 z m 124.405077,1.01537 -0.0139,0.01 -1.82796,1.13058 0.75728,1.24969 1.84185,-1.14034 0.006,-0.004 0.008,-0.006 0.68176,-0.44325 -0.78506,-1.23016 z m -119.520787,2.24553 0.69905,0.4452 0.008,0.004 0.008,0.006 1.79235,1.07785 0.78218,-1.26726 -1.77691,-1.07005 -0.0154,-0.01 -0.6856,-0.43545 z m 114.858497,0.56431 -0.0158,0.008 -2.29598,1.27312 0.69394,1.28679 2.31183,-1.28288 0.008,-0.004 0.008,-0.004 0.28895,-0.16989 -0.72564,-1.26726 z m -109.804317,2.43495 0.31822,0.18159 0.008,0.004 0.008,0.004 2.25234,1.20869 0.72045,-1.30242 -2.23688,-1.20087 -0.0155,-0.008 -0.30281,-0.17183 z m 102.555537,1.36294 -0.0158,0.008 -0.30786,0.14254 0.59715,1.33561 0.32367,-0.15035 0.008,-0.004 0.01,-0.006 2.34614,-1.15791 -0.62875,-1.31998 z m -97.327457,1.37075 2.36949,1.12277 0.008,0.004 0.008,0.004 0.27656,0.12302 0.62389,-1.35123 -0.25919,-0.11325 4e-5,-0.002 -2.36948,-1.12276 z m 92.335957,0.87478 -0.0158,0.006 -0.72139,0.2929 0.53011,1.3649 0.73718,-0.30072 0.01,-0.004 0.008,-0.002 1.99598,-0.87088 -0.56365,-1.34928 z m -86.978157,1.56016 2.03392,0.84354 0.01,0.004 0.008,0.004 0.67585,0.25971 0.55809,-1.37857 -0.66035,-0.25384 -0.0174,-0.006 -2.01652,-0.83573 z m 81.868927,0.44716 -0.0177,0.006 -1.12599,0.39443 0.46118,1.39028 1.1437,-0.4003 0.008,-0.004 0.01,-0.004 1.64475,-0.6229 -0.49663,-1.37661 z m -76.383637,1.70075 1.69935,0.60727 0.01,0.002 0.008,0.004 1.06832,0.35147 0.48835,-1.40394 -1.05093,-0.34368 -0.0155,-0.006 -1.68385,-0.60142 z m 71.160757,0.0605 -0.0177,0.006 -1.51788,0.45107 0.39039,1.41176 1.53554,-0.45497 0.01,-0.004 0.008,-0.002 1.30042,-0.42177 -0.42576,-1.40199 z m -65.563417,1.79252 1.37552,0.41396 0.008,0.002 0.01,0.002 1.44434,0.39443 0.41843,-1.42151 -1.42684,-0.39053 -0.0174,-0.006 -1.35809,-0.4081 z m 60.217117,-0.27727 -1.88528,0.46082 0.31963,1.43128 1.9049,-0.46473 0.008,-0.002 0.01,-0.002 0.97067,-0.26165 -0.35496,-1.42348 z m -54.521237,1.82766 1.06638,0.26362 0.008,0.002 0.01,0.002 1.79394,0.39444 0.3466,-1.44105 -1.77449,-0.39053 -0.0194,-0.004 -1.04893,-0.25775 z m 49.114497,-0.57992 -0.0177,0.004 -2.22238,0.42568 0.24698,1.44886 2.24005,-0.42958 0.01,-0.002 0.01,-0.002 0.66533,-0.1445 -0.28427,-1.44105 z m -43.339597,1.82766 0.78375,0.15035 0.01,0.002 0.01,0.002 2.1093,0.35342 0.27659,-1.4547 -2.09376,-0.34953 -0.0175,-0.004 -0.76622,-0.1484 z m 37.825407,-0.84158 -2.53723,0.35537 0.17446,1.46058 2.53527,-0.35538 0.01,-0.002 0.008,0 0.39406,-0.0664 -0.20973,-1.4547 z m -31.98499,1.77885 0.53736,0.0761 0.01,0 0.01,0.002 2.38258,0.27336 0.20259,-1.46448 -2.367,-0.27141 -0.0175,-0.002 -0.51983,-0.0742 z m 26.38511,-1.06614 -0.0176,0.002 -2.7633,0.24603 0.0981,1.47035 2.78092,-0.24799 0.01,-0.002 0.01,0 0.16254,-0.0195 -0.1353,-1.46447 z m -20.49479,1.69293 0.33328,0.0312 0.01,0 0.01,0 2.60372,0.16597 0.12655,-1.47033 -2.58618,-0.16403 4e-5,-0.002 -0.33333,-0.0293 z m 11.95529,-1.14814 4e-5,-0.002 -0.084,0.002 -0.0134,1.47424 0.084,0 0.01,0 0.008,-0.002 2.86768,-0.10934 -0.0238,-1.4723 z m -6.03466,1.46642 0.18542,0.006 0.01,0.002 0.01,0 2.76289,0.0351 0.0525,-1.47619 -2.76289,-0.0351 -4e-5,0.002 -0.1678,-0.008 z" style="color:#000000;font-style:normal;font-variant:normal;font-weight:normal;font-stretch:normal;font-size:medium;line-height:normal;font-family:sans-serif;text-indent:0;text-align:start;text-decoration:none;text-decoration-line:none;text-decoration-style:solid;text-decoration-color:#000000;letter-spacing:normal;word-spacing:normal;text-transform:none;direction:ltr;block-progression:tb;writing-mode:lr-tb;baseline-shift:baseline;text-anchor:start;white-space:normal;clip-rule:nonzero;display:inline;overflow:visible;visibility:visible;opacity:1;isolation:auto;mix-blend-mode:normal;color-interpolation:sRGB;color-interpolation-filters:linearRGB;solid-color:#000000;solid-opacity:1;fill:#00aeef;fill-opacity:1;fill-rule:evenodd;stroke:none;stroke-width:1.47518349;stroke-linecap:butt;stroke-linejoin:miter;stroke-miterlimit:10;stroke-dasharray:2.95036697, 2.95036697;stroke-dashoffset:0;stroke-opacity:1;color-rendering:auto;image-rendering:auto;shape-rendering:auto;text-rendering:auto;enable-background:accumulate" /><path id="path4374-3-2" d="m 41.121399,34.203351 1.76105,-1.740577 0.01233,-0.01253 0.319516,-0.298804 -0.986603,-1.099093 -0.333228,0.3127 -0.0056,0.0057 -0.0069,0.0071 -1.773398,1.75309 z m -3.324173,1.314746 -0.0069,0.0071 -0.0069,0.0071 -1.752293,1.917939 1.064796,1.017075 1.741335,-1.903987 0.01233,-0.01252 0.233152,-0.242018 -1.04144,-1.046289 z m 7.560293,-5.361024 1.731537,-1.546576 0.0151,-0.0125 0.446829,-0.377873 -0.930373,-1.150533 -0.461918,0.393164 -0.007,0.0042 -0.0069,0.0071 -1.746628,1.559064 z m -11.415269,9.685477 -0.0069,0.0071 -0.0056,0.0086 -1.750464,2.121806 1.114187,0.961433 1.739477,-2.107879 0.01098,-0.01393 0.122168,-0.1405 -1.08952,-0.989209 z m 15.851102,-13.500475 1.645905,-1.323528 0.0151,-0.0125 0.63029,-0.480385 -0.872827,-1.19497 -0.643989,0.491494 -0.0084,0.0056 -0.0069,0.0071 -1.659598,1.334631 z m -21.153421,20.265036 -0.0056,0.0086 -0.0056,0.0086 -0.07281,0.10443 1.182871,0.872366 0.06186,-0.09047 0.01098,-0.01394 1.678678,-2.257568 -1.160878,-0.902997 z m 25.782107,-23.836218 1.500111,-1.086779 0.01513,-0.0097 0.865674,-0.593856 -0.813917,-1.237993 -0.880732,0.603554 -0.0069,0.0041 -0.0069,0.0071 -1.515171,1.096473 z m -28.995439,28.516773 -0.0057,0.0086 -0.0057,0.0086 -0.220032,0.345332 1.225469,0.80971 0.207625,-0.33006 0.0082,-0.01117 0.0028,-0.0057 1.407631,-2.10517 -1.202123,-0.841731 z m -2.959897,4.804553 -0.0042,0.0072 -0.0057,0.0086 -0.361958,0.639309 1.263993,0.745658 0.352322,-0.621253 1.145968,-1.915007 -1.244734,-0.779073 z m 32.513614,152.723011 2.052983,1.43894 0.0082,0.007 0.0082,0.007 0.356704,0.239 0.79619,-1.25188 -0.343157,-0.22766 -0.01572,-0.008 -2.038015,-1.4291 z m 4.893377,3.31143 1.872535,1.17701 0.0068,0.005 0.0082,0.007 0.622448,0.37002 0.733523,-1.28846 -0.607449,-0.36296 -1.871165,-1.1756 z m 5.057061,3.04544 1.636043,0.91905 0.0086,0.003 0.0083,0.007 0.933269,0.49421 0.669505,-1.32641 -0.916909,-0.48579 -0.01545,-0.006 -1.621045,-0.9092 z" style="color:#000000;font-style:normal;font-variant:normal;font-weight:normal;font-stretch:normal;font-size:medium;line-height:normal;font-family:sans-serif;text-indent:0;text-align:start;text-decoration:none;text-decoration-line:none;text-decoration-style:solid;text-decoration-color:#000000;letter-spacing:normal;word-spacing:normal;text-transform:none;direction:ltr;block-progression:tb;writing-mode:lr-tb;baseline-shift:baseline;text-anchor:start;white-space:normal;clip-rule:nonzero;display:inline;overflow:visible;visibility:visible;opacity:1;isolation:auto;mix-blend-mode:normal;color-interpolation:sRGB;color-interpolation-filters:linearRGB;solid-color:#000000;solid-opacity:1;fill:#00aeef;fill-opacity:1;fill-rule:evenodd;stroke:none;stroke-width:1.47518349;stroke-linecap:butt;stroke-linejoin:miter;stroke-miterlimit:10;stroke-dasharray:2.95036697, 2.95036697;stroke-dashoffset:0;stroke-opacity:1;color-rendering:auto;image-rendering:auto;shape-rendering:auto;text-rendering:auto;enable-background:accumulate" /></svg>