<?xml version="1.0" encoding="UTF-8" standalone="no"?>
<svg xmlns:dc="http://purl.org/dc/elements/1.1/" xmlns:cc="http://creativecommons.org/ns#" xmlns:rdf="http://www.w3.org/1999/02/22-rdf-syntax-ns#" xmlns:svg="http://www.w3.org/2000/svg" xmlns="http://www.w3.org/2000/svg" xml:space="preserve" enable-background="new 0 0 250 250" viewBox="0 0 231.2811 227.13881" height="227.13881" width="231.2811" y="0px" x="0px" id="Vrstva_1" version="1.1"><metadata id="metadata4346"><rdf:RDF><cc:Work rdf:about=""><dc:format>image/svg+xml</dc:format><dc:type rdf:resource="http://purl.org/dc/dcmitype/StillImage" /><dc:title></dc:title></cc:Work></rdf:RDF></metadata><defs id="defs4344"><style id="style4761">.cls-1,.cls-10,.cls-11{fill:#bfdeff;}.cls-1,.cls-12,.cls-14,.cls-5,.cls-9{stroke:#336ea0;}.cls-1,.cls-4,.cls-5,.cls-6,.cls-8,.cls-9{stroke-linecap:round;stroke-linejoin:round;}.cls-1,.cls-12,.cls-14,.cls-15,.cls-4,.cls-5,.cls-6,.cls-8,.cls-9{stroke-width:2px;}.cls-12,.cls-2,.cls-4,.cls-9{fill:#fff;}.cls-3{fill:#336ea0;}.cls-4,.cls-6{stroke:#59a2d3;}.cls-14,.cls-15,.cls-5,.cls-6,.cls-8{fill:none;}.cls-7{fill:#87c675;}.cls-15,.cls-8{stroke:#fff;}.cls-11{font-size:11.417px;font-family:ArialRoundedMTBold, Arial Rounded MT Bold;}.cls-12,.cls-14,.cls-15{stroke-miterlimit:10;}.cls-13{fill:#59a2d3;}</style></defs><path id="path4374" d="m 121.11483,1.474233 2.47001,0.03124 0.0176,0 0.44101,0.01758 0.0895,-1.474243 -0.45859,-0.01757 -0.01,0 -0.01,0 L 121.16482,0 Z m -3.2764,-1.443 -0.008,0 -0.01,0 -2.59401,0.09958 0.0238,1.472291 2.57443,-0.09763 0.0195,0 0.33798,-0.0039 0.0134,-1.474242 z m 9.1319,1.616786 2.31315,0.146447 0.0175,0.002 0.58868,0.05272 0.16361,-1.468385 -0.6062,-0.05467 -0.01,0 -0.01,-0.002 -2.33067,-0.148401 z m -14.91773,-1.32389 -0.01,0.002 -0.008,0 -2.73787,0.24408 0.0981,1.468385 2.71829,-0.242128 0.0196,-0.002 0.18776,-0.01172 -0.0609,-1.472289 z m 20.74886,1.802286 2.09421,0.242128 0.0175,0.002 0.78854,0.1113 0.23961,-1.460573 -0.80803,-0.113254 -0.01,-0.002 -0.01,0 -2.11174,-0.24408 z m -29.28821,-0.825967 -0.01,0.002 -0.008,0.002 -0.12348,0.01953 0.21168,1.454717 0.12154,-0.01953 2.78995,-0.390527 -0.17445,-1.460575 z m 35.07925,1.612881 1.82328,0.304611 0.0175,0.0039 1.03461,0.19917 0.31162,-1.448859 -1.05211,-0.203074 -0.01,-0.002 -0.01,0 -1.84077,-0.308516 z M 97.92454,2.3002 l -0.01,0.002 -0.008,0.002 -0.3984,0.08591 0.28426,1.441048 0.39644,-0.08592 5e-5,-0.002 2.49306,-0.476445 -0.24698,-1.448858 z m 46.40142,1.704654 1.51018,0.331949 0.0194,0.0039 1.31308,0.324138 0.3835,-1.431285 -1.33254,-0.328043 -0.008,-0.0039 -0.01,-0.002 -1.52766,-0.335854 z m -51.90039,-0.437392 -0.008,0.002 -0.01,0.002 -0.70349,0.191359 0.35497,1.423474 0.68578,-0.185501 0.0197,-0.0059 2.15234,-0.52526 -0.31964,-1.431284 z m 57.56456,1.833529 1.16283,0.31828 1.6355,0.492066 0.45342,-1.413712 -1.63552,-0.492064 -0.008,-0.002 -0.01,-0.0039 -1.18031,-0.322185 z m -62.961997,-0.302659 -0.0098,0.002 -0.0079,0.0039 -1.038742,0.335853 0.425756,1.401996 1.038742,-0.335854 4.4e-5,-0.002 1.781291,-0.527212 -0.390339,-1.413711 z m 68.535517,1.99755 0.79304,0.259701 0.0155,0.0059 1.93966,0.691235 0.5232,-1.39028 -1.95515,-0.697092 -0.01,-0.0039 -0.008,-0.002 -0.81049,-0.265559 z m -73.829235,-0.212837 -0.0079,0.0039 -0.0079,0.002 -1.38867,0.52526 0.496591,1.378563 1.369008,-0.519401 0.01771,-0.0059 1.3878,-0.486207 -0.461175,-1.390279 z m 79.298565,2.200624 0.40667,0.156211 0.0174,0.0078 2.26811,0.93922 0.59099,-1.364895 -2.28551,-0.94703 -0.008,-0.002 -0.01,-0.0039 -0.42216,-0.162068 z m -84.476721,-0.167927 -0.0099,0.0039 -0.0079,0.0039 -1.743506,0.759577 0.563651,1.349273 1.727707,-0.751766 0.993392,-0.404196 -0.530101,-1.364895 z m 89.828241,2.446657 0.0116,0.0039 0.0116,0.0059 0.006,0.002 2.41198,1.144248 0.0174,0.0078 0.15066,0.07615 0.68959,-1.319985 -0.16805,-0.08396 -0.008,-0.0039 -0.008,-0.0039 -2.44679,-1.159868 -0.008,-0.0039 -0.008,-0.002 -0.029,-0.01367 z m -94.886798,-0.171833 -0.0079,0.0039 -0.0079,0.0039 -2.101254,1.036851 0.630711,1.319985 2.083502,-1.029041 0.0158,-0.0078 0.558527,-0.259702 -0.597159,-1.335606 z m 100.085588,2.72979 1.99757,1.071999 0.0154,0.0098 0.53809,0.306564 0.75136,-1.286788 -0.55354,-0.314375 -0.008,-0.0039 -0.008,-0.0059 -2.01302,-1.079809 z m -105.016516,-0.222601 -0.0079,0.0059 -0.0079,0.0039 -2.398803,1.329747 -0.0079,0.0059 -0.0079,0.0039 -0.04948,0.02929 0.723685,1.267263 0.03559,-0.01953 0.01584,-0.0098 2.367162,-1.312173 0.01584,-0.0098 0.140284,-0.07225 -0.662353,-1.30241 z m 110.082046,3.063691 1.54372,0.929457 0.0135,0.0078 0.002,0.002 0.9128,0.581887 0.81303,-1.249689 -0.92825,-0.589697 -0.008,-0.0059 -0.008,-0.0039 -1.55913,-0.93922 z m -117.222265,1.120815 -0.006,0.0059 -0.0079,0.0039 c -0.659153,0.557482 -0.156538,0.753838 0.335166,1.523058 l 0.436003,-0.283133 0.01389,-0.0098 2.063599,-1.275073 -0.757279,-1.249689 z m -17.362917,13.467353 -0.0079,0.0059 -0.006,0.0078 -1.822231,1.749564 1.009726,1.052472 1.81025,-1.737848 0.01198,-0.01172 0.322984,-0.294849 -0.983769,-1.077857 z m -5.814049,5.848154 -0.006,0.0059 -0.006,0.0078 -0.202187,0.220648 1.085642,0.97632 0.188254,-0.208932 0.01198,-0.01172 1.834181,-1.935066 -1.059686,-1.001704 z m -3.644641,4.120069 -0.006,0.0078 -0.006,0.0059 -0.507905,0.617034 1.131785,0.921645 0.495837,-0.601412 0.01007,-0.01367 1.417449,-1.640217 -1.107737,-0.948983 z m -3.453118,4.289949 -0.0041,0.0078 -0.006,0.0078 -0.773042,1.032946 1.174063,0.865019 0.762972,-1.019278 0.01007,-0.01367 1.035218,-1.316079 -1.153879,-0.894308 z m -3.249746,4.45397 -0.006,0.0059 -0.0041,0.0078 -0.995646,1.468385 1.216342,0.808393 0.995647,-1.468385 -0.0019,-0.002 0.691483,-0.966556 -1.196157,-0.837682 z m 189.016526,5.369807 0.009,0.01562 0.0338,0.06248 1.28816,-0.747861 -0.0432,-0.07811 -0.004,-0.0078 -0.006,-0.0078 -1.38211,-2.30802 -0.004,-0.0059 -0.006,-0.0078 -0.0755,-0.119111 c -1.97086,1.112604 -1.0416,1.150625 0.18985,3.204302 z m -192.060685,-0.763531 -0.0041,0.0078 -0.0041,0.0078 -1.171636,1.915539 1.254802,0.74786 1.161522,-1.899917 0.01011,-0.01562 0.386463,-0.601413 -1.234574,-0.779104 z m 193.528295,3.372208 1.11363,2.085418 0.24315,0.482302 1.32193,-0.685376 -0.24315,-0.482302 -0.004,-0.0078 -0.004,-0.0078 -1.12306,-2.10104 z m -196.355104,1.384421 -0.006,0.0078 -0.0041,0.0078 -1.29702,2.370504 1.291352,0.685377 1.288859,-2.354884 0.0082,-0.01562 0.128013,-0.2226 -1.273077,-0.716619 z m 199.001434,3.78812 0.82434,1.745659 0.007,0.01562 0.38669,0.876735 1.35178,-0.622892 -0.39419,-0.890404 -0.004,-0.0078 -0.004,-0.0078 -0.83176,-1.763233 z m 2.36793,5.307273 0.58002,1.403948 0.007,0.01757 0.49101,1.278978 1.37956,-0.554549 -0.49842,-1.296552 -0.004,-0.0098 -0.004,-0.0078 -0.58552,-1.419569 z m 2.08591,5.43029 0.3786,1.064188 0.005,0.01757 0.55052,1.675365 1.40347,-0.48816 -0.55599,-1.692938 -0.004,-0.0078 -0.002,-0.0098 -0.38607,-1.079809 z m -211.55733,3.182802 -0.0022,0.0098 -0.0021,0.0078 -0.384072,1.107146 1.394191,0.453013 0.375869,-1.089573 0.0021,-0.0059 0.0042,-0.01172 0.623135,-1.667554 -1.381689,-0.48816 z m 213.35368,2.356836 0.21999,0.73224 0.005,0.01757 0.56161,2.054176 1.42533,-0.417864 -0.56706,-2.07175 -0.004,-0.0098 -0.002,-0.0078 -0.22542,-0.751766 z m -215.123071,2.977774 -0.0021,0.0078 -0.0041,0.0098 -0.425203,1.462527 1.415291,0.382718 0.420904,-1.444954 0.0063,-0.01757 0.432616,-1.357085 -1.404697,-0.419817 z m 216.624441,2.651685 0.10387,0.42177 0.53575,2.425177 1.44139,-0.349522 -0.53578,-2.423225 -0.002,-0.0098 -0.002,-0.0078 -0.10934,-0.439343 z m -218.140367,2.790321 -0.0022,0.0098 -0.0022,0.0098 -0.426617,1.78862 1.434436,0.31242 0.422319,-1.771044 0.0043,-0.01953 0.283591,-1.068094 -1.42584,-0.34757 z m 219.343087,2.9192 0.0263,0.13668 0.004,0.0176 0.45876,2.72393 1.45541,-0.27727 -0.46229,-2.7415 -0.002,-0.008 -0.002,-0.01 -0.0298,-0.15425 z m -220.595698,2.6263 -0.0022,0.01 -0.0021,0.008 -0.388186,2.07957 1.449721,0.24017 0.385841,-2.06199 0.176628,-0.82597 -1.443034,-0.27728 z m 221.492768,3.12617 0.31675,2.69855 -0.002,0 0.0189,0.20308 1.47049,-0.16598 -0.0188,-0.20503 -0.002,-0.008 2.2e-4,-0.01 -0.31827,-2.71807 z m -222.475983,2.51304 -0.0022,0.01 -1.74e-4,0.008 -0.317459,2.323638 1.463095,0.16598 0.313117,-2.304118 0.0023,-0.0176 0.09514,-0.58775 -1.456407,-0.20307 z m 223.068923,3.301918 0.16807,2.53452 0.002,0.0195 0.0133,0.36709 1.47475,-0.0937 -0.0149,-0.38467 -0.002,-0.01 2.2e-4,-0.01 -0.16768,-2.55211 z m -223.776713,2.42323 -2.18e-4,0.01 -2.18e-4,0.01 -0.216215,2.51305 1.470609,0.0918 0.211873,-2.49352 0.002,0 0.04669,-0.42959 -1.465832,-0.13082 z m 224.068173,3.42297 0.0378,2.42128 -4.4e-4,0.0195 -0.005,0.48816 1.477,-0.0195 0.003,-0.50573 2.2e-4,-0.01 2.2e-4,-0.01 -0.0374,-2.44081 z m -224.490682,2.38418 -2.18e-4,0.01 -2.17e-4,0.01 -0.09205,2.63801 1.474217,0.0176 0.09161,-2.61849 4.36e-4,-0.0195 0.01821,-0.29095 -1.473347,-0.0566 z m 224.390382,5.87744 1.47408,0.0234 0.1107,-2.94849 -1.47409,-0.0234 z m -224.519778,-0.25189 -0.0014,0.23627 -2.18e-4,0.01 -2.17e-4,0.01 0.04306,2.71027 1.47392,-0.0566 -0.04154,-2.69074 4.36e-4,-0.0195 0.0029,-0.2187 z m 224.253478,4.39734 -0.002,0.0234 -0.16823,1.67536 1.46818,0.11325 0.17067,-1.69685 2.6e-4,-0.0117 0.002,-0.0117 0.0844,-1.24383 -1.47112,-0.0683 z m -224.096657,1.53087 0.0052,0.11521 -1.74e-4,0.008 -2.17e-4,0.01 0.187015,2.82352 1.471669,-0.13083 -0.185107,-2.82156 -0.0037,-0.0976 z m 223.290627,5.44592 -0.0883,0.54283 1.45637,0.20502 0.0883,-0.54284 0.002,-0.0117 2.2e-4,-0.01 0.31499,-2.38808 -1.46327,-0.15817 z m -222.827034,0.47644 0.321483,2.74931 0.0017,0.01 0.0017,0.01 0.02355,0.16988 1.460436,-0.24017 -0.02199,-0.15232 -0.0016,-0.0176 -0.319922,-2.73175 z m 221.703004,5.87159 1.44755,0.24993 0.56482,-2.90552 -1.44756,-0.24994 z m -220.929554,-0.006 0.417425,2.47594 0.0017,0.01 0.0017,0.01 0.08052,0.41786 1.448375,-0.31242 -0.07701,-0.40029 -0.0035,-0.0176 -0.413911,-2.45837 z m 220.071784,3.87403 -0.004,0.0215 -0.47458,1.83743 1.42802,0.33781 0.47892,-1.85696 0.002,-0.0117 0.004,-0.0117 0.22977,-1.01928 -1.43873,-0.29485 z m -218.992428,1.93702 0.477173,2.16157 0.0018,0.008 0.0017,0.01 0.173859,0.69905 1.432365,-0.38272 -0.168348,-0.68342 -0.0035,-0.0176 -0.473658,-2.144 z m 217.174718,4.68829 -9e-5,0.004 -0.006,0.0176 -0.2811,0.86892 1.40261,0.42569 0.28744,-0.89041 0.004,-0.01 0.004,-0.0117 0.56696,-1.9507 -1.41725,-0.38271 z m -215.791015,1.05051 0.496688,1.81205 0.0018,0.008 0.0017,0.01 0.303696,1.00756 1.414401,-0.45301 -0.298185,-0.99194 -0.0055,-0.0156 -0.491177,-1.79642 z m 213.592145,5.41272 -0.008,0.0195 0.63001,0.21285 0.75159,0.27922 4e-5,-0.002 0.004,-0.01 0.004,-0.0117 0.99788,-2.79423 -1.38798,-0.46863 z m -211.909607,0.23822 0.471804,1.4391 0.0037,0.008 0.0037,0.008 0.474157,1.33366 1.390536,-0.52136 -0.46869,-1.31608 -0.0055,-0.0176 -0.466337,-1.42153 z m 1.977771,5.54941 0.402435,1.04661 0.0037,0.008 0.0037,0.01 0.689364,1.66756 1.364718,-0.5897 -0.687411,-1.66756 -0.002,0 -0.39497,-1.03098 z m 2.267495,5.43224 0.286363,0.64632 0.0037,0.008 0.0037,0.008 0.947453,2.00536 1.336858,-0.65413 -0.93999,-1.98974 -0.0075,-0.0156 -0.2789,-0.63071 z m 2.551706,5.29946 0.121509,0.24408 0.0037,0.008 0.0057,0.008 1.246733,2.33535 1.305048,-0.71661 -1.239269,-2.31974 -0.0075,-0.0156 -0.115997,-0.22846 z m 2.837872,5.16668 1.289803,2.15572 0.0057,0.008 0.0037,0.008 0.218896,0.34367 1.252408,-0.80839 -0.209479,-0.32804 -0.0075,-0.0137 -0.0019,-0.002 -1.282338,-2.14008 z m 3.101601,4.98899 1.13398,1.6988 0.0057,0.008 0.0038,0.006 0.505499,0.71662 1.212655,-0.86502 -0.494085,-0.70295 -0.0019,-0.004 -0.0076,-0.01 -1.12452,-1.68513 z m 3.359383,4.81521 0.930977,1.25555 0.0057,0.008 0.0057,0.006 0.831642,1.06809 1.17095,-0.92164 -0.820229,-1.05443 -0.01141,-0.0137 -0.919562,-1.24188 z m 3.607706,4.62776 0.684482,0.83573 0.0057,0.006 0.0057,0.008 1.199412,1.39223 1.127248,-0.97632 -1.187955,-1.38052 -0.684526,-0.83377 z m 3.84839,4.43249 0.394583,0.43544 0.0057,0.008 0.0057,0.006 1.602947,1.68903 1.081549,-1.02904 -1.591533,-1.67537 -0.01146,-0.0117 -0.383126,-0.42372 z m 4.073796,4.22161 0.06879,0.0683 0.0057,0.006 0.0077,0.006 1.931494,1.84525 0.0057,0.006 0.0057,0.006 0.111016,0.10153 1.006988,-1.10128 -0.09761,-0.0898 -0.01341,-0.0117 -1.906671,-1.81985 -0.01146,-0.0117 -0.05733,-0.0566 z m 4.313007,4.00486 1.720672,1.48986 0.0077,0.006 0.0057,0.006 0.494802,0.4081 0.953303,-1.1462 -0.481392,-0.39639 -0.01341,-0.0117 -1.707262,-1.47815 z m 4.507949,3.75883 1.407031,1.10324 0.0077,0.006 0.0077,0.006 0.904894,0.67365 0.899574,-1.18915 -0.906804,-0.67561 -1.39362,-1.09153 z m 4.702803,3.5167 1.065217,0.75373 0.0077,0.006 0.0077,0.004 1.339338,0.89822 0.841894,-1.23016 -1.325884,-0.88845 -0.01345,-0.01 -1.051764,-0.74395 z m 124.537728,0.93532 -0.004,0.002 -0.0198,0.0137 -1.95239,1.19306 0.74938,1.2536 1.97618,-1.20869 0.0118,-0.006 0.0119,-0.008 0.55116,-0.3671 -0.79496,-1.2243 z m -119.653439,2.32559 0.700964,0.44715 0.0077,0.004 0.0077,0.006 1.790452,1.0759 0.780222,-1.26726 -1.773048,-1.0681 -0.01345,-0.01 -0.002,0 -0.687509,-0.43739 z m 112.542739,1.84915 0.70185,1.28288 2.59703,-1.46057 -0.7019,-1.28093 z m -107.488549,1.15011 0.320124,0.18354 0.0077,0.004 0.0077,0.004 2.250425,1.20674 0.720459,-1.30242 -2.234974,-1.19892 -0.01545,-0.008 -0.304717,-0.17378 z m 103.627619,0.84549 -1.40335,0.65803 0.60306,1.33366 1.42906,-0.67171 0.0119,-0.006 0.0118,-0.006 1.2428,-0.64047 -0.65245,-1.30826 z m -98.401491,1.8882 2.373349,1.12472 0.0077,0.004 0.0077,0.004 0.274644,0.12106 0.623848,-1.34927 -0.257239,-0.11325 -0.0039,-0.002 -0.01354,-0.006 -2.355902,-1.11886 z m 91.589011,1.17548 0.54985,1.35514 2.7369,-1.16377 -0.54985,-1.35514 z m -86.231261,1.26141 2.039776,0.84354 0.0077,0.004 0.0077,0.004 0.673937,0.25774 0.556099,-1.3766 -0.656447,-0.25385 -0.0155,-0.006 -2.022328,-0.83768 z m 81.445561,0.60142 -0.0177,0.006 -0.01,0.004 -0.68488,0.23236 0.44546,1.39418 0.7124,-0.24017 0.0138,-0.004 0.0119,-0.006 2.07428,-0.79082 -0.49859,-1.3766 z m -75.960272,1.54649 1.705204,0.60727 0.0078,0.002 0.0097,0.004 1.06447,0.34953 0.488305,-1.40199 -1.047022,-0.34367 -0.0039,-0.002 -0.01358,-0.004 -1.687757,-0.60141 z m 71.949442,-0.18551 -2.326,0.69319 0.39234,1.41176 2.32596,-0.69123 0.0118,-0.004 0.0138,-0.006 0.51364,-0.17378 -0.44541,-1.39614 z m -66.350109,2.03661 1.377441,0.41591 0.0097,0.002 0.0078,0.002 1.440419,0.39443 0.418472,-1.42347 -1.422971,-0.38858 -0.01745,-0.006 -1.360036,-0.40811 z m 58.323859,0.19136 0.33729,1.42737 2.8719,-0.73613 -0.33726,-1.42934 z m -52.629975,1.36099 1.07029,0.2636 0.0097,0.002 0.0078,0.002 1.790035,0.39443 0.34855,-1.44105 -1.790029,-0.39443 -4.4e-5,0.002 -1.052763,-0.26165 z m 48.261065,-0.40811 -0.002,0 -0.0255,0.006 -1.34907,0.23822 0.22541,1.45277 1.37654,-0.24408 0.0137,-0.002 0.0138,-0.004 1.5308,-0.33 -0.2823,-1.44104 z m -42.48611,1.65389 0.78957,0.1523 0.008,0.002 0.01,0.002 2.1074,0.35147 0.27464,-1.4547 -2.08991,-0.34758 -0.0175,-0.004 -0.77013,-0.14839 z m 35.29039,-0.49793 0.1686,1.46058 2.93084,-0.40224 -0.16858,-1.46058 z m -29.44807,1.43715 0.53932,0.0762 0.01,0 0.01,0.002 2.38062,0.27337 0.20064,-1.46449 -2.36113,-0.27141 -0.0195,-0.002 -0.52177,-0.0742 z m 23.77438,-0.82987 -0.0293,0.002 -0.11931,0.008 0.0531,1.47229 0.14865,-0.01 0.0156,0 0.0137,-0.002 2.79321,-0.27338 -0.10983,-1.46838 z m -17.88602,1.45667 0.33916,0.0312 0.008,0 0.01,0 2.60176,0.16597 0.12655,-1.47033 -2.58228,-0.16402 4e-5,-0.002 -0.33918,-0.0293 z m 13.50527,-1.19892 -1.63742,0.0312 -0.004,1.47619 1.63745,-0.0332 0.0137,0 0.0137,0 1.31228,-0.0781 -0.0531,-1.47228 z m -7.58463,1.5172 0.19123,0.008 0.01,0 0.008,0 2.75898,0.0351 0.0524,-1.47424 -2.73946,-0.0351 -0.0195,0 -0.17169,-0.008 z" style="color:#000000;font-style:normal;font-variant:normal;font-weight:normal;font-stretch:normal;font-size:medium;line-height:normal;font-family:sans-serif;text-indent:0;text-align:start;text-decoration:none;text-decoration-line:none;text-decoration-style:solid;text-decoration-color:#000000;letter-spacing:normal;word-spacing:normal;text-transform:none;direction:ltr;block-progression:tb;writing-mode:lr-tb;baseline-shift:baseline;text-anchor:start;white-space:normal;clip-rule:nonzero;display:inline;overflow:visible;visibility:visible;opacity:1;isolation:auto;mix-blend-mode:normal;color-interpolation:sRGB;color-interpolation-filters:linearRGB;solid-color:#000000;solid-opacity:1;fill:#00aeef;fill-opacity:1;fill-rule:evenodd;stroke:none;stroke-width:1.47518349;stroke-linecap:butt;stroke-linejoin:miter;stroke-miterlimit:10;stroke-dasharray:2.95036697, 2.95036697;stroke-dashoffset:0;stroke-opacity:1;color-rendering:auto;image-rendering:auto;shape-rendering:auto;text-rendering:auto;enable-background:accumulate" /><path style="fill:#f1f1f1;fill-opacity:1" id="path4278" d="m 188.149,33.028892 c 0,-5.465 4.432,-9.897 9.896,-9.897 5.469,0 9.897,4.433 9.897,9.897 0,5.468 -4.429,9.899 -9.897,9.899 -5.465,0 -9.896,-4.431 -9.896,-9.899 z" /><g transform="translate(-8.359,-10.468108)" style="fill:#205770;fill-opacity:1" id="g4280"><path style="fill:#205770;fill-opacity:1" id="path4282" d="m 151.796,203.54 0,-24.687 0.213,-0.339 c 6.22,-9.808 17.474,-28.958 20.689,-42.712 l 0,0 c 0.813,-3.448 1.345,-8.016 1.345,-13.146 l 0,0 C 174.05,110.96 171.28,96.33 163.148,84.763 l 0,0 C 155.003,73.204 141.637,64.549 119.751,64.519 l 0,0 C 93.024,64.553 78.718,76.178 70.789,88.688 l 0,0 c -7.908,12.498 -9.217,26.074 -9.204,29.331 l 0,0 c 0.045,5.417 3.324,6.477 4.068,6.791 l 0,0 c 0.098,0.033 0.107,0.033 0.107,0.033 l 0,0 1.608,0.353 -12.69,30.553 13.911,0 0,1.379 c 0,0.027 -0.002,19.265 -0.002,29.778 l 0,0 c 0.023,1.473 0.415,2.104 0.967,2.557 l 0,0 c 0.568,0.458 1.574,0.739 2.909,0.731 l 0,0 c 2.657,0.013 6.335,-1.097 9.256,-2.241 l 0,0 c 2.929,-1.136 5.112,-2.271 5.114,-2.275 l 0,0 2.016,-1.041 0,18.902 -2.757,0 0,-14.447 c -3.032,1.398 -8.918,3.821 -13.629,3.861 l 0,0 c -1.67,-0.006 -3.293,-0.309 -4.6,-1.313 l 0,0 c -1.321,-1.004 -2.054,-2.707 -2.032,-4.733 l 0,0 c 0,-5.257 0,-12.703 0,-18.833 l 0,0 c 0,-4.159 0,-7.711 0,-9.565 l 0,0 -15.284,0 13.108,-31.556 c -0.52,-0.27 -1.125,-0.652 -1.738,-1.189 l 0,0 c -1.583,-1.383 -3.106,-3.895 -3.09,-7.744 l 0,0 c 0.011,-3.754 1.337,-17.615 9.627,-30.805 l 0,0 C 76.723,74.038 92.192,61.726 119.751,61.761 l 0,0 c 22.625,-0.027 37.091,9.171 45.655,21.419 l 0,0 c 8.578,12.235 11.39,27.362 11.395,39.476 l 0,0 c 0,5.324 -0.549,10.07 -1.416,13.776 l 0,0 c -3.388,14.318 -14.521,33.187 -20.833,43.22 l 0,0 0,23.888 -2.756,0 0,0 z" /></g><path style="fill:#12323d;fill-opacity:1" id="path4284" d="M 75.97,115.51689 C 75.974,97.979892 90.187,83.764892 107.724,83.762892 l 0,0 0,1.381 0,-1.382 1.376,0 0,30.374998 30.371,0 0,1.379 c 0,17.535 -14.213,31.751 -31.748,31.753 l 0,0 c -17.536,-0.001 -31.749,-14.217 -31.753,-31.752 l 0,0 z m 2.757,0 c 0.032,16.011 12.982,28.964 28.997,28.994 l 0,0 c 15.547,-0.028 28.213,-12.242 28.956,-27.614 l 0,0 -30.337,0 0,-30.339998 c -15.368,0.745 -27.584,13.41 -27.616,28.959998 l 0,0 z" /><polygon transform="translate(-8.359,-10.468108)" style="fill:#00aeef;fill-opacity:1" id="polygon4286" points="124.286,119.158 121.53,119.158 121.53,119.158 121.53,88.787 124.286,88.787 " /><polygon transform="translate(-8.359,-10.468108)" style="fill:#00aeef;fill-opacity:1" id="polygon4288" points="129.744,119.158 126.986,119.158 126.986,119.158 126.986,88.787 129.744,88.787 " /><polygon transform="translate(-8.359,-10.468108)" style="fill:#00aeef;fill-opacity:1" id="polygon4290" points="135.204,119.158 132.448,119.158 132.448,119.158 132.448,90.813 135.204,90.813 " /><polygon transform="translate(-8.359,-10.468108)" style="fill:#00aeef;fill-opacity:1" id="polygon4292" points="140.669,119.158 137.911,119.158 137.911,119.158 137.911,93.58 140.669,93.58 " /><polygon transform="translate(-8.359,-10.468108)" style="fill:#00aeef;fill-opacity:1" id="polygon4294" points="146.127,119.158 143.369,119.158 143.369,119.158 143.369,98.06 146.127,98.06 " /><polygon transform="translate(-8.359,-10.468108)" style="fill:#00aeef;fill-opacity:1" id="polygon4296" points="151.588,119.158 148.83,119.158 148.83,119.158 148.83,105.84 151.588,105.84 " /><g transform="translate(-8.359,-10.468108)" style="fill:#f1f1f1;fill-opacity:1" id="g4298"><path style="fill:#f1f1f1;fill-opacity:1" id="path4300" d="m 94.979,125.985 c 0,4.347 1.316,8.385 3.568,11.742 l 11.107,-11.107 0,-20.737 c -8.509,2.719 -14.675,10.685 -14.675,20.102 z" /><path style="fill:#f1f1f1;fill-opacity:1" id="path4302" d="m 104.337,143.52 c 3.359,2.25 7.4,3.566 11.747,3.566 9.415,0 17.381,-6.165 20.102,-14.676 l -20.741,0 -11.108,11.11 z" /></g><path style="fill:#f1f1f1;fill-opacity:1" id="path4304" d="m 145.832,74.448892 c 0,3.142 -2.545,5.69 -5.688,5.69 -3.142,0 -5.687,-2.548 -5.687,-5.69 0,-3.139 2.545,-5.687 5.687,-5.687 3.143,10e-4 5.688,2.548 5.688,5.687 z" /><g transform="translate(-8.359,-10.468108)" style="fill:#12323d;fill-opacity:1" id="g4306"><polygon style="fill:#12323d;fill-opacity:1" id="polygon4308" points="205.429,42.523 207.381,44.471 178.191,77.883 167.841,67.533 149.479,85.893 147.526,83.945 147.526,83.945 167.841,63.631 178.191,73.982 " /><polygon style="fill:#12323d;fill-opacity:1" id="polygon4310" points="198.896,42.116 207.781,42.116 207.781,51.006 205.028,51.006 205.028,51.006 205.028,44.874 198.896,44.874 " /></g><path style="fill:#12323d;fill-opacity:1" id="path4312" d="m 198.044,47.348892 c 7.91,-0.015 14.31,-6.412 14.319,-14.32 l 0,0 c -0.01,-7.908 -6.409,-14.304 -14.319,-14.32 l 0,0 c -7.906,0.016 -14.304,6.411 -14.317,14.32 l 0,0 -2.756,0 c 0,-9.433 7.643,-17.075 17.073,-17.075 l 0,0 c 9.432,0 17.077,7.642 17.082,17.075 l 0,0 c -0.005,9.433 -7.65,17.076 -17.082,17.079 l 0,0 0,-2.759 0,0 z" /><g transform="translate(-8.359,-10.468108)" id="g4314"><polygon style="fill:#f1f1f1;fill-opacity:1" id="polygon4316" points="53.496,78.01 63.392,87.906 63.392,78.01 81.052,78.01 81.052,37.399 12.799,37.399 12.799,78.01 " /><g style="fill:#12323d;fill-opacity:1" id="g4318"><polygon style="fill:#12323d;fill-opacity:1" id="polygon4320" points="64.671,45.263 8.359,45.263 8.359,45.263 8.359,42.504 64.671,42.504 " /><polygon style="fill:#12323d;fill-opacity:1" id="polygon4322" points="64.669,52.426 8.361,52.426 8.361,52.426 8.361,49.671 64.669,49.671 " /><polygon style="fill:#12323d;fill-opacity:1" id="polygon4324" points="64.669,59.593 8.364,59.593 8.364,59.593 8.364,56.838 64.669,56.838 " /><polygon style="fill:#12323d;fill-opacity:1" id="polygon4326" points="64.671,66.76 8.359,66.76 8.359,66.76 8.359,64.003 64.671,64.003 " /></g></g><path style="fill:#12323d;fill-opacity:1" id="path4328" d="m 149.059,181.98889 2.488,-1.424 c 5.63,9.82 16.201,16.431 28.326,16.431 l 0,0 c 9.013,0 17.156,-3.646 23.064,-9.551 l 0,0 c 5.906,-5.908 9.552,-14.053 9.552,-23.066 l 0,0 c 0,-6.694 -2.015,-12.908 -5.471,-18.087 l 0,0 2.384,-1.593 c 3.76,5.63 5.954,12.406 5.954,19.68 l 0,0 c 0,19.6 -15.888,35.484 -35.483,35.485 l 0,0 c -13.187,-0.001 -24.701,-7.194 -30.814,-17.875 l 0,0 z" /><path style="fill:#12323d;fill-opacity:1" id="path4330" d="m 179.873,131.76089 c -1.827,0 -3.619,0.151 -5.365,0.438 l 0,0 0,0.003 -0.468,-2.828 c 1.898,-0.316 3.846,-0.479 5.833,-0.479 l 0,0 c 7.934,0 15.276,2.609 21.187,7.015 l 0,0 -1.711,2.296 c -5.441,-4.049 -12.171,-6.445 -19.476,-6.445 l 0,0 z" /><circle style="fill:#f1f1f1;fill-opacity:1" id="circle4332" r="23.843" cy="164.37889" cx="179.87201" /><polygon transform="translate(-8.359,-10.468108)" style="fill:#00aeef;fill-opacity:1" id="polygon4334" points="218.964,142.8 220.988,144.827 188.232,177.582 179.238,168.591 179.238,168.591 181.268,166.563 188.232,173.53 " /></svg>