<svg width="1520" height="883" xmlns="http://www.w3.org/2000/svg" xmlns:xlink="http://www.w3.org/1999/xlink"><defs><path d="M2450 6.981L2448.729 1 210 476.856v1016.09l1.271 5.98L2450 1023.07V6.981z" id="a"/><linearGradient x1="-4.609%" y1="162.368%" y2="-90.695%" id="c"><stop stop-color="#1AC9FF" offset="0%"/><stop stop-color="#029AF1" offset="42.965%"/><stop stop-color="#2349E5" offset="100%"/></linearGradient><path d="M3083.928 275.913L588.072 806.423v987.582l2495.856-530.51V275.912z" id="d"/><path d="M981 619.684l698.677-148.508.323 1.521v407.347L981 1028.62V619.684z" id="f"/><linearGradient x1="91.92%" y1="-82.438%" x2="-12.443%" y2="193.828%" id="h"><stop stop-color="#1AC9FF" offset="0%"/><stop stop-color="#029AF1" offset="41.532%"/><stop stop-color="#1F52E6" offset="100%"/><stop stop-color="#2349E5" offset="100%"/></linearGradient><path d="M981 619.684l698.677-148.508.323 1.521v407.347L981 1028.62V619.684z" id="i"/><path d="M1239.527 782.883l882.81-187.647.4 1.882v514.656l-883.21 187.732V782.883z" id="k"/></defs><g fill="none" fill-rule="evenodd"><g transform="translate(-662 -1094)"><mask id="b" fill="#fff"><use xlink:href="#a"/></mask><use fill="#D8D8D8" xlink:href="#a"/><g mask="url(#b)" fill="url(#c)"><path d="M-123.728 293.266L2472.276-258.53l311.452 1465.265L187.724 1758.53z"/></g></g><g opacity=".6" transform="translate(-1564 -862)"><mask id="e" fill="#fff"><use xlink:href="#d"/></mask><use fill="#D8D8D8" xlink:href="#d"/><g mask="url(#e)" fill="url(#c)"><path d="M312.936 581.607L3032.186 3.612l315.61 1484.829-2719.25 577.994z"/></g></g><g transform="translate(-989 -144)"><mask id="g" fill="#fff"><use xlink:href="#f"/></mask><use fill="#D8D8D8" xlink:href="#f"/><g mask="url(#g)" fill="url(#h)"><path d="M887.286 618.203l795.234-169.032 89.194 419.626-795.234 169.032z"/></g></g><g transform="translate(-22 -771)"><mask id="j" fill="#fff"><use xlink:href="#i"/></mask><use fill="#D8D8D8" xlink:href="#i"/><g mask="url(#j)" fill="url(#h)"><path d="M887.286 618.203l795.234-169.032 89.194 419.626-795.234 169.032z"/></g></g><g opacity=".6" transform="translate(-885 -650)"><mask id="l" fill="#fff"><use xlink:href="#k"/></mask><use fill="#D8D8D8" xlink:href="#k"/><g mask="url(#l)" fill="url(#h)"><path d="M1121.125 781.014l1004.557-213.525 112.688 530.156-1004.557 213.525z"/></g></g></g></svg>