<?xml version="1.0" encoding="UTF-8" standalone="no"?>
<!-- Created with Inkscape (http://www.inkscape.org/) -->

<svg xmlns:dc="http://purl.org/dc/elements/1.1/" xmlns:cc="http://creativecommons.org/ns#" xmlns:rdf="http://www.w3.org/1999/02/22-rdf-syntax-ns#" xmlns:svg="http://www.w3.org/2000/svg" xmlns="http://www.w3.org/2000/svg" xmlns:sodipodi="http://sodipodi.sourceforge.net/DTD/sodipodi-0.dtd" xmlns:inkscape="http://www.inkscape.org/namespaces/inkscape" width="87.677307mm" height="32.761364mm" viewBox="0 0 310.66762 116.08358" id="svg4376" version="1.1" inkscape:version="0.91 r13725" sodipodi:docname="ems-logo.svg" inkscape:export-filename="/mnt/Work/particle_website/img/ems-logo.png" inkscape:export-xdpi="89.970001" inkscape:export-ydpi="89.970001">
  <defs id="defs4378" />
  <sodipodi:namedview id="base" pagecolor="#ffffff" bordercolor="#666666" borderopacity="1.0" inkscape:pageopacity="0.0" inkscape:pageshadow="2" inkscape:zoom="1.979899" inkscape:cx="25.164207" inkscape:cy="-23.25831" inkscape:document-units="px" inkscape:current-layer="text4184" showgrid="false" fit-margin-top="0" fit-margin-left="0" fit-margin-right="0" fit-margin-bottom="0" inkscape:window-width="1366" inkscape:window-height="746" inkscape:window-x="0" inkscape:window-y="22" inkscape:window-maximized="1" />
  <metadata id="metadata4381">
    <rdf:RDF>
      <cc:Work rdf:about="">
        <dc:format>image/svg+xml</dc:format>
        <dc:type rdf:resource="http://purl.org/dc/dcmitype/StillImage" />
        <dc:title></dc:title>
      </cc:Work>
    </rdf:RDF>
  </metadata>
  <g inkscape:label="Layer 1" inkscape:groupmode="layer" id="layer1" transform="translate(-481.54664,-75.147908)" style="display:inline">
    <g style="display:inline" id="g4210" transform="matrix(1.110503,0,0,1.110503,-769.01276,-303.77727)">
      <g transform="matrix(0.94446699,0,0,0.94446693,920.11722,72.225699)" id="g5674" style="display:inline;filter:url(#filter5288)">
        <g transform="translate(0,5.2455492)" id="g5713">
          <path inkscape:connector-curvature="0" id="rect5678" d="m 227.10316,301.53189 l 19.024,0 c 4.97935,0 8.988,4.00865 8.988,8.988 c 0,4.97936 -4.00865,8.988 -8.988,8.988 l -19.024,0 c -4.97935,0 -8.988,-4.00864 -8.988,-8.988 c 0,-4.97935 4.00865,-8.988 8.988,-8.988 z" style="opacity:1;fill:#1e9ad6;fill-opacity:1;stroke:none;stroke-width:54;stroke-linejoin:miter;stroke-miterlimit:4;stroke-dasharray:none;stroke-dashoffset:0;stroke-opacity:1" />
          <path inkscape:connector-curvature="0" id="rect5680" d="m 227.10316,279.56454 l 42.024,0 c 4.97935,0 8.988,4.00865 8.988,8.98801 c 0,4.97935 -4.00865,8.988 -8.988,8.988 l -42.024,0 c -4.97935,0 -8.988,-4.00865 -8.988,-8.988 c 0,-4.97936 4.00865,-8.98801 8.988,-8.98801 z" style="opacity:1;fill:#3857a9;fill-opacity:1;stroke:none;stroke-width:54;stroke-linejoin:miter;stroke-miterlimit:4;stroke-dasharray:none;stroke-dashoffset:0;stroke-opacity:1" />
          <path inkscape:connector-curvature="0" id="rect5682" d="m 227.10316,323.49924 l 42.024,0 c 4.97935,0 8.988,4.00865 8.988,8.988 c 0,4.97935 -4.00865,8.988 -8.988,8.988 l -42.024,0 c -4.97935,0 -8.988,-4.00865 -8.988,-8.988 c 0,-4.97935 4.00865,-8.988 8.988,-8.988 z" style="opacity:1;fill:#25b989;fill-opacity:1;stroke:none;stroke-width:54;stroke-linejoin:miter;stroke-miterlimit:4;stroke-dasharray:none;stroke-dashoffset:0;stroke-opacity:1" />
        </g>
        <g transform="matrix(-1,0,0,1,626.19105,0)" id="g5720">
          <path inkscape:connector-curvature="0" id="rect5700" d="m 294.75344,-322.08353 l 19.024,0 c 4.97935,0 8.988,4.00865 8.988,8.98801 c 0,4.97935 -4.00865,8.988 -8.988,8.988 l -19.024,0 c -4.97935,0 -8.988,-4.00865 -8.988,-8.988 c 0,-4.97936 4.00865,-8.98801 8.988,-8.98801 z" style="opacity:1;fill:#3857a9;fill-opacity:1;stroke:none;stroke-width:54;stroke-linejoin:miter;stroke-miterlimit:4;stroke-dasharray:none;stroke-dashoffset:0;stroke-opacity:1" transform="matrix(0,1,-1,0,0,0)" />
          <path inkscape:connector-curvature="0" id="rect5688" d="m 294.75344,-344.05087 l 42.024,0 c 4.97935,0 8.988,4.00865 8.988,8.988 c 0,4.97935 -4.00865,8.988 -8.988,8.988 l -42.024,0 c -4.97935,0 -8.988,-4.00865 -8.988,-8.988 c 0,-4.97935 4.00865,-8.988 8.988,-8.988 z" style="opacity:1;fill:#25b989;fill-opacity:1;stroke:none;stroke-width:54;stroke-linejoin:miter;stroke-miterlimit:4;stroke-dasharray:none;stroke-dashoffset:0;stroke-opacity:1" transform="matrix(0,1,-1,0,0,0)" />
          <path inkscape:connector-curvature="0" id="rect5690" d="m 294.75344,-300.11618 l 42.024,0 c 4.97935,0 8.988,4.00865 8.988,8.988 c 0,4.97935 -4.00865,8.988 -8.988,8.988 l -42.024,0 c -4.97935,0 -8.988,-4.00865 -8.988,-8.988 c 0,-4.97935 4.00865,-8.988 8.988,-8.988 z" style="opacity:1;fill:#1e9ad6;fill-opacity:1;stroke:none;stroke-width:54;stroke-linejoin:miter;stroke-miterlimit:4;stroke-dasharray:none;stroke-dashoffset:0;stroke-opacity:1" transform="matrix(0,1,-1,0,0,0)" />
        </g>
        <g transform="matrix(1,0,0,-1,140.63036,626.28534)" id="g5692">
          <path inkscape:connector-curvature="0" id="rect5694" d="m 216.43351,301.53189 l 42.024,0 c 4.97935,0 8.988,4.00865 8.988,8.988 c 0,4.97936 -4.00865,8.988 -8.988,8.988 l -42.024,0 c -4.97935,0 -8.988,-4.00864 -8.988,-8.988 c 0,-4.97935 4.00865,-8.988 8.988,-8.988 z" style="opacity:1;fill:#1e9ad6;fill-opacity:1;stroke:none;stroke-width:54;stroke-linejoin:miter;stroke-miterlimit:4;stroke-dasharray:none;stroke-dashoffset:0;stroke-opacity:1" />
          <path inkscape:connector-curvature="0" id="rect5696" d="m 216.43351,279.56454 l 42.024,0 c 4.97935,0 8.988,4.00865 8.988,8.98801 c 0,4.97935 -4.00865,8.988 -8.988,8.988 l -42.024,0 c -4.97935,0 -8.988,-4.00865 -8.988,-8.988 c 0,-4.97936 4.00865,-8.98801 8.988,-8.98801 z" style="opacity:1;fill:#3857a9;fill-opacity:1;stroke:none;stroke-width:54;stroke-linejoin:miter;stroke-miterlimit:4;stroke-dasharray:none;stroke-dashoffset:0;stroke-opacity:1" />
          <path inkscape:connector-curvature="0" id="rect5698" d="m 216.43351,323.49924 l 42.024,0 c 4.97935,0 8.988,4.00865 8.988,8.988 c 0,4.97935 -4.00865,8.988 -8.988,8.988 l -42.024,0 c -4.97935,0 -8.988,-4.00865 -8.988,-8.988 c 0,-4.97935 4.00865,-8.988 8.988,-8.988 z" style="opacity:1;fill:#25b989;fill-opacity:1;stroke:none;stroke-width:54;stroke-linejoin:miter;stroke-miterlimit:4;stroke-dasharray:none;stroke-dashoffset:0;stroke-opacity:1" />
        </g>
      </g>
      <g transform="translate(-42.302149,7.3118504)" style="font-style:normal;font-variant:normal;font-weight:normal;font-stretch:normal;font-size:421.5866394px;line-height:7.00000003%;font-family:delius;-inkscape-font-specification:delius;letter-spacing:0px;word-spacing:0px;display:inline;fill:#1e9ad6;fill-opacity:1;stroke:none;stroke-width:1px;stroke-linecap:butt;stroke-linejoin:miter;stroke-opacity:1" id="text6587">
        <path d="m 1362.896,363.14796 q 4.1034,-1.96741 7.6448,-1.96741 q 3.5413,0 5.0028,1.40529 q 1.6863,1.23666 1.6863,3.09164 q 0,1.4615 -0.9556,2.58573 q -2.0798,2.24846 -6.4643,2.24846 q -1.7988,0 -3.991,-0.78696 q -2.1923,-0.84317 -3.7662,-2.02362 q -4.778,3.26027 -4.778,8.82522 q 0,3.76617 3.3165,6.97023 q 3.3165,3.14785 8.9939,3.14785 q 5.7336,0 8.8252,-2.4171 q 3.0916,-2.4171 3.9348,-2.4171 q 1.5739,0 1.5739,1.4615 q 0,1.23666 -1.7988,2.92301 q -1.7987,1.68634 -5.2276,3.03542 q -3.3727,1.34908 -6.9703,1.34908 q -7.9258,0 -12.5913,-4.15966 q -4.5532,-4.21586 -4.5532,-9.38733 q 0,-7.53235 6.5768,-11.86064 q -3.0917,-3.14784 -3.0917,-7.92582 q 0,-4.77799 3.7662,-7.64477 q 3.8224,-2.86679 8.6004,-2.86679 q 4.778,0 8.3755,1.79877 q 3.5975,1.74255 3.5975,3.87859 q 0,1.34908 -1.1242,1.79877 q -0.3373,0.0562 -1.0118,0.0562 q -0.6183,0 -1.9112,-0.84317 q -3.6537,-2.75437 -7.3637,-2.75437 q -3.6538,0 -6.0709,1.74256 q -2.6981,1.68635 -2.6981,5.22768 q 0,3.48511 2.4733,5.50873 z m 2.8668,2.24846 l -0.6183,0.28106 q 1.9674,1.4615 4.9466,1.4615 q 2.9792,0 2.9792,-1.40529 q 0,-1.18044 -2.7544,-1.18044 q -2.7543,0 -4.5531,0.84317 z" style="font-style:normal;font-variant:normal;font-weight:normal;font-stretch:normal;font-size:56.21155167px;font-family:'Delius Swash Caps';-inkscape-font-specification:'Delius Swash Caps';fill:#1e9ad6;fill-opacity:1" id="path4967" inkscape:connector-curvature="0" />
        <path d="m 1408.2157,376.91979 l 0,-8.93764 q -3.3165,-3.26027 -7.9821,-3.26027 q -3.5413,0 -6.2957,3.31648 q -2.7543,3.26027 -2.7543,7.7572 q 0,4.44071 1.9674,7.70098 q 1.9674,3.14785 5.3401,3.14785 q 5.9022,0 9.7246,-9.7246 z m 2.3609,-29.90455 q 2.7543,0 2.7543,4.55314 q 0,1.74256 -0.2248,4.04723 l -0.6746,7.36371 q -0.6183,6.85781 -0.7307,8.2631 q 0,7.36372 0.5059,11.01747 q 0.5621,3.59754 1.9674,3.87859 q 1.4615,0 1.4615,0.84318 q 0,1.23665 -0.8432,2.30467 q -0.7869,1.01181 -2.3046,1.01181 q -3.1479,0 -3.8786,-7.53235 q -4.1597,7.53235 -10.3992,7.53235 q -3.7099,0 -6.2957,-2.36089 q -4.8904,-4.32829 -4.8904,-11.63579 q 0,-6.12706 3.71,-10.68019 q 3.71,-4.55314 9.4997,-4.55314 q 4.2159,0 7.9821,2.75437 q 0.1124,-10.45535 0.1124,-12.76002 q 0,-2.30468 0.5059,-3.14785 q 0.5621,-0.89939 1.7426,-0.89939 z" style="font-style:normal;font-variant:normal;font-weight:normal;font-stretch:normal;font-size:56.21155167px;font-family:'Delius Swash Caps';-inkscape-font-specification:'Delius Swash Caps';fill:#1e9ad6;fill-opacity:1" id="path4969" inkscape:connector-curvature="0" />
        <path d="m 1425.9162,365.67748 l -0.4497,12.36654 q 0,3.8786 1.6301,6.23948 q 1.6864,2.36089 4.5532,2.36089 q 2.8667,0 5.5649,-3.20406 q 2.6419,-3.26027 3.7662,-7.3075 l -0.1687,-12.19791 q 0,-2.86679 2.1361,-2.86679 q 2.5857,0 2.5857,3.8786 q 0,3.82238 -1.1242,11.1861 q 0,4.10344 0.5621,6.85781 q 0.6183,2.69815 1.5177,3.03542 q 0.3373,0.16864 0.787,0.22485 q 0.5059,0.0562 0.6745,0.16863 q 0.2248,0.11242 0.2248,0.44969 q 0,1.51772 -0.9555,2.47331 q -0.8994,0.9556 -2.3047,0.9556 q -3.5413,0 -3.5413,-7.19508 q -4.1597,7.19508 -10.4554,7.19508 q -4.4969,0 -6.9702,-3.31648 q -2.4733,-3.42891 -2.4733,-8.20689 l 0.3372,-8.48794 q 0,-1.74256 -0.4497,-4.15966 q -0.4497,-2.47331 -0.4497,-3.09163 q 0,-0.61833 0.6746,-1.29287 q 0.7307,-0.67454 1.7425,-0.67454 q 2.5858,0 2.5858,4.60935 z" style="font-style:normal;font-variant:normal;font-weight:normal;font-stretch:normal;font-size:56.21155167px;font-family:'Delius Swash Caps';-inkscape-font-specification:'Delius Swash Caps';fill:#1e9ad6;fill-opacity:1" id="path4971" inkscape:connector-curvature="0" />
      </g>
      <g style="font-style:normal;font-weight:normal;font-size:21.07933235px;line-height:100%;font-family:sans-serif;letter-spacing:0px;word-spacing:0px;display:inline;opacity:0.653;fill:#eef2fb;fill-opacity:1;stroke:none;stroke-width:1px;stroke-linecap:butt;stroke-linejoin:miter;stroke-opacity:1" id="text4184" transform="translate(-16.208873,0)">
        <path d="m 1150.3812,425.4234 l -7.2878,0 l 0,-13.04146 l 7.2878,0 l 0,1.44508 l -5.6465,0 l 0,4.06766 l 5.3165,0 l 0,1.42724 l -5.3165,0 l 0,4.65639 l 5.6465,0 l 0,1.44509 z" style="font-size:18.26875496px;line-height:100%;text-align:center;text-anchor:middle;fill:#eef2fb;fill-opacity:1" id="path4344" inkscape:connector-curvature="0" />
        <path d="m 1159.7119,425.4234 l 0,-6.26204 q 0,-1.19532 -0.5352,-1.77514 q -0.5263,-0.58874 -1.6592,-0.58874 q -1.5076,0 -2.1944,0.83851 q -0.678,0.82958 -0.678,2.71177 l 0,5.07564 l -1.6056,0 l 0,-9.79448 l 1.2934,0 l 0.2409,1.33805 l 0.089,0 q 0.4549,-0.72255 1.2756,-1.11504 q 0.8207,-0.40141 1.8108,-0.40141 q 1.8019,0 2.6761,0.87418 q 0.8742,0.87419 0.8742,2.72069 l 0,6.37801 l -1.5878,0 z" style="font-size:18.26875496px;line-height:100%;text-align:center;text-anchor:middle;fill:#eef2fb;fill-opacity:1" id="path4346" inkscape:connector-curvature="0" />
        <path d="m 1167.6242,424.29052 q 0.3122,0 0.7314,-0.0624 q 0.4193,-0.0624 0.6334,-0.14272 l 0,1.231 q -0.223,0.0981 -0.6958,0.18732 q -0.4639,0.0981 -0.9456,0.0981 q -2.8723,0 -2.8723,-3.02398 l 0,-5.70007 l -1.3826,0 l 0,-0.76714 l 1.4004,-0.64226 l 0.6423,-2.08735 l 0.9545,0 l 0,2.24791 l 2.8277,0 l 0,1.24884 l -2.8277,0 l 0,5.65547 q 0,0.84742 0.4014,1.30236 q 0.4103,0.45493 1.1329,0.45493 z" style="font-size:18.26875496px;line-height:100%;text-align:center;text-anchor:middle;fill:#eef2fb;fill-opacity:1" id="path4348" inkscape:connector-curvature="0" />
        <path d="m 1175.1172,425.60181 q -2.2033,0 -3.4611,-1.32913 q -1.2488,-1.33804 -1.2488,-3.67516 q 0,-2.35495 1.1686,-3.74652 q 1.1685,-1.40048 3.1577,-1.40048 q 1.8465,0 2.9437,1.19532 q 1.0972,1.18639 1.0972,3.22022 l 0,0.97231 l -6.708,0 q 0.045,1.6681 0.8474,2.53336 q 0.8028,0.86527 2.2747,0.86527 q 0.785,0 1.4897,-0.1338 q 0.7047,-0.14273 1.6502,-0.54414 l 0,1.40941 q -0.8117,0.34789 -1.5254,0.49061 q -0.7136,0.14273 -1.6859,0.14273 z m -0.4014,-8.84001 q -1.1507,0 -1.8197,0.74038 q -0.6691,0.74039 -0.7939,2.06059 l 4.9864,0 q -0.018,-1.37372 -0.6333,-2.08735 q -0.6155,-0.71362 -1.7395,-0.71362 z" style="font-size:18.26875496px;line-height:100%;text-align:center;text-anchor:middle;fill:#eef2fb;fill-opacity:1" id="path4350" inkscape:connector-curvature="0" />
        <path d="m 1185.8305,415.45052 q 0.6512,0 1.1507,0.10704 l -0.1963,1.48077 q -0.5441,-0.12489 -1.0615,-0.12489 q -0.776,0 -1.4451,0.42818 q -0.6601,0.42817 -1.0347,1.1864 q -0.3747,0.7493 -0.3747,1.66809 l 0,5.22729 l -1.6056,0 l 0,-9.79448 l 1.3202,0 l 0.1784,1.79298 l 0.071,0 q 0.5619,-0.97231 1.3291,-1.47185 q 0.7671,-0.49953 1.6681,-0.49953 z" style="font-size:18.26875496px;line-height:100%;text-align:center;text-anchor:middle;fill:#eef2fb;fill-opacity:1" id="path4352" inkscape:connector-curvature="0" />
        <path d="m 1193.4662,425.60181 q -1.9713,0 -3.0329,-1.41833 l -0.107,0 l 0.036,0.36573 q 0.071,0.69579 0.071,1.23992 l 0,4.02305 l -1.6056,0 l 0,-14.18326 l 1.3202,0 l 0.2141,1.33805 l 0.071,0 q 0.5709,-0.80283 1.3203,-1.15964 q 0.7493,-0.35681 1.7305,-0.35681 q 1.9089,0 2.9615,1.32912 q 1.0615,1.3202 1.0615,3.72868 q 0,2.39956 -1.0615,3.74652 q -1.0615,1.34697 -2.9794,1.34697 z m -0.2676,-8.80433 q -1.454,0 -2.1052,0.82067 q -0.6422,0.82066 -0.6601,2.57796 l 0,0.31221 q 0,1.98923 0.6601,2.88125 q 0.6602,0.88311 2.1409,0.88311 q 1.231,0 1.9179,-0.99907 q 0.6958,-0.99907 0.6958,-2.78313 q 0,-1.79298 -0.6958,-2.73853 q -0.6869,-0.95447 -1.9536,-0.95447 z" style="font-size:18.26875496px;line-height:100%;text-align:center;text-anchor:middle;fill:#eef2fb;fill-opacity:1" id="path4354" inkscape:connector-curvature="0" />
        <path d="m 1204.6345,415.45052 q 0.6511,0 1.1507,0.10704 l -0.1963,1.48077 q -0.5441,-0.12489 -1.0615,-0.12489 q -0.7761,0 -1.4451,0.42818 q -0.6601,0.42817 -1.0347,1.1864 q -0.3747,0.7493 -0.3747,1.66809 l 0,5.22729 l -1.6056,0 l 0,-9.79448 l 1.3202,0 l 0.1784,1.79298 l 0.071,0 q 0.562,-0.97231 1.3292,-1.47185 q 0.7671,-0.49953 1.6681,-0.49953 z" style="font-size:18.26875496px;line-height:100%;text-align:center;text-anchor:middle;fill:#eef2fb;fill-opacity:1" id="path4356" inkscape:connector-curvature="0" />
        <path d="m 1209.2373,425.4234 l -1.6056,0 l 0,-9.79448 l 1.6056,0 l 0,9.79448 z m -1.7305,-12.4438 q 0,-0.53522 0.2676,-0.77607 q 0.2765,-0.24085 0.6779,-0.24085 q 0.3747,0 0.6512,0.24085 q 0.2855,0.24085 0.2855,0.77607 q 0,0.52629 -0.2855,0.77606 q -0.2765,0.24977 -0.6512,0.24977 q -0.4014,0 -0.6779,-0.24977 q -0.2676,-0.24977 -0.2676,-0.77606 z" style="font-size:18.26875496px;line-height:100%;text-align:center;text-anchor:middle;fill:#eef2fb;fill-opacity:1" id="path4358" inkscape:connector-curvature="0" />
        <path d="m 1218.7196,422.72055 q 0,1.37373 -1.0258,2.13195 q -1.0259,0.74931 -2.8813,0.74931 q -1.9357,0 -3.0775,-0.6155 l 0,-1.46293 q 1.6146,0.78498 3.1132,0.78498 q 1.2131,0 1.7662,-0.39249 q 0.5531,-0.39249 0.5531,-1.05259 q 0,-0.57982 -0.5353,-0.98123 q -0.5263,-0.40142 -1.8821,-0.91879 q -1.3827,-0.53522 -1.9447,-0.90987 q -0.5619,-0.38358 -0.8296,-0.85635 q -0.2586,-0.47278 -0.2586,-1.15072 q 0,-1.20424 0.9812,-1.90002 q 0.9812,-0.69578 2.6939,-0.69578 q 1.6681,0 3.1221,0.6601 l -0.5441,1.2756 q -1.4897,-0.62442 -2.685,-0.62442 q -0.9991,0 -1.5165,0.32113 q -0.5173,0.31221 -0.5173,0.86527 q 0,0.53521 0.446,0.89203 q 0.446,0.34789 2.0784,0.97231 q 1.2221,0.45493 1.8019,0.84743 q 0.5887,0.39249 0.8653,0.8831 q 0.2765,0.49062 0.2765,1.17748 z" style="font-size:18.26875496px;line-height:100%;text-align:center;text-anchor:middle;fill:#eef2fb;fill-opacity:1" id="path4360" inkscape:connector-curvature="0" />
        <path d="m 1225.2492,425.60181 q -2.2033,0 -3.461,-1.32913 q -1.2489,-1.33804 -1.2489,-3.67516 q 0,-2.35495 1.1686,-3.74652 q 1.1685,-1.40048 3.1578,-1.40048 q 1.8465,0 2.9437,1.19532 q 1.0972,1.18639 1.0972,3.22022 l 0,0.97231 l -6.7081,0 q 0.045,1.6681 0.8474,2.53336 q 0.8029,0.86527 2.2747,0.86527 q 0.785,0 1.4897,-0.1338 q 0.7047,-0.14273 1.6502,-0.54414 l 0,1.40941 q -0.8117,0.34789 -1.5253,0.49061 q -0.7136,0.14273 -1.686,0.14273 z m -0.4014,-8.84001 q -1.1507,0 -1.8197,0.74038 q -0.669,0.74039 -0.7939,2.06059 l 4.9864,0 q -0.018,-1.37372 -0.6333,-2.08735 q -0.6155,-0.71362 -1.7395,-0.71362 z" style="font-size:18.26875496px;line-height:100%;text-align:center;text-anchor:middle;fill:#eef2fb;fill-opacity:1" id="path4362" inkscape:connector-curvature="0" />
        <path d="m 1242.1175,425.4234 l -4.2996,-11.43581 l -0.071,0 q 0.1338,1.42724 0.1338,3.52351 l 0,7.9123 l -1.5165,0 l 0,-13.04146 l 2.4263,0 l 4.0231,10.6865 l 0.071,0 l 4.0944,-10.6865 l 2.4085,0 l 0,13.04146 l -1.6235,0 l 0,-8.01934 q 0,-1.33804 0.1248,-3.39863 l -0.071,0 l -4.3531,11.41797 l -1.347,0 z" style="font-size:18.26875496px;line-height:100%;text-align:center;text-anchor:middle;fill:#eef2fb;fill-opacity:1" id="path4364" inkscape:connector-curvature="0" />
        <path d="m 1258.7806,425.4234 l -0.3122,-1.39156 l -0.071,0 q -0.7314,0.91879 -1.4629,1.24884 q -0.7225,0.32113 -1.8286,0.32113 q -1.4451,0 -2.2658,-0.75823 q -0.8207,-0.75822 -0.8207,-2.14087 q 0,-2.97937 4.701,-3.1221 l 1.6592,-0.0624 l 0,-0.57982 q 0,-1.11504 -0.4817,-1.64133 q -0.4817,-0.53522 -1.5432,-0.53522 q -0.7761,0 -1.4719,0.23193 q -0.6868,0.23192 -1.2934,0.51737 l -0.4906,-1.20424 q 0.7404,-0.39249 1.6146,-0.6155 q 0.8741,-0.223 1.7305,-0.223 q 1.7751,0 2.6404,0.78498 q 0.8653,0.78499 0.8653,2.49768 l 0,6.67238 l -1.1686,0 z m -3.3094,-1.11504 q 1.3469,0 2.1141,-0.72254 q 0.7761,-0.73146 0.7761,-2.06951 l 0,-0.88311 l -1.4451,0.0625 q -1.686,0.0624 -2.462,0.53521 q -0.7672,0.47278 -0.7672,1.48969 q 0,0.76715 0.4639,1.17748 q 0.4728,0.41033 1.3202,0.41033 z" style="font-size:18.26875496px;line-height:100%;text-align:center;text-anchor:middle;fill:#eef2fb;fill-opacity:1" id="path4366" inkscape:connector-curvature="0" />
        <path d="m 1269.6455,425.4234 l 0,-6.26204 q 0,-1.19532 -0.5352,-1.77514 q -0.5263,-0.58874 -1.6592,-0.58874 q -1.5075,0 -2.1944,0.83851 q -0.6779,0.82958 -0.6779,2.71177 l 0,5.07564 l -1.6057,0 l 0,-9.79448 l 1.2935,0 l 0.2408,1.33805 l 0.089,0 q 0.455,-0.72255 1.2756,-1.11504 q 0.8207,-0.40141 1.8109,-0.40141 q 1.8019,0 2.6761,0.87418 q 0.8741,0.87419 0.8741,2.72069 l 0,6.37801 l -1.5878,0 z" style="font-size:18.26875496px;line-height:100%;text-align:center;text-anchor:middle;fill:#eef2fb;fill-opacity:1" id="path4368" inkscape:connector-curvature="0" />
        <path d="m 1280.332,425.4234 l -0.3122,-1.39156 l -0.071,0 q -0.7315,0.91879 -1.463,1.24884 q -0.7225,0.32113 -1.8286,0.32113 q -1.4451,0 -2.2658,-0.75823 q -0.8206,-0.75822 -0.8206,-2.14087 q 0,-2.97937 4.701,-3.1221 l 1.6591,-0.0624 l 0,-0.57982 q 0,-1.11504 -0.4817,-1.64133 q -0.4817,-0.53522 -1.5432,-0.53522 q -0.776,0 -1.4718,0.23193 q -0.6869,0.23192 -1.2935,0.51737 l -0.4906,-1.20424 q 0.7404,-0.39249 1.6146,-0.6155 q 0.8742,-0.223 1.7305,-0.223 q 1.7752,0 2.6404,0.78498 q 0.8653,0.78499 0.8653,2.49768 l 0,6.67238 l -1.1686,0 z m -3.3094,-1.11504 q 1.347,0 2.1141,-0.72254 q 0.7761,-0.73146 0.7761,-2.06951 l 0,-0.88311 l -1.4451,0.0625 q -1.6859,0.0624 -2.462,0.53521 q -0.7671,0.47278 -0.7671,1.48969 q 0,0.76715 0.4638,1.17748 q 0.4728,0.41033 1.3202,0.41033 z" style="font-size:18.26875496px;line-height:100%;text-align:center;text-anchor:middle;fill:#eef2fb;fill-opacity:1" id="path4370" inkscape:connector-curvature="0" />
        <path d="m 1288.2533,424.29052 q 1.4807,0 2.1498,-0.7939 q 0.6779,-0.80283 0.6779,-2.56905 l 0,-0.38357 q 0,-1.96246 -0.6779,-2.85449 q -0.678,-0.89203 -2.1855,-0.89203 q -1.231,0 -1.909,0.98123 q -0.669,0.97231 -0.669,2.78313 q 0,1.81974 0.6512,2.77421 q 0.6601,0.95447 1.9625,0.95447 z m 2.8099,1.04368 l 0.053,-1.20424 l -0.071,0 q -0.9901,1.47185 -3.0329,1.47185 q -1.9,0 -2.9704,-1.32021 q -1.0616,-1.32912 -1.0616,-3.7376 q 0,-2.36388 1.0705,-3.72868 q 1.0793,-1.3648 2.9437,-1.3648 q 1.9892,0 3.0686,1.48076 l 0.098,0 l 0.2141,-1.30236 l 1.2756,0 l 0,9.95505 q 0,2.10518 -1.0705,3.1667 q -1.0615,1.06151 -3.3094,1.06151 q -2.1409,0 -3.5235,-0.62442 l 0,-1.48076 q 1.4272,0.76714 3.6127,0.76714 q 1.2488,0 1.9714,-0.73146 q 0.7315,-0.73147 0.7315,-2.02491 l 0,-0.38357 z" style="font-size:18.26875496px;line-height:100%;text-align:center;text-anchor:middle;fill:#eef2fb;fill-opacity:1" id="path4372" inkscape:connector-curvature="0" />
        <path d="m 1299.9299,425.60181 q -2.2033,0 -3.4611,-1.32913 q -1.2488,-1.33804 -1.2488,-3.67516 q 0,-2.35495 1.1686,-3.74652 q 1.1685,-1.40048 3.1577,-1.40048 q 1.8465,0 2.9437,1.19532 q 1.0972,1.18639 1.0972,3.22022 l 0,0.97231 l -6.708,0 q 0.045,1.6681 0.8474,2.53336 q 0.8028,0.86527 2.2747,0.86527 q 0.785,0 1.4897,-0.1338 q 0.7047,-0.14273 1.6502,-0.54414 l 0,1.40941 q -0.8117,0.34789 -1.5253,0.49061 q -0.7137,0.14273 -1.686,0.14273 z m -0.4014,-8.84001 q -1.1507,0 -1.8197,0.74038 q -0.6691,0.74039 -0.7939,2.06059 l 4.9864,0 q -0.018,-1.37372 -0.6333,-2.08735 q -0.6155,-0.71362 -1.7395,-0.71362 z" style="font-size:18.26875496px;line-height:100%;text-align:center;text-anchor:middle;fill:#eef2fb;fill-opacity:1" id="path4374" inkscape:connector-curvature="0" />
        <path d="m 1318.5376,425.4234 l 0,-6.30664 q 0,-2.31928 -1.9892,-2.31928 q -1.3648,0 -2.007,0.79391 q -0.6423,0.7939 -0.6423,2.42631 l 0,5.4057 l -1.5967,0 l 0,-6.30664 q 0,-1.15964 -0.4907,-1.73946 q -0.4816,-0.57982 -1.5164,-0.57982 q -1.3559,0 -1.9892,0.82959 q -0.6244,0.82958 -0.6244,2.72069 l 0,5.07564 l -1.6057,0 l 0,-9.79448 l 1.2934,0 l 0.2409,1.33805 l 0.089,0 q 0.4192,-0.71363 1.1775,-1.11504 q 0.7671,-0.40141 1.7127,-0.40141 q 2.3014,0 2.9972,1.64133 l 0.089,0 q 0.4728,-0.78499 1.2845,-1.21316 q 0.8207,-0.42817 1.8554,-0.42817 q 1.6592,0 2.4799,0.85634 q 0.8296,0.85635 0.8296,2.73853 l 0,6.37801 l -1.5879,0 z" style="font-size:18.26875496px;line-height:100%;text-align:center;text-anchor:middle;fill:#eef2fb;fill-opacity:1" id="path4376" inkscape:connector-curvature="0" />
        <path d="m 1327.333,425.60181 q -2.2033,0 -3.461,-1.32913 q -1.2489,-1.33804 -1.2489,-3.67516 q 0,-2.35495 1.1686,-3.74652 q 1.1685,-1.40048 3.1578,-1.40048 q 1.8465,0 2.9437,1.19532 q 1.0972,1.18639 1.0972,3.22022 l 0,0.97231 l -6.7081,0 q 0.045,1.6681 0.8474,2.53336 q 0.8029,0.86527 2.2747,0.86527 q 0.785,0 1.4897,-0.1338 q 0.7047,-0.14273 1.6502,-0.54414 l 0,1.40941 q -0.8117,0.34789 -1.5253,0.49061 q -0.7136,0.14273 -1.686,0.14273 z m -0.4014,-8.84001 q -1.1507,0 -1.8197,0.74038 q -0.669,0.74039 -0.7939,2.06059 l 4.9864,0 q -0.018,-1.37372 -0.6333,-2.08735 q -0.6155,-0.71362 -1.7395,-0.71362 z" style="font-size:18.26875496px;line-height:100%;text-align:center;text-anchor:middle;fill:#eef2fb;fill-opacity:1" id="path4378" inkscape:connector-curvature="0" />
        <path d="m 1340.1515,425.4234 l 0,-6.26204 q 0,-1.19532 -0.5352,-1.77514 q -0.5263,-0.58874 -1.6592,-0.58874 q -1.5075,0 -2.1944,0.83851 q -0.6779,0.82958 -0.6779,2.71177 l 0,5.07564 l -1.6057,0 l 0,-9.79448 l 1.2935,0 l 0.2408,1.33805 l 0.089,0 q 0.455,-0.72255 1.2756,-1.11504 q 0.8207,-0.40141 1.8108,-0.40141 q 1.8019,0 2.6761,0.87418 q 0.8742,0.87419 0.8742,2.72069 l 0,6.37801 l -1.5878,0 z" style="font-size:18.26875496px;line-height:100%;text-align:center;text-anchor:middle;fill:#eef2fb;fill-opacity:1" id="path4380" inkscape:connector-curvature="0" />
        <path d="m 1348.0638,424.29052 q 0.3122,0 0.7315,-0.0624 q 0.4192,-0.0624 0.6333,-0.14272 l 0,1.231 q -0.223,0.0981 -0.6958,0.18732 q -0.4638,0.0981 -0.9455,0.0981 q -2.8724,0 -2.8724,-3.02398 l 0,-5.70007 l -1.3826,0 l 0,-0.76714 l 1.4005,-0.64226 l 0.6422,-2.08735 l 0.9545,0 l 0,2.24791 l 2.8277,0 l 0,1.24884 l -2.8277,0 l 0,5.65547 q 0,0.84742 0.4014,1.30236 q 0.4104,0.45493 1.1329,0.45493 z" style="font-size:18.26875496px;line-height:100%;text-align:center;text-anchor:middle;fill:#eef2fb;fill-opacity:1" id="path4382" inkscape:connector-curvature="0" />
        <path d="m 1363.7546,421.93557 q 0,1.70377 -1.231,2.685 q -1.231,0.98124 -3.4254,0.98124 q -2.3193,0 -3.5859,-0.6155 l 0,-1.56997 q 0.8295,0.35681 1.8108,0.56197 q 0.9901,0.20517 1.8465,0.20517 q 1.4629,0 2.2033,-0.56198 q 0.7404,-0.56198 0.7404,-1.54321 q 0,-0.65118 -0.2676,-1.07043 q -0.2677,-0.41926 -0.901,-0.78499 q -0.6244,-0.36573 -1.9,-0.82959 q -1.8108,-0.6601 -2.5869,-1.55213 q -0.7761,-0.90095 -0.7761,-2.31927 q 0,-1.52537 1.1418,-2.42632 q 1.1508,-0.90095 3.024,-0.90095 q 1.9536,0 3.5949,0.73146 l -0.5085,1.40941 q -1.677,-0.69578 -3.1221,-0.69578 q -1.1596,0 -1.8197,0.49953 q -0.6512,0.49954 -0.6512,1.40049 q 0,0.64226 0.2498,1.07043 q 0.2587,0.41926 0.8206,0.76715 q 0.5709,0.34789 1.7841,0.7939 q 1.454,0.53522 2.1676,1.04368 q 0.7137,0.49953 1.0526,1.15964 q 0.339,0.65118 0.339,1.56105 z" style="font-size:18.26875496px;line-height:100%;text-align:center;text-anchor:middle;fill:#eef2fb;fill-opacity:1" id="path4384" inkscape:connector-curvature="0" />
        <path d="m 1367.6795,415.62892 l 0,6.30665 q 0,1.1864 0.5263,1.76621 q 0.5352,0.5709 1.6503,0.5709 q 1.5075,0 2.1944,-0.8385 q 0.6868,-0.83851 0.6868,-2.70285 l 0,-5.10241 l 1.6146,0 l 0,9.79448 l -1.3202,0 l -0.2319,-1.29344 l -0.08,0 q -0.4371,0.7047 -1.2399,1.08827 q -0.8029,0.38358 -1.8644,0.38358 q -1.7662,0 -2.6671,-0.84743 q -0.8921,-0.84743 -0.8921,-2.71177 l 0,-6.41369 l 1.6235,0 z" style="font-size:18.26875496px;line-height:100%;text-align:center;text-anchor:middle;fill:#eef2fb;fill-opacity:1" id="path4386" inkscape:connector-curvature="0" />
        <path d="m 1379.0796,425.4234 l -1.6056,0 l 0,-9.79448 l 1.6056,0 l 0,9.79448 z m -1.7305,-12.4438 q 0,-0.53522 0.2676,-0.77607 q 0.2766,-0.24085 0.678,-0.24085 q 0.3746,0 0.6511,0.24085 q 0.2855,0.24085 0.2855,0.77607 q 0,0.52629 -0.2855,0.77606 q -0.2765,0.24977 -0.6511,0.24977 q -0.4014,0 -0.678,-0.24977 q -0.2676,-0.24977 -0.2676,-0.77606 z" style="font-size:18.26875496px;line-height:100%;text-align:center;text-anchor:middle;fill:#eef2fb;fill-opacity:1" id="path4388" inkscape:connector-curvature="0" />
        <path d="m 1385.4577,424.29052 q 0.3122,0 0.7314,-0.0624 q 0.4193,-0.0624 0.6334,-0.14272 l 0,1.231 q -0.223,0.0981 -0.6958,0.18732 q -0.4639,0.0981 -0.9456,0.0981 q -2.8723,0 -2.8723,-3.02398 l 0,-5.70007 l -1.3826,0 l 0,-0.76714 l 1.4004,-0.64226 l 0.6423,-2.08735 l 0.9545,0 l 0,2.24791 l 2.8277,0 l 0,1.24884 l -2.8277,0 l 0,5.65547 q 0,0.84742 0.4014,1.30236 q 0.4103,0.45493 1.1329,0.45493 z" style="font-size:18.26875496px;line-height:100%;text-align:center;text-anchor:middle;fill:#eef2fb;fill-opacity:1" id="path4390" inkscape:connector-curvature="0" />
        <path d="m 1148.706,436.94751 l -2.4709,0 l 0,8.54564 l -1.6056,0 l 0,-8.54564 l -1.7127,0 l 0,-0.74931 l 1.7127,-0.55305 l 0,-0.56198 q 0,-1.78406 0.776,-2.67609 q 0.785,-0.89203 2.4085,-0.89203 q 0.9366,0 1.9,0.33005 l -0.4282,1.25776 q -0.8295,-0.26761 -1.454,-0.26761 q -0.8117,0 -1.2042,0.53522 q -0.3925,0.53522 -0.3925,1.69486 l 0,0.63334 l 2.4709,0 l 0,1.24884 z" style="font-size:18.26875496px;line-height:100%;text-align:center;text-anchor:middle;fill:#eef2fb;fill-opacity:1" id="path4392" inkscape:connector-curvature="0" />
        <path d="m 1158.9822,440.57807 q 0,2.39955 -1.2132,3.74652 q -1.2131,1.34696 -3.354,1.34696 q -1.3291,0 -2.3549,-0.6155 q -1.0259,-0.62442 -1.5789,-1.78406 q -0.5531,-1.15963 -0.5531,-2.69392 q 0,-2.39064 1.1953,-3.71977 q 1.1953,-1.33804 3.3541,-1.33804 q 2.0695,0 3.2826,1.36481 q 1.2221,1.35588 1.2221,3.693 z m -7.3949,0 q 0,1.8465 0.7225,2.80989 q 0.7315,0.95447 2.1498,0.95447 q 1.4005,0 2.132,-0.95447 q 0.7314,-0.96339 0.7314,-2.80989 q 0,-1.8465 -0.7404,-2.77421 q -0.7314,-0.93664 -2.1497,-0.93664 q -2.8456,0 -2.8456,3.71085 z" style="font-size:18.26875496px;line-height:100%;text-align:center;text-anchor:middle;fill:#eef2fb;fill-opacity:1" id="path4394" inkscape:connector-curvature="0" />
        <path d="m 1166.1006,435.52026 q 0.6512,0 1.1507,0.10704 l -0.1962,1.48077 q -0.5442,-0.12488 -1.0616,-0.12488 q -0.776,0 -1.445,0.42817 q -0.6601,0.42818 -1.0348,1.1864 q -0.3746,0.74931 -0.3746,1.6681 l 0,5.22729 l -1.6057,0 l 0,-9.79448 l 1.3202,0 l 0.1784,1.79298 l 0.071,0 q 0.562,-0.97232 1.3291,-1.47185 q 0.7671,-0.49954 1.6681,-0.49954 z" style="font-size:18.26875496px;line-height:100%;text-align:center;text-anchor:middle;fill:#eef2fb;fill-opacity:1" id="path4396" inkscape:connector-curvature="0" />
        <path d="m 1181.3543,445.49315 l -7.2879,0 l 0,-13.04147 l 7.2879,0 l 0,1.44509 l -5.6466,0 l 0,4.06765 l 5.3165,0 l 0,1.42725 l -5.3165,0 l 0,4.65639 l 5.6466,0 l 0,1.44509 z" style="font-size:18.26875496px;line-height:100%;text-align:center;text-anchor:middle;fill:#eef2fb;fill-opacity:1" id="path4398" inkscape:connector-curvature="0" />
        <path d="m 1187.4825,445.67155 q -1.9089,0 -2.9615,-1.3202 q -1.0526,-1.3202 -1.0526,-3.7376 q 0,-2.39956 1.0526,-3.74653 q 1.0615,-1.34696 2.9794,-1.34696 q 1.9714,0 3.0329,1.44509 l 0.1159,0 q -0.027,-0.17841 -0.071,-0.71363 q -0.045,-0.54413 -0.045,-0.73146 l 0,-3.90709 l 1.6056,0 l 0,13.87998 l -1.2934,0 l -0.2409,-1.31129 l -0.071,0 q -1.0259,1.48969 -3.0508,1.48969 z m 0.2587,-1.32912 q 1.4629,0 2.132,-0.79391 q 0.6779,-0.80282 0.6779,-2.62256 l 0,-0.29437 q 0,-2.04275 -0.6869,-2.90802 q -0.6779,-0.87419 -2.1408,-0.87419 q -1.2399,0 -1.9179,0.99016 q -0.6779,0.98123 -0.6779,2.80989 q 0,1.81974 0.669,2.75637 q 0.6779,0.93663 1.9446,0.93663 z" style="font-size:18.26875496px;line-height:100%;text-align:center;text-anchor:middle;fill:#eef2fb;fill-opacity:1" id="path4400" inkscape:connector-curvature="0" />
        <path d="m 1196.7686,435.69867 l 0,6.30664 q 0,1.1864 0.5262,1.76622 q 0.5353,0.5709 1.6503,0.5709 q 1.5075,0 2.1944,-0.83851 q 0.6869,-0.83851 0.6869,-2.70285 l 0,-5.1024 l 1.6145,0 l 0,9.79448 l -1.3202,0 l -0.2319,-1.29345 l -0.08,0 q -0.4371,0.70471 -1.2399,1.08828 q -0.8028,0.38357 -1.8643,0.38357 q -1.7663,0 -2.6672,-0.84743 q -0.892,-0.84742 -0.892,-2.71176 l 0,-6.41369 l 1.6235,0 z" style="font-size:18.26875496px;line-height:100%;text-align:center;text-anchor:middle;fill:#eef2fb;fill-opacity:1" id="path4402" inkscape:connector-curvature="0" />
        <path d="m 1210.488,445.67155 q -2.1142,0 -3.2916,-1.29344 q -1.1775,-1.30236 -1.1775,-3.72868 q 0,-2.462 1.1864,-3.79113 q 1.1953,-1.33804 3.3986,-1.33804 q 0.7136,0 1.4094,0.15165 q 0.7047,0.14272 1.1597,0.37465 l -0.4907,1.33804 q -1.2399,-0.46385 -2.1141,-0.46385 q -1.4807,0 -2.1854,0.93663 q -0.7047,0.92771 -0.7047,2.77421 q 0,1.77514 0.7047,2.72069 q 0.7047,0.93663 2.0873,0.93663 q 1.2935,0 2.5423,-0.5709 l 0,1.42724 q -1.0169,0.5263 -2.5244,0.5263 z" style="font-size:18.26875496px;line-height:100%;text-align:center;text-anchor:middle;fill:#eef2fb;fill-opacity:1" id="path4404" inkscape:connector-curvature="0" />
        <path d="m 1221.3886,445.49315 l -0.3123,-1.39157 l -0.071,0 q -0.7315,0.91879 -1.4629,1.24884 q -0.7226,0.32113 -1.8287,0.32113 q -1.4451,0 -2.2658,-0.75822 q -0.8206,-0.75823 -0.8206,-2.14087 q 0,-2.97938 4.701,-3.1221 l 1.6591,-0.0625 l 0,-0.57982 q 0,-1.11503 -0.4817,-1.64133 q -0.4816,-0.53522 -1.5432,-0.53522 q -0.776,0 -1.4718,0.23193 q -0.6869,0.23193 -1.2935,0.51738 l -0.4906,-1.20424 q 0.7404,-0.39249 1.6146,-0.6155 q 0.8742,-0.22301 1.7305,-0.22301 q 1.7752,0 2.6404,0.78499 q 0.8653,0.78498 0.8653,2.49768 l 0,6.67238 l -1.1685,0 z m -3.3095,-1.11504 q 1.347,0 2.1141,-0.72254 q 0.7761,-0.73147 0.7761,-2.06951 l 0,-0.88311 l -1.4451,0.0624 q -1.6859,0.0624 -2.462,0.53522 q -0.7671,0.47277 -0.7671,1.48969 q 0,0.76714 0.4638,1.17748 q 0.4728,0.41033 1.3202,0.41033 z" style="font-size:18.26875496px;line-height:100%;text-align:center;text-anchor:middle;fill:#eef2fb;fill-opacity:1" id="path4406" inkscape:connector-curvature="0" />
        <path d="m 1228.8548,444.36027 q 0.3122,0 0.7315,-0.0624 q 0.4193,-0.0625 0.6333,-0.14273 l 0,1.231 q -0.223,0.0981 -0.6957,0.18733 q -0.4639,0.0981 -0.9456,0.0981 q -2.8723,0 -2.8723,-3.02398 l 0,-5.70006 l -1.3827,0 l 0,-0.76715 l 1.4005,-0.64226 l 0.6423,-2.08735 l 0.9544,0 l 0,2.24792 l 2.8278,0 l 0,1.24884 l -2.8278,0 l 0,5.65546 q 0,0.84743 0.4015,1.30236 q 0.4103,0.45494 1.1328,0.45494 z" style="font-size:18.26875496px;line-height:100%;text-align:center;text-anchor:middle;fill:#eef2fb;fill-opacity:1" id="path4408" inkscape:connector-curvature="0" />
        <path d="m 1233.7878,445.49315 l -1.6057,0 l 0,-9.79448 l 1.6057,0 l 0,9.79448 z m -1.7306,-12.44381 q 0,-0.53522 0.2676,-0.77606 q 0.2766,-0.24085 0.678,-0.24085 q 0.3746,0 0.6512,0.24085 q 0.2854,0.24084 0.2854,0.77606 q 0,0.5263 -0.2854,0.77607 q -0.2766,0.24976 -0.6512,0.24976 q -0.4014,0 -0.678,-0.24976 q -0.2676,-0.24977 -0.2676,-0.77607 z" style="font-size:18.26875496px;line-height:100%;text-align:center;text-anchor:middle;fill:#eef2fb;fill-opacity:1" id="path4410" inkscape:connector-curvature="0" />
        <path d="m 1245.402,440.57807 q 0,2.39955 -1.2132,3.74652 q -1.2131,1.34696 -3.354,1.34696 q -1.3291,0 -2.355,-0.6155 q -1.0258,-0.62442 -1.5789,-1.78406 q -0.553,-1.15963 -0.553,-2.69392 q 0,-2.39064 1.1953,-3.71977 q 1.1953,-1.33804 3.354,-1.33804 q 2.0695,0 3.2827,1.36481 q 1.2221,1.35588 1.2221,3.693 z m -7.3949,0 q 0,1.8465 0.7225,2.80989 q 0.7315,0.95447 2.1498,0.95447 q 1.4005,0 2.1319,-0.95447 q 0.7315,-0.96339 0.7315,-2.80989 q 0,-1.8465 -0.7404,-2.77421 q -0.7314,-0.93664 -2.1498,-0.93664 q -2.8455,0 -2.8455,3.71085 z" style="font-size:18.26875496px;line-height:100%;text-align:center;text-anchor:middle;fill:#eef2fb;fill-opacity:1" id="path4412" inkscape:connector-curvature="0" />
        <path d="m 1254.6256,445.49315 l 0,-6.26205 q 0,-1.19532 -0.5353,-1.77514 q -0.5263,-0.58874 -1.6591,-0.58874 q -1.5076,0 -2.1944,0.83851 q -0.678,0.82959 -0.678,2.71177 l 0,5.07565 l -1.6056,0 l 0,-9.79448 l 1.2934,0 l 0.2409,1.33804 l 0.089,0 q 0.4549,-0.72254 1.2756,-1.11504 q 0.8206,-0.40141 1.8108,-0.40141 q 1.8019,0 2.6761,0.87419 q 0.8742,0.87419 0.8742,2.72069 l 0,6.37801 l -1.5878,0 z" style="font-size:18.26875496px;line-height:100%;text-align:center;text-anchor:middle;fill:#eef2fb;fill-opacity:1" id="path4414" inkscape:connector-curvature="0" />
        <path d="m 1265.3121,445.49315 l -0.3122,-1.39157 l -0.071,0 q -0.7315,0.91879 -1.4629,1.24884 q -0.7226,0.32113 -1.8287,0.32113 q -1.4451,0 -2.2658,-0.75822 q -0.8206,-0.75823 -0.8206,-2.14087 q 0,-2.97938 4.701,-3.1221 l 1.6591,-0.0625 l 0,-0.57982 q 0,-1.11503 -0.4816,-1.64133 q -0.4817,-0.53522 -1.5433,-0.53522 q -0.776,0 -1.4718,0.23193 q -0.6869,0.23193 -1.2934,0.51738 l -0.4907,-1.20424 q 0.7404,-0.39249 1.6146,-0.6155 q 0.8742,-0.22301 1.7305,-0.22301 q 1.7752,0 2.6405,0.78499 q 0.8652,0.78498 0.8652,2.49768 l 0,6.67238 l -1.1685,0 z m -3.3095,-1.11504 q 1.347,0 2.1141,-0.72254 q 0.7761,-0.73147 0.7761,-2.06951 l 0,-0.88311 l -1.4451,0.0624 q -1.6859,0.0624 -2.462,0.53522 q -0.7671,0.47277 -0.7671,1.48969 q 0,0.76714 0.4638,1.17748 q 0.4728,0.41033 1.3202,0.41033 z" style="font-size:18.26875496px;line-height:100%;text-align:center;text-anchor:middle;fill:#eef2fb;fill-opacity:1" id="path4416" inkscape:connector-curvature="0" />
        <path d="m 1271.1103,445.49315 l -1.6057,0 l 0,-13.87998 l 1.6057,0 l 0,13.87998 z" style="font-size:18.26875496px;line-height:100%;text-align:center;text-anchor:middle;fill:#eef2fb;fill-opacity:1" id="path4418" inkscape:connector-curvature="0" />
        <path d="m 1280.5658,445.49315 l -1.6057,0 l 0,-9.79448 l 1.6057,0 l 0,9.79448 z m -1.7306,-12.44381 q 0,-0.53522 0.2676,-0.77606 q 0.2766,-0.24085 0.678,-0.24085 q 0.3746,0 0.6512,0.24085 q 0.2854,0.24084 0.2854,0.77606 q 0,0.5263 -0.2854,0.77607 q -0.2766,0.24976 -0.6512,0.24976 q -0.4014,0 -0.678,-0.24976 q -0.2676,-0.24977 -0.2676,-0.77607 z" style="font-size:18.26875496px;line-height:100%;text-align:center;text-anchor:middle;fill:#eef2fb;fill-opacity:1" id="path4420" inkscape:connector-curvature="0" />
        <path d="m 1290.3424,445.49315 l 0,-6.26205 q 0,-1.19532 -0.5352,-1.77514 q -0.5263,-0.58874 -1.6592,-0.58874 q -1.5075,0 -2.1944,0.83851 q -0.6779,0.82959 -0.6779,2.71177 l 0,5.07565 l -1.6057,0 l 0,-9.79448 l 1.2935,0 l 0.2408,1.33804 l 0.089,0 q 0.4549,-0.72254 1.2756,-1.11504 q 0.8207,-0.40141 1.8108,-0.40141 q 1.8019,0 2.6761,0.87419 q 0.8742,0.87419 0.8742,2.72069 l 0,6.37801 l -1.5878,0 z" style="font-size:18.26875496px;line-height:100%;text-align:center;text-anchor:middle;fill:#eef2fb;fill-opacity:1" id="path4422" inkscape:connector-curvature="0" />
        <path d="m 1301.359,442.7903 q 0,1.37372 -1.0259,2.13195 q -1.0258,0.7493 -2.8812,0.7493 q -1.9357,0 -3.0775,-0.6155 l 0,-1.46293 q 1.6145,0.78499 3.1132,0.78499 q 1.2131,0 1.7662,-0.39249 q 0.553,-0.3925 0.553,-1.0526 q 0,-0.57982 -0.5352,-0.98123 q -0.5263,-0.40141 -1.8822,-0.91879 q -1.3826,-0.53522 -1.9446,-0.90987 q -0.562,-0.38357 -0.8296,-0.85635 q -0.2587,-0.47277 -0.2587,-1.15071 q 0,-1.20424 0.9813,-1.90003 q 0.9812,-0.69578 2.6939,-0.69578 q 1.6681,0 3.1221,0.6601 l -0.5441,1.2756 q -1.4897,-0.62442 -2.6851,-0.62442 q -0.999,0 -1.5164,0.32113 q -0.5174,0.31221 -0.5174,0.86527 q 0,0.53522 0.446,0.89203 q 0.446,0.34789 2.0785,0.97231 q 1.222,0.45494 1.8019,0.84743 q 0.5887,0.39249 0.8652,0.88311 q 0.2766,0.49062 0.2766,1.17748 z" style="font-size:18.26875496px;line-height:100%;text-align:center;text-anchor:middle;fill:#eef2fb;fill-opacity:1" id="path4424" inkscape:connector-curvature="0" />
        <path d="m 1306.9966,444.36027 q 0.3122,0 0.7314,-0.0624 q 0.4193,-0.0625 0.6334,-0.14273 l 0,1.231 q -0.223,0.0981 -0.6958,0.18733 q -0.4639,0.0981 -0.9456,0.0981 q -2.8723,0 -2.8723,-3.02398 l 0,-5.70006 l -1.3826,0 l 0,-0.76715 l 1.4005,-0.64226 l 0.6422,-2.08735 l 0.9545,0 l 0,2.24792 l 2.8277,0 l 0,1.24884 l -2.8277,0 l 0,5.65546 q 0,0.84743 0.4014,1.30236 q 0.4103,0.45494 1.1329,0.45494 z" style="font-size:18.26875496px;line-height:100%;text-align:center;text-anchor:middle;fill:#eef2fb;fill-opacity:1" id="path4426" inkscape:connector-curvature="0" />
        <path d="m 1311.9295,445.49315 l -1.6057,0 l 0,-9.79448 l 1.6057,0 l 0,9.79448 z m -1.7305,-12.44381 q 0,-0.53522 0.2676,-0.77606 q 0.2765,-0.24085 0.6779,-0.24085 q 0.3747,0 0.6512,0.24085 q 0.2854,0.24084 0.2854,0.77606 q 0,0.5263 -0.2854,0.77607 q -0.2765,0.24976 -0.6512,0.24976 q -0.4014,0 -0.6779,-0.24976 q -0.2676,-0.24977 -0.2676,-0.77607 z" style="font-size:18.26875496px;line-height:100%;text-align:center;text-anchor:middle;fill:#eef2fb;fill-opacity:1" id="path4428" inkscape:connector-curvature="0" />
        <path d="m 1318.3075,444.36027 q 0.3122,0 0.7315,-0.0624 q 0.4192,-0.0625 0.6333,-0.14273 l 0,1.231 q -0.223,0.0981 -0.6958,0.18733 q -0.4638,0.0981 -0.9455,0.0981 q -2.8724,0 -2.8724,-3.02398 l 0,-5.70006 l -1.3826,0 l 0,-0.76715 l 1.4005,-0.64226 l 0.6422,-2.08735 l 0.9545,0 l 0,2.24792 l 2.8277,0 l 0,1.24884 l -2.8277,0 l 0,5.65546 q 0,0.84743 0.4014,1.30236 q 0.4104,0.45494 1.1329,0.45494 z" style="font-size:18.26875496px;line-height:100%;text-align:center;text-anchor:middle;fill:#eef2fb;fill-opacity:1" id="path4430" inkscape:connector-curvature="0" />
        <path d="m 1323.1512,435.69867 l 0,6.30664 q 0,1.1864 0.5263,1.76622 q 0.5352,0.5709 1.6503,0.5709 q 1.5075,0 2.1944,-0.83851 q 0.6868,-0.83851 0.6868,-2.70285 l 0,-5.1024 l 1.6146,0 l 0,9.79448 l -1.3202,0 l -0.2319,-1.29345 l -0.08,0 q -0.4371,0.70471 -1.2399,1.08828 q -0.8029,0.38357 -1.8644,0.38357 q -1.7662,0 -2.6671,-0.84743 q -0.8921,-0.84742 -0.8921,-2.71176 l 0,-6.41369 l 1.6235,0 z" style="font-size:18.26875496px;line-height:100%;text-align:center;text-anchor:middle;fill:#eef2fb;fill-opacity:1" id="path4432" inkscape:connector-curvature="0" />
        <path d="m 1336.2194,444.36027 q 0.3123,0 0.7315,-0.0624 q 0.4193,-0.0625 0.6334,-0.14273 l 0,1.231 q -0.2231,0.0981 -0.6958,0.18733 q -0.4639,0.0981 -0.9456,0.0981 q -2.8723,0 -2.8723,-3.02398 l 0,-5.70006 l -1.3827,0 l 0,-0.76715 l 1.4005,-0.64226 l 0.6423,-2.08735 l 0.9545,0 l 0,2.24792 l 2.8277,0 l 0,1.24884 l -2.8277,0 l 0,5.65546 q 0,0.84743 0.4014,1.30236 q 0.4103,0.45494 1.1328,0.45494 z" style="font-size:18.26875496px;line-height:100%;text-align:center;text-anchor:middle;fill:#eef2fb;fill-opacity:1" id="path4434" inkscape:connector-curvature="0" />
        <path d="m 1341.1524,445.49315 l -1.6057,0 l 0,-9.79448 l 1.6057,0 l 0,9.79448 z m -1.7306,-12.44381 q 0,-0.53522 0.2676,-0.77606 q 0.2766,-0.24085 0.678,-0.24085 q 0.3746,0 0.6512,0.24085 q 0.2854,0.24084 0.2854,0.77606 q 0,0.5263 -0.2854,0.77607 q -0.2766,0.24976 -0.6512,0.24976 q -0.4014,0 -0.678,-0.24976 q -0.2676,-0.24977 -0.2676,-0.77607 z" style="font-size:18.26875496px;line-height:100%;text-align:center;text-anchor:middle;fill:#eef2fb;fill-opacity:1" id="path4436" inkscape:connector-curvature="0" />
        <path d="m 1352.7666,440.57807 q 0,2.39955 -1.2132,3.74652 q -1.2131,1.34696 -3.354,1.34696 q -1.3291,0 -2.355,-0.6155 q -1.0258,-0.62442 -1.5789,-1.78406 q -0.553,-1.15963 -0.553,-2.69392 q 0,-2.39064 1.1953,-3.71977 q 1.1953,-1.33804 3.354,-1.33804 q 2.0695,0 3.2827,1.36481 q 1.2221,1.35588 1.2221,3.693 z m -7.3949,0 q 0,1.8465 0.7225,2.80989 q 0.7315,0.95447 2.1498,0.95447 q 1.4005,0 2.1319,-0.95447 q 0.7315,-0.96339 0.7315,-2.80989 q 0,-1.8465 -0.7404,-2.77421 q -0.7314,-0.93664 -2.1498,-0.93664 q -2.8455,0 -2.8455,3.71085 z" style="font-size:18.26875496px;line-height:100%;text-align:center;text-anchor:middle;fill:#eef2fb;fill-opacity:1" id="path4438" inkscape:connector-curvature="0" />
        <path d="m 1361.9902,445.49315 l 0,-6.26205 q 0,-1.19532 -0.5353,-1.77514 q -0.5263,-0.58874 -1.6591,-0.58874 q -1.5076,0 -2.1944,0.83851 q -0.678,0.82959 -0.678,2.71177 l 0,5.07565 l -1.6056,0 l 0,-9.79448 l 1.2934,0 l 0.2409,1.33804 l 0.089,0 q 0.4549,-0.72254 1.2756,-1.11504 q 0.8206,-0.40141 1.8108,-0.40141 q 1.8019,0 2.6761,0.87419 q 0.8742,0.87419 0.8742,2.72069 l 0,6.37801 l -1.5878,0 z" style="font-size:18.26875496px;line-height:100%;text-align:center;text-anchor:middle;fill:#eef2fb;fill-opacity:1" id="path4440" inkscape:connector-curvature="0" />
        <path d="m 1373.0067,442.7903 q 0,1.37372 -1.0258,2.13195 q -1.0258,0.7493 -2.8812,0.7493 q -1.9358,0 -3.0775,-0.6155 l 0,-1.46293 q 1.6145,0.78499 3.1131,0.78499 q 1.2132,0 1.7662,-0.39249 q 0.5531,-0.3925 0.5531,-1.0526 q 0,-0.57982 -0.5352,-0.98123 q -0.5263,-0.40141 -1.8822,-0.91879 q -1.3826,-0.53522 -1.9446,-0.90987 q -0.562,-0.38357 -0.8296,-0.85635 q -0.2587,-0.47277 -0.2587,-1.15071 q 0,-1.20424 0.9812,-1.90003 q 0.9813,-0.69578 2.694,-0.69578 q 1.6681,0 3.1221,0.6601 l -0.5442,1.2756 q -1.4897,-0.62442 -2.685,-0.62442 q -0.999,0 -1.5164,0.32113 q -0.5174,0.31221 -0.5174,0.86527 q 0,0.53522 0.446,0.89203 q 0.446,0.34789 2.0784,0.97231 q 1.2221,0.45494 1.8019,0.84743 q 0.5888,0.39249 0.8653,0.88311 q 0.2765,0.49062 0.2765,1.17748 z" style="font-size:18.26875496px;line-height:100%;text-align:center;text-anchor:middle;fill:#eef2fb;fill-opacity:1" id="path4442" inkscape:connector-curvature="0" />
        <path d="m 1375.1298,444.50299 q 0,-0.58874 0.2854,-0.90095 q 0.2944,-0.32113 0.8296,-0.32113 q 0.5441,0 0.8474,0.32113 q 0.3033,0.31221 0.3033,0.90095 q 0,0.57982 -0.3033,0.91879 q -0.3033,0.33005 -0.8474,0.33005 q -0.5263,0 -0.8207,-0.33005 q -0.2943,-0.33005 -0.2943,-0.91879 z" style="font-size:18.26875496px;line-height:100%;text-align:center;text-anchor:middle;fill:#eef2fb;fill-opacity:1" id="path4444" inkscape:connector-curvature="0" />
      </g>
    </g>
  </g>
</svg>
