<?xml version="1.0" encoding="UTF-8" standalone="no"?>
<svg
   xmlns:dc="http://purl.org/dc/elements/1.1/"
   xmlns:cc="http://creativecommons.org/ns#"
   xmlns:rdf="http://www.w3.org/1999/02/22-rdf-syntax-ns#"
   xmlns:svg="http://www.w3.org/2000/svg"
   xmlns="http://www.w3.org/2000/svg"
   xmlns:sodipodi="http://sodipodi.sourceforge.net/DTD/sodipodi-0.dtd"
   xmlns:inkscape="http://www.inkscape.org/namespaces/inkscape"
   width="257.13782mm"
   height="40.078106mm"
   viewBox="0 0 911.11825 142.00904"
   id="svg2"
   version="1.1"
   inkscape:version="0.91 r13725"
   sodipodi:docname="logo-light-plain.svg">
  <sodipodi:namedview
     pagecolor="#ffffff"
     bordercolor="#666666"
     borderopacity="1"
     objecttolerance="10"
     gridtolerance="10"
     guidetolerance="10"
     inkscape:pageopacity="0"
     inkscape:pageshadow="2"
     inkscape:window-width="1366"
     inkscape:window-height="746"
     id="namedview4253"
     showgrid="false"
     inkscape:zoom="0.99877266"
     inkscape:cx="455.55913"
     inkscape:cy="71.004518"
     inkscape:window-x="0"
     inkscape:window-y="22"
     inkscape:window-maximized="1"
     inkscape:current-layer="svg2" />
  <defs
     id="defs4" />
  <metadata
     id="metadata7">
    <rdf:RDF>
      <cc:Work
         rdf:about="">
        <dc:format>image/svg+xml</dc:format>
        <dc:type
           rdf:resource="http://purl.org/dc/dcmitype/StillImage" />
        <dc:title />
      </cc:Work>
    </rdf:RDF>
  </metadata>
  <g
     id="layer1"
     transform="translate(-68.431704,-204.05414)">
    <g
       id="g4374"
       transform="translate(6.064516,4.9997437)" />
    <g
       style="font-style:normal;font-variant:normal;font-weight:normal;font-stretch:normal;font-size:37.5px;line-height:7.00000003%;font-family:'Russo One';-inkscape-font-specification:'Russo One';letter-spacing:0px;word-spacing:0px;fill:#ffffff;fill-opacity:1;stroke:none;stroke-width:1px;stroke-linecap:butt;stroke-linejoin:miter;stroke-opacity:1"
       id="text4317">
      <path
         d="m 233.07143,248.43365 31.5,0 q 7.875,0 11.4,3.6 3.6,3.525 3.6,11.4 l 0,7.5 q 0,7.875 -3.6,11.475 -3.525,3.525 -11.4,3.525 l -18,0 0,15 -13.5,0 0,-52.5 z m 33,15 q 0,-4.5 -4.5,-4.5 l -15,0 0,16.5 15,0 q 4.5,0 4.5,-4.5 l 0,-7.5 z"
         style="font-style:normal;font-variant:normal;font-weight:normal;font-stretch:normal;font-size:75px;font-family:'Russo One';-inkscape-font-specification:'Russo One';fill:#ffffff;fill-opacity:1"
         id="path4256" />
      <path
         d="m 291.22572,300.93365 -14.625,0 19.875,-52.5 15,0 19.875,52.5 -14.625,0 -3.375,-9.375 -18.75,0 -3.375,9.375 z m 6.75,-19.125 12,0 -6,-17.625 -6,17.625 z"
         style="font-style:normal;font-variant:normal;font-weight:normal;font-stretch:normal;font-size:75px;font-family:'Russo One';-inkscape-font-specification:'Russo One';fill:#ffffff;fill-opacity:1"
         id="path4258" />
      <path
         d="m 335.17104,248.43365 31.5,0 q 7.875,0 11.4,3.6 3.6,3.525 3.6,11.4 l 0,6.75 q 0,6.225 -2.1,9.675 -2.025,3.45 -6.525,4.575 l 9.375,16.5 -14.625,0 -8.625,-15.75 -10.5,0 0,15.75 -13.5,0 0,-52.5 z m 33,15 q 0,-4.5 -4.5,-4.5 l -15,0 0,15.75 15,0 q 4.5,0 4.5,-4.5 l 0,-6.75 z"
         style="font-style:normal;font-variant:normal;font-weight:normal;font-stretch:normal;font-size:75px;font-family:'Russo One';-inkscape-font-specification:'Russo One';fill:#ffffff;fill-opacity:1"
         id="path4260" />
      <path
         d="m 414.72377,300.93365 -13.5,0 0,-42 -15.75,0 0,-10.5 45,0 0,10.5 -15.75,0 0,42 z"
         style="font-style:normal;font-variant:normal;font-weight:normal;font-stretch:normal;font-size:75px;font-family:'Russo One';-inkscape-font-specification:'Russo One';fill:#ffffff;fill-opacity:1"
         id="path4262" />
      <path
         d="m 460.40932,300.93365 -27,0 0,-10.5 6.75,0 0,-31.5 -6.75,0 0,-10.5 27,0 0,10.5 -6.75,0 0,31.5 6.75,0 0,10.5 z"
         style="font-style:normal;font-variant:normal;font-weight:normal;font-stretch:normal;font-size:75px;font-family:'Russo One';-inkscape-font-specification:'Russo One';fill:#ffffff;fill-opacity:1"
         id="path4264" />
      <path
         d="m 507.65346,300.18365 q -16.725,1.5 -27.75,1.5 -7.35,0 -10.8,-3.45 -3.45,-3.45 -3.45,-10.8 l 0,-24 q 0,-7.875 3.525,-11.4 3.6,-3.6 11.475,-3.6 l 27,0 0,10.5 -24,0 q -4.5,0 -4.5,4.5 l 0,24 q 0,1.725 0.975,2.775 1.05,0.975 2.625,0.975 1.575,0 3.45,0 1.875,-0.075 3.9,-0.15 2.025,-0.075 4.05,-0.15 2.1,-0.075 5.325,-0.3 3.3,-0.225 8.175,-0.525 l 0,10.125 z"
         style="font-style:normal;font-variant:normal;font-weight:normal;font-stretch:normal;font-size:75px;font-family:'Russo One';-inkscape-font-specification:'Russo One';fill:#ffffff;fill-opacity:1"
         id="path4266" />
      <path
         d="m 527.089,290.43365 27.375,0 0,10.5 -40.875,0 0,-52.5 13.5,0 0,42 z"
         style="font-style:normal;font-variant:normal;font-weight:normal;font-stretch:normal;font-size:75px;font-family:'Russo One';-inkscape-font-specification:'Russo One';fill:#ffffff;fill-opacity:1"
         id="path4268" />
      <path
         d="m 601.35658,300.93365 -41.625,0 0,-52.5 41.625,0 0,10.5 -28.125,0 0,10.125 22.125,0 0,10.5 -22.125,0 0,10.875 28.125,0 0,10.5 z"
         style="font-style:normal;font-variant:normal;font-weight:normal;font-stretch:normal;font-size:75px;font-family:'Russo One';-inkscape-font-specification:'Russo One';fill:#ffffff;fill-opacity:1"
         id="path4270" />
      <path
         d="m 628.3226,290.05865 q 20.55,1.125 27.825,1.125 1.725,0 2.7,-0.975 1.05,-1.05 1.05,-2.775 l 0,-6.75 -17.25,0 q -7.875,0 -11.475,-3.525 -3.525,-3.6 -3.525,-11.475 l 0,-2.25 q 0,-7.875 3.525,-11.4 3.6,-3.6 11.475,-3.6 l 26.325,0 0,10.5 -23.325,0 q -4.5,0 -4.5,4.5 l 0,1.5 q 0,4.5 4.5,4.5 l 13.5,0 q 7.35,0 10.8,3.45 3.45,3.45 3.45,10.8 l 0,3.75 q 0,7.35 -3.45,10.8 -3.45,3.45 -10.8,3.45 -3.825,0 -8.1,-0.15 l -6.9,-0.3 q -7.65,-0.375 -15.825,-1.05 l 0,-10.125 z"
         style="font-style:normal;font-variant:normal;font-weight:normal;font-stretch:normal;font-size:75px;font-family:'Russo One';-inkscape-font-specification:'Russo One';fill:#ffffff;fill-opacity:1"
         id="path4272" />
      <path
         d="m 671.94447,248.43365 14.25,0 12.375,25.5 12.375,-25.5 14.25,0 -19.875,38.625 0,13.875 -13.5,0 0,-13.875 -19.875,-38.625 z"
         style="font-style:normal;font-variant:normal;font-weight:normal;font-stretch:normal;font-size:75px;font-family:'Russo One';-inkscape-font-specification:'Russo One';fill:#ffffff;fill-opacity:1"
         id="path4274" />
      <path
         d="m 726.46713,290.05865 q 20.55,1.125 27.825,1.125 1.725,0 2.7,-0.975 1.05,-1.05 1.05,-2.775 l 0,-6.75 -17.25,0 q -7.875,0 -11.475,-3.525 -3.525,-3.6 -3.525,-11.475 l 0,-2.25 q 0,-7.875 3.525,-11.4 3.6,-3.6 11.475,-3.6 l 26.325,0 0,10.5 -23.325,0 q -4.5,0 -4.5,4.5 l 0,1.5 q 0,4.5 4.5,4.5 l 13.5,0 q 7.35,0 10.8,3.45 3.45,3.45 3.45,10.8 l 0,3.75 q 0,7.35 -3.45,10.8 -3.45,3.45 -10.8,3.45 -3.825,0 -8.1,-0.15 l -6.9,-0.3 q -7.65,-0.375 -15.825,-1.05 l 0,-10.125 z"
         style="font-style:normal;font-variant:normal;font-weight:normal;font-stretch:normal;font-size:75px;font-family:'Russo One';-inkscape-font-specification:'Russo One';fill:#ffffff;fill-opacity:1"
         id="path4276" />
      <path
         d="m 799.97768,300.93365 -13.5,0 0,-42 -15.75,0 0,-10.5 45,0 0,10.5 -15.75,0 0,42 z"
         style="font-style:normal;font-variant:normal;font-weight:normal;font-stretch:normal;font-size:75px;font-family:'Russo One';-inkscape-font-specification:'Russo One';fill:#ffffff;fill-opacity:1"
         id="path4278" />
      <path
         d="m 862.53822,300.93365 -41.625,0 0,-52.5 41.625,0 0,10.5 -28.125,0 0,10.125 22.125,0 0,10.5 -22.125,0 0,10.875 28.125,0 0,10.5 z"
         style="font-style:normal;font-variant:normal;font-weight:normal;font-stretch:normal;font-size:75px;font-family:'Russo One';-inkscape-font-specification:'Russo One';fill:#ffffff;fill-opacity:1"
         id="path4280" />
      <path
         d="m 913.52065,271.68365 -10.5,18.75 -10.5,0 -10.5,-18.75 0,29.25 -13.5,0 0,-52.5 14.25,0 15,27.75 15,-27.75 14.25,0 0,52.5 -13.5,0 0,-29.25 z"
         style="font-style:normal;font-variant:normal;font-weight:normal;font-stretch:normal;font-size:75px;font-family:'Russo One';-inkscape-font-specification:'Russo One';fill:#ffffff;fill-opacity:1"
         id="path4283" />
      <path
         d="m 934.47494,290.05865 q 20.55,1.125 27.825,1.125 1.725,0 2.7,-0.975 1.05,-1.05 1.05,-2.775 l 0,-6.75 -17.25,0 q -7.875,0 -11.475,-3.525 -3.525,-3.6 -3.525,-11.475 l 0,-2.25 q 0,-7.875 3.525,-11.4 3.6,-3.6 11.475,-3.6 l 26.325,0 0,10.5 -23.325,0 q -4.5,0 -4.5,4.5 l 0,1.5 q 0,4.5 4.5,4.5 l 13.5,0 q 7.35,0 10.8,3.45 3.45,3.45 3.45,10.8 l 0,3.75 q 0,7.35 -3.45,10.8 -3.45,3.45 -10.8,3.45 -3.825,0 -8.1,-0.15 l -6.9,-0.3 q -7.65,-0.375 -15.825,-1.05 l 0,-10.125 z"
         style="font-style:normal;font-variant:normal;font-weight:normal;font-stretch:normal;font-size:75px;font-family:'Russo One';-inkscape-font-specification:'Russo One';fill:#ffffff;fill-opacity:1"
         id="path4285" />
    </g>
  </g>
  <g
     id="layer3"
     style="display:inline"
     transform="translate(-68.431704,-204.05414)">
    <g
       id="g4475"
       transform="translate(0,11.982244)">
      <g
         id="g4411">
        <path
           id="path4282"
           transform="translate(68.431704,192.0719)"
           d="M 130.03516 0.0078125 C 122.44363 0.2554125 115.04733 6.2828412 117.19531 15.332031 C 119.24941 23.985731 114.4469 24.353926 110.57227 23.416016 C 103.63032 18.583856 95.376129 15.991258 86.917969 15.986328 C 64.027859 15.986988 45.472236 34.543484 45.472656 57.433594 C 45.489556 59.189984 45.618052 60.943514 45.857422 62.683594 C 45.861422 62.717494 45.865441 62.751296 45.869141 62.785156 C 46.197221 66.096356 46.941886 69.548267 48.160156 73.123047 C 51.936276 84.203357 51.46675 90.294945 43.9375 95.046875 C 41.11117 96.830655 38.118942 97.987228 34 97.423828 C 23.22234 95.949618 17.837889 96.540048 13.375 98.835938 C -3.611202 107.57433 -2.947361 131.98073 14.5 140.21875 C 20.76313 143.17598 30.632776 142.38331 36.191406 138.47656 C 45.080882 132.2288 47.34853 124.99869 45.9375 112.51367 C 45.08451 104.96626 45.592516 103.60668 47.322266 100.07617 C 53.024286 92.018772 59.114084 91.648959 68.683594 95.443359 C 74.995264 98.107849 81.282269 98.823626 86.917969 98.878906 C 109.80807 98.879316 128.36456 80.323694 128.36523 57.433594 C 128.34713 48.869614 125.0027 40.953749 120.7207 33.537109 C 117.71285 28.327359 120.91806 25.056717 126.76367 26.623047 C 141.06 30.369707 148.47476 14.428394 140.78125 4.7714844 C 138.0425 1.3337944 134.01167 -0.1218875 130.03516 0.0078125 z M 86.9375 26.640625 A 30.959391 30.959391 0 0 1 117.89648 57.599609 A 30.959391 30.959391 0 0 1 86.9375 88.558594 A 30.959391 30.959391 0 0 1 55.978516 57.599609 A 30.959391 30.959391 0 0 1 86.9375 26.640625 z "
           style="fill:#0088c9;fill-opacity:1" />
        <path
           id="path4282-6"
           d="m 231.33404,195.93909 c -5.25229,-4.6e-4 -9.51022,4.25748 -9.50976,9.50977 6.2e-4,5.25152 4.25824,9.50827 9.50976,9.50781 5.25077,-6.1e-4 9.50719,-4.25704 9.50781,-9.50781 4.6e-4,-5.25153 -4.25628,-9.50916 -9.50781,-9.50977 z M 87.003974,210.40394 c -2.08374,-9e-5 -4.08897,0.34373 -5.95899,0.97656 -7.33465,2.4821 -12.61279,9.42087 -12.61328,17.59375 -4.6e-4,10.25737 8.3149,18.57272 18.57227,18.57226 10.2566,-6.2e-4 18.570766,-8.31566 18.570306,-18.57226 -6.1e-4,-10.25584 -8.314466,-18.56969 -18.570306,-18.57031 z m 42.142576,78.92773 c -5.72031,-1.5e-4 -10.35757,4.63711 -10.35742,10.35742 -1.5e-4,5.72031 4.63711,10.35757 10.35742,10.35742 5.72031,1.6e-4 10.35757,-4.63711 10.35742,-10.35742 1.5e-4,-5.72031 -4.63711,-10.35758 -10.35742,-10.35742 z"
           style="fill:#ffffff;fill-opacity:1" />
      </g>
    </g>
  </g>
</svg>
