<?xml version="1.0" encoding="UTF-8" standalone="no"?>
<!-- Generator: Adobe Illustrator 21.0.2, SVG Export Plug-In . SVG Version: 6.00 Build 0)  -->

<svg
   xmlns:dc="http://purl.org/dc/elements/1.1/"
   xmlns:cc="http://creativecommons.org/ns#"
   xmlns:rdf="http://www.w3.org/1999/02/22-rdf-syntax-ns#"
   xmlns:svg="http://www.w3.org/2000/svg"
   xmlns="http://www.w3.org/2000/svg"
   xmlns:sodipodi="http://sodipodi.sourceforge.net/DTD/sodipodi-0.dtd"
   xmlns:inkscape="http://www.inkscape.org/namespaces/inkscape"
   version="1.1"
   id="Layer_1"
   x="0px"
   y="0px"
   viewBox="0 0 250 250"
   style="enable-background:new 0 0 250 250;"
   xml:space="preserve"
   inkscape:version="0.91 r13725"
   sodipodi:docname="digital-transformation.svg"><metadata
     id="metadata19"><rdf:RDF><cc:Work
         rdf:about=""><dc:format>image/svg+xml</dc:format><dc:type
           rdf:resource="http://purl.org/dc/dcmitype/StillImage" /></cc:Work></rdf:RDF></metadata><defs
     id="defs17" /><sodipodi:namedview
     pagecolor="#ffffff"
     bordercolor="#666666"
     borderopacity="1"
     objecttolerance="10"
     gridtolerance="10"
     guidetolerance="10"
     inkscape:pageopacity="0"
     inkscape:pageshadow="2"
     inkscape:window-width="1366"
     inkscape:window-height="722"
     id="namedview15"
     showgrid="false"
     inkscape:zoom="1.28"
     inkscape:cx="121.87121"
     inkscape:cy="49.775845"
     inkscape:window-x="0"
     inkscape:window-y="22"
     inkscape:window-maximized="1"
     inkscape:current-layer="g5" /><style
     type="text/css"
     id="style3">
	.st0{fill:#008EAA;}
	.st1{fill:#444444;}
</style><g
     id="g5"><path
       class="st0"
       d="M199.8,42.1l-1-0.9l0.5-1.3c0.6-1.5,0.9-3,0.9-4.5c0-6.6-5.4-11.9-11.9-11.9s-11.9,5.4-11.9,11.9   s5.4,11.9,11.9,11.9c2.8,0,5.4-0.9,7.4-2.7l1.4-1.2l1.3,1.2c21.4,20.4,33.7,48.7,33.7,77.8c0,41.3-24.3,79.2-61.8,96.6   c-13.6,6.3-27.5,9.6-41.2,9.9l-2,0.1v-10.5h-3V232h1.5c15.9,0,31.3-3.3,45.8-9.9c38.7-18.1,63.7-57.2,63.7-99.6   C235,92.1,222.2,62.8,199.8,42.1z M188.2,44.4c-4.9,0-9-4-9-9s4-9,9-9s9,4,9,9S193.2,44.4,188.2,44.4z"
       id="path7" /><path
       class="st0"
       d="M62.8,197.7c-2.8,0-5.4,0.9-7.4,2.7l-1.4,1.2l-1.3-1.2C31.3,179.9,19,151.6,19,122.5   c0-41.3,24.3-79.2,61.8-96.6c13.6-6.3,27.5-9.6,41.2-9.9l2-0.1v10.5h3V13h-1.5c-15.9,0-31.3,3.3-45.8,9.9C41,41.1,16,80.1,16,122.5   c0,30.4,12.8,59.7,35.2,80.4l1,0.9l-0.5,1.3c-0.6,1.5-0.9,3-0.9,4.5c0,6.6,5.4,11.9,11.9,11.9s11.9-5.4,11.9-11.9   S69.4,197.7,62.8,197.7z M62.8,218.6c-4.9,0-9-4-9-9s4-9,9-9s9,4,9,9S67.7,218.6,62.8,218.6z"
       id="path9" /><path
       class="st1"
       d="M40.4,122.5c0,46.9,38.2,85.1,85.1,85.1s85.1-38.2,85.1-85.1s-38.2-85.1-85.1-85.1S40.4,75.6,40.4,122.5z    M124,40.3v39l-2.1-0.1c-9.7-0.4-18.6-2.3-26.5-5.7l-1.8-0.8l0.7-1.8c6.6-17,16.6-27.9,27.2-30.1L124,40.3z M74.4,58.2   c8.4-6.6,18.2-11.7,29.2-15l7.1-2.1l-5.1,5.4C99.9,52.7,95,60.7,91.5,69.6l-0.8,2l-2-1c-4.4-2.2-8.8-5.1-14.3-9.3l-2-1.6L74.4,58.2   z M43.4,118.9c1-21.3,10.2-41.3,25.7-56.1l1.3-1.2l1.4,1.1c5.9,4.7,11.2,8.1,16.3,10.6l1.6,0.8l-0.6,1.7   c-4.2,12.5-6.5,27.4-6.9,43.3l0,2H43.3L43.4,118.9z M70.3,183.3l-1.3-1.2c-15.5-14.8-24.7-34.7-25.7-56.1l-0.1-2.1h38.9l0,2   c0.3,15.5,2.7,30.5,6.9,43.3l0.5,1.7l-1.6,0.8c-5.1,2.4-10.5,5.9-16.3,10.6L70.3,183.3z M103.7,201.4c-10.6-2.8-20.8-7.9-29.3-14.7   l-1.9-1.5l1.9-1.6c4.2-3.5,9.2-6.7,14.3-9.3l2-1l0.8,2c3.6,9.1,8.5,17,14.2,22.7l5.3,5.3L103.7,201.4z M124,204.7l-2.4-0.5   c-10.7-2.2-20.6-13.2-27.2-30.2l-0.7-1.9l1.9-0.7c9.2-3.4,18.1-5.4,26.4-5.7l2.1-0.1V204.7z M127,204.7v-39l2.1,0.1   c9.7,0.4,18.6,2.3,26.5,5.7l1.8,0.8l-0.7,1.8c-6.6,17-16.6,27.9-27.2,30.2L127,204.7z M176.6,186.8c-8.4,6.6-18.2,11.7-29.2,15   l-7.1,2.1l5.1-5.4c5.8-6.2,10.7-14.1,14.2-23.1l0.8-2l2,1c4.4,2.2,8.8,5.1,14.3,9.3l2,1.6L176.6,186.8z M207.6,126.1   c-1,21.3-10.2,41.3-25.7,56.1l-1.3,1.2l-1.4-1.1c-5.9-4.7-11.2-8.1-16.3-10.6l-1.6-0.8l0.6-1.7c4.2-12.5,6.5-27.4,6.9-43.3l0-2   h38.9L207.6,126.1z M180.7,61.7l1.3,1.2c15.5,14.8,24.7,34.7,25.7,56.1l0.1,2.1h-38.9l0-2c-0.3-15.5-2.7-30.5-6.9-43.3l-0.5-1.7   l1.6-0.8c5.1-2.4,10.5-5.9,16.3-10.6L180.7,61.7z M147.3,43.6c10.6,2.8,20.8,7.9,29.3,14.7l1.9,1.5l-1.9,1.6   c-4.2,3.5-9.2,6.7-14.3,9.3l-2,1l-0.8-2c-3.6-9.1-8.5-17-14.2-22.7l-5.3-5.3L147.3,43.6z M127,40.3l2.4,0.5   c10.7,2.2,20.6,13.2,27.2,30.1l0.7,1.9l-1.9,0.7c-7.8,3-16.6,5-26.4,5.7l-2.2,0.2V40.3z M128.9,82.2c9.2-0.3,18.4-2.3,27.6-5.8   l2-0.8l0.7,2c4.1,12.5,6.4,26.8,6.7,41.3l0,2H157v3h8.9l0,2c-0.3,14.5-2.7,28.8-6.7,41.3l-0.7,2l-2-0.8c-9.1-3.5-18.4-5.5-27.6-5.8   l-1.9-0.1V154h-3v8.8l-1.9,0.1c-9.2,0.3-18.4,2.3-27.6,5.8l-2,0.8l-0.6-2c-4.1-12.5-6.4-26.8-6.7-41.3l0-2H95v-3h-9.9l0-2   c0.3-14.5,2.7-28.8,6.7-41.3l0.6-2l2,0.8c9.1,3.5,18.4,5.5,27.6,5.8l1.9,0.1V89h3v-6.8L128.9,82.2z"
       id="path11"
       style="fill:none;stroke:#ffffff;stroke-opacity:1;stroke-width:1;stroke-miterlimit:4;stroke-dasharray:3, 1;stroke-dashoffset:0;fill-opacity:1" /></g><path
     class="st0"
     d="M107.2,139.5c-2.4,0-4.3-2.2-4.3-4.9v-21.8c0-2.7,1.9-4.9,4.3-4.9h10.1v-7.2c0-0.6,0.5-1.1,1.1-1.1h15.4  c0.6,0,1.1,0.5,1.1,1.1v7.2H145c2.4,0,4.3,2.2,4.3,4.9v21.8c0,2.7-1.9,4.9-4.3,4.9H107.2z M134.9,137.3H145c1.2,0,2.1-1.2,2.1-2.7  v-21.8c0-1.5-0.9-2.7-2.1-2.7h-10.1V137.3z M119.4,137.3h13.2V110h-13.2V137.3z M107.2,110c-1.2,0-2.1,1.2-2.1,2.7v21.8  c0,1.5,0.9,2.7,2.1,2.7h10.1V110H107.2z M119.4,107.8h13.2v-6.1h-13.2V107.8z"
     id="path13" /></svg>