<?xml version="1.0" encoding="UTF-8" standalone="no"?>
<svg
   xmlns:dc="http://purl.org/dc/elements/1.1/"
   xmlns:cc="http://creativecommons.org/ns#"
   xmlns:rdf="http://www.w3.org/1999/02/22-rdf-syntax-ns#"
   xmlns:svg="http://www.w3.org/2000/svg"
   xmlns="http://www.w3.org/2000/svg"
   xmlns:sodipodi="http://sodipodi.sourceforge.net/DTD/sodipodi-0.dtd"
   xmlns:inkscape="http://www.inkscape.org/namespaces/inkscape"
   width="475"
   height="278"
   viewBox="0 0 475 278"
   fill="none"
   id="svg2"
   version="1.1"
   inkscape:version="0.91 r13725"
   sodipodi:docname="workflow automation.svg">
  <metadata
     id="metadata128">
    <rdf:RDF>
      <cc:Work
         rdf:about="">
        <dc:format>image/svg+xml</dc:format>
        <dc:type
           rdf:resource="http://purl.org/dc/dcmitype/StillImage" />
      </cc:Work>
    </rdf:RDF>
  </metadata>
  <defs
     id="defs126" />
  <sodipodi:namedview
     pagecolor="#ffffff"
     bordercolor="#666666"
     borderopacity="1"
     objecttolerance="10"
     gridtolerance="10"
     guidetolerance="10"
     inkscape:pageopacity="0"
     inkscape:pageshadow="2"
     inkscape:window-width="1366"
     inkscape:window-height="722"
     id="namedview124"
     showgrid="false"
     inkscape:zoom="0.96166522"
     inkscape:cx="-138.48555"
     inkscape:cy="109.22867"
     inkscape:window-x="0"
     inkscape:window-y="22"
     inkscape:window-maximized="1"
     inkscape:current-layer="svg2" />
  <path
     d="M0 0V20"
     stroke-miterlimit="10"
     id="path4"
     stroke-linejoin="round"
     stroke-width="1.20873"
     stroke="#29AEF6"
     opacity="0.2"
     transform="translate(349.5 5)" />
  <path
     d="m 152.036,151.437 -1.045,-0.607 z m -126.0555,72.201 0.608,-1.045 z m 0.2534,-145.4131 1.0454,0.6068 z M 147.923,2.48993 c -1.138,-0.48248 -2.295,-0.91649 -3.468,-1.30276 l -0.756,2.29626 c 1.111,0.3656 2.205,0.77614 3.281,1.23226 z m -7.029,-2.316901 c -1.194,-0.288912 -2.403,-0.53168 -3.626,-0.729088 l -0.385,2.386569 c 1.162,0.18767 2.31,0.41821 3.443,0.69219 z m -7.293,-1.182359 c -1.217,-0.1057 -2.446,-0.16907 -3.686,-0.19084 l -0.042,2.41709 c 1.185,0.02082 2.358,0.08137 3.519,0.18215 z m -7.372,-0.13516 c -1.216,0.05721 -2.44,0.152475 -3.673,0.285115 l 0.259,2.403575 c 1.186,-0.12758 2.362,-0.21903 3.527,-0.2739 z m -7.312,0.781248 c -1.194,0.196407 -2.394,0.4264805 -3.599,0.689644 l 0.515,2.361848 c 1.166,-0.25449 2.325,-0.47666 3.477,-0.66611 z m -7.156,1.557582 c -1.167,0.31423 -2.338,0.65842 -3.512,1.0321 l 0.733,2.30367 c 1.141,-0.36298 2.277,-0.69694 3.407,-1.00151 z m -6.976,2.21569 c -1.136,0.41458 -2.275,0.856 -3.415,1.32385 l 0.917,2.23661 c 1.112,-0.45611 2.221,-0.88607 3.327,-1.28955 z m -13.2941,6.0077 c -1.0635,0.57153 -2.1271,1.16477 -3.1905,1.77947 l 1.2098,2.0929 c 1.0421,-0.6024 2.084,-1.1834 3.1251,-1.743 z M 85.177,13.0646 c -1.0227,0.6319 -2.0447,1.2833 -3.0655,1.9539 l 1.3275,2.0204 c 1.0023,-0.6585 2.0053,-1.2978 3.0086,-1.9176 z m -6.0836,3.9955 c -0.9898,0.6888 -1.978,1.3956 -2.9642,2.1201 l 1.4313,1.9482 c 0.9698,-0.7124 1.9412,-1.4072 2.9138,-2.084 z m -5.8609,4.3035 c -0.9531,0.7367 -1.9039,1.4899 -2.852,2.2592 L 71.9037,25.5 c 0.9336,-0.7575 1.8694,-1.4988 2.8072,-2.2237 z m -5.6538,4.5867 c -0.9147,0.7775 -1.8266,1.5702 -2.7352,2.3777 l 1.6058,1.807 c 0.8956,-0.7959 1.794,-1.5769 2.6951,-2.3428 z m -5.4275,4.8226 c -0.8834,0.8196 -1.7633,1.6531 -2.6394,2.5005 l 1.6807,1.7377 c 0.8642,-0.8359 1.7319,-1.6579 2.6028,-2.4659 z m -5.2193,5.047 c -0.85,0.856 -1.6961,1.7252 -2.5379,2.6072 l 1.7488,1.6691 c 0.8309,-0.8706 1.6659,-1.7283 2.5046,-2.573 z m -5.0162,5.2546 c -0.8141,0.8865 -1.6238,1.7852 -2.4289,2.6959 l 1.8112,1.6012 c 0.795,-0.8993 1.5946,-1.7867 2.3983,-2.662 z m -4.8133,5.4441 c -0.7787,0.9145 -1.5527,1.8403 -2.3217,2.7773 l 1.8687,1.5337 c 0.7598,-0.9257 1.5244,-1.8403 2.2936,-2.7437 z m -4.6023,5.6076 c -0.7466,0.9437 -1.4881,1.898 -2.2242,2.8628 l 1.922,1.4664 c 0.7275,-0.9536 1.4603,-1.8968 2.1981,-2.8293 z m -4.3994,5.7659 c -0.7149,0.9717 -1.4243,1.9533 -2.128,2.9449 l 1.9714,1.3991 c 0.6957,-0.9803 1.3971,-1.9508 2.1038,-2.9112 z m -4.1988,5.9158 c -0.6822,0.9965 -1.3585,2.0025 -2.0288,3.0179 l 2.0175,1.3318 c 0.6628,-1.004 1.3316,-1.9988 2.0061,-2.9842 z m -3.9975,6.0547 c -0.6478,1.0176 -1.2894,2.0441 -1.9248,3.0794 l 2.0605,1.2644 c 0.6284,-1.024 1.263,-2.0392 1.9036,-3.0456 z m -3.7952,6.184 c -0.3085,0.5218 -0.6154,1.0456 -0.9207,1.5716 l 2.0908,1.2135 c 0.302,-0.5202 0.6056,-1.0384 0.9107,-1.5545 z m -0.9207,1.5716 c -0.3055,0.5263 -0.6083,1.0529 -0.9085,1.58 l 2.1007,1.1964 c 0.2969,-0.5213 0.5964,-1.0423 0.8986,-1.5629 z m -2.6777,4.7461 c -0.5842,1.0659 -1.1577,2.1329 -1.7203,3.2009 l 2.1388,1.1268 c 0.5564,-1.0562 1.1236,-2.1115 1.7014,-3.1658 z m -3.3818,6.4188 c -0.5495,1.0863 -1.0879,2.1733 -1.6152,3.2607 l 2.1752,1.0548 c 0.5214,-1.0752 1.0538,-2.1501 1.5972,-3.2243 z m -3.1687,6.5347 c -0.5123,1.1035 -1.0131,2.2072 -1.5024,3.3106 l 2.2099,0.98 c 0.4837,-1.0907 0.9788,-2.1818 1.4852,-3.2728 z m -2.9452,6.6412 c -0.4729,1.119 -0.9341,2.237 -1.3834,3.354 l 2.2428,0.902 c 0.444,-1.104 0.8998,-2.209 1.3672,-3.314 z m -2.7106,6.74 c -0.43248,1.134 -0.85275,2.266 -1.26086,3.396 l 2.27386,0.821 c 0.4031,-1.117 0.8183,-2.235 1.2456,-3.355 z m -2.46521,6.832 c -0.39169,1.151 -0.77067,2.301 -1.13695,3.449 l 2.30297,0.735 c 0.36163,-1.133 0.73586,-2.268 1.12269,-3.406 z m -2.20719,6.916 c -0.3486,1.169 -0.68389,2.336 -1.00587,3.499 l 2.3299,0.645 c 0.3177,-1.148 0.64859,-2.3 0.99266,-3.454 z m -1.93818,7.005 c -0.3015,1.181 -0.58912,2.36 -0.86284,3.534 l 2.35434,0.549 c 0.26989,-1.158 0.55353,-2.32 0.85092,-3.486 z m -1.65131,7.087 c -0.25077,1.19 -0.48705,2.376 -0.70884,3.556 l 2.37592,0.447 c 0.21848,-1.164 0.4513,-2.332 0.69846,-3.505 z m -1.340958,7.146 c -0.198105,1.205 -0.380823,2.405 -0.548143,3.599 l 2.394061,0.336 c 0.16465,-1.175 0.3445,-2.356 0.53956,-3.543 z m -1.008335,7.2 c -0.140276,1.216 -0.264209,2.425 -0.371786,3.627 l 2.407839,0.216 c 0.10571,-1.181 0.22754,-2.37 0.36549,-3.566 z m -0.648809,7.263 c -0.076488,1.22 -0.135658,2.431 -0.177498,3.633 l 2.416,0.084 c 0.04105,-1.179 0.09912,-2.368 0.17422,-3.566 z m -0.251368,7.274 c -0.00683,1.229 0.00506,2.447 0.03567,3.655 L 1.2455,169.016 C 1.21553,167.833 1.20387,166.64 1.21056,165.435 Z m 0.18701,7.301 c 0.070974,1.225 0.161965,2.436 0.273003,3.635 l 2.407157,-0.223 c -0.10843,-1.17 -0.19735,-2.354 -0.26675,-3.551 z m 0.675402,7.263 c 0.158668,1.223 0.33923078,2.431 0.541728,3.624 l 2.38336,-0.404 c -0.19709,-1.161 -0.37301,-2.339 -0.52771,-3.531 z m 1.22935,7.222 c 0.257078,1.206 0.424183,1.82632 0.728853,2.99532 l 2.33942,-0.609 C 3.657825,188.46032 3.49899,187.876 3.24926,186.704 Z m 4.403078,13.968 c 0.49468,1.138 1.01786,2.25 1.56964,3.335 l 2.15499,-1.096 c -0.52928,-1.041 -1.0319,-2.109 -1.5078,-3.203 z m 3.34521,6.568 c 0.63226,1.068 1.29531,2.105 1.98921,3.112 l 1.9902,-1.373 c -0.6616,-0.959 -1.2948,-1.95 -1.8994,-2.971 z m 4.19701,6.077 c 0.7766,0.967 1.5856,1.899 2.4273,2.795 l 1.7619,-1.656 c -0.7982,-0.849 -1.5665,-1.734 -2.3048,-2.653 z m 5.0699,5.391 c 0.9162,0.83 1.8655,1.622 2.8478,2.373 l 1.4692,-1.919 c -0.9287,-0.711 -1.8267,-1.46 -2.6939,-2.246 z m 5.8847,4.502 c 0.5212,0.333 1.0504,0.656 1.5877,0.969 l 1.216,-2.09 c -0.508,-0.295 -1.0082,-0.601 -1.5008,-0.916 z m 1.5877,0.969 c 0.537,0.312 1.0791,0.613 1.6261,0.901 l 1.1269,-2.139 c -0.517,-0.272 -1.0294,-0.556 -1.537,-0.852 z m 4.9745,2.489 c 1.1382,0.483 2.2947,0.917 3.4682,1.303 l 0.7558,-2.296 c -1.1106,-0.366 -2.2045,-0.777 -3.2806,-1.233 z m 7.029,2.317 c 1.1941,0.289 2.4034,0.532 3.6264,0.729 l 0.3852,-2.386 c -1.1627,-0.188 -2.3107,-0.419 -3.4431,-0.693 z m 7.2934,1.182 c 1.2171,0.106 2.4461,0.169 3.6857,0.191 l 0.0425,-2.417 c -1.1854,-0.021 -2.3587,-0.081 -3.5191,-0.182 z m 7.372,0.136 c 1.2155,-0.058 2.4399,-0.153 3.6723,-0.286 l -0.2587,-2.403 c -1.1854,0.127 -2.3615,0.219 -3.5273,0.274 z m 7.3117,-0.782 c 1.1936,-0.196 2.3936,-0.426 3.5992,-0.689 l -0.5156,-2.362 c -1.1658,0.254 -2.3248,0.476 -3.4761,0.666 z m 7.1565,-1.557 c 1.1665,-0.315 2.3373,-0.659 3.5118,-1.032 l -0.733,-2.304 c -1.1408,0.363 -2.2769,0.697 -3.4076,1.001 z m 6.9758,-2.216 c 1.1358,-0.415 2.2743,-0.856 3.4148,-1.324 l -0.9174,-2.236 c -1.112,0.456 -2.221,0.886 -3.3263,1.289 z m 6.7633,-2.77 c 1.0956,-0.498 2.1926,-1.019 3.2904,-1.563 l -1.0743,-2.166 c -1.0734,0.533 -2.1452,1.042 -3.2151,1.527 z m 6.5306,-3.238 c 1.0634,-0.571 2.1271,-1.164 3.1904,-1.779 l -1.2098,-2.093 c -1.0421,0.602 -2.084,1.183 -3.1251,1.743 z m 6.3138,-3.647 c 1.0227,-0.631 2.0447,-1.283 3.0655,-1.953 l -1.3274,-2.021 c -1.0023,0.659 -2.0053,1.298 -3.0087,1.918 z m 6.0837,-3.995 c 0.9902,-0.689 1.9782,-1.396 2.9642,-2.12 l -1.431,-1.948 c -0.9701,0.712 -1.9415,1.407 -2.9142,2.084 z m 5.8612,-4.304 c 0.953,-0.736 1.904,-1.489 2.852,-2.259 l -1.524,-1.877 c -0.933,0.758 -1.869,1.499 -2.807,2.224 z m 5.653,-4.586 c 0.915,-0.778 1.827,-1.57 2.736,-2.378 l -1.606,-1.807 c -0.896,0.796 -1.794,1.577 -2.695,2.343 z m 5.428,-4.823 c 0.883,-0.819 1.763,-1.653 2.639,-2.5 l -1.68,-1.738 c -0.865,0.836 -1.732,1.658 -2.603,2.466 z m 5.219,-5.047 c 0.85,-0.856 1.696,-1.725 2.538,-2.607 l -1.749,-1.669 c -0.831,0.87 -1.666,1.728 -2.504,2.573 z m 5.016,-5.254 c 0.815,-0.887 1.624,-1.786 2.429,-2.696 l -1.811,-1.602 c -0.795,0.9 -1.594,1.787 -2.398,2.662 z m 4.814,-5.445 c 0.778,-0.914 1.552,-1.84 2.321,-2.777 l -1.868,-1.534 c -0.76,0.926 -1.525,1.841 -2.294,2.744 z m 4.602,-5.607 c 0.747,-0.944 1.488,-1.898 2.224,-2.863 l -1.922,-1.466 c -0.727,0.953 -1.46,1.896 -2.198,2.829 z m 4.399,-5.766 c 0.715,-0.972 1.425,-1.953 2.129,-2.945 l -1.972,-1.399 c -0.696,0.98 -1.397,1.951 -2.104,2.911 z m 4.199,-5.916 c 0.682,-0.996 1.359,-2.002 2.029,-3.018 l -2.017,-1.332 c -0.663,1.004 -1.332,1.999 -2.007,2.985 z m 3.998,-6.055 c 0.648,-1.017 1.289,-2.044 1.925,-3.079 l -2.061,-1.264 c -0.628,1.024 -1.263,2.039 -1.904,3.045 z m 3.795,-6.184 c 0.308,-0.521 0.615,-1.045 0.921,-1.571 l -2.091,-1.214 c -0.302,0.521 -0.606,1.039 -0.911,1.555 z m 0.921,-1.571 c 0.305,-0.526 0.608,-1.053 0.908,-1.58 l -2.101,-1.197 c -0.296,0.522 -0.596,1.043 -0.898,1.563 z m 2.677,-4.746 c 0.585,-1.066 1.158,-2.133 1.721,-3.201 l -2.139,-1.127 c -0.557,1.056 -1.124,2.112 -1.702,3.166 z m 3.382,-6.419 c 0.55,-1.086 1.088,-2.173 1.615,-3.261 l -2.175,-1.055 c -0.521,1.076 -1.054,2.15 -1.597,3.225 z m 3.169,-6.535 c 0.512,-1.103 1.013,-2.207 1.502,-3.31 l -2.21,-0.98 c -0.483,1.09 -0.978,2.181 -1.485,3.272 z m 2.945,-6.641 c 0.473,-1.119 0.934,-2.237 1.383,-3.354 l -2.242,-0.902 c -0.444,1.104 -0.9,2.209 -1.368,3.314 z m 2.711,-6.74 c 0.432,-1.134 0.852,-2.266 1.261,-3.396 l -2.274,-0.821 c -0.403,1.117 -0.819,2.235 -1.246,3.355 z m 2.465,-6.832 c 0.392,-1.151 0.771,-2.301 1.137,-3.449 l -2.303,-0.735 c -0.362,1.133 -0.736,2.268 -1.123,3.406 z m 2.207,-6.916 c 0.349,-1.169 0.684,-2.335 1.006,-3.499 l -2.33,-0.645 c -0.318,1.148 -0.649,2.3 -0.993,3.454 z m 1.938,-7.005 c 0.302,-1.1813 0.589,-2.3595 0.863,-3.5337 l -2.354,-0.5488 c -0.27,1.1577 -0.554,2.3196 -0.851,3.4853 z m 1.652,-7.0866 c 0.25,-1.1903 0.487,-2.376 0.708,-3.5568 l -2.376,-0.4462 c -0.218,1.1632 -0.451,2.3315 -0.698,3.5047 z m 1.34,-7.146 c 0.199,-1.2057 0.381,-2.4056 0.549,-3.5994 l -2.394,-0.3355 c -0.165,1.1747 -0.345,2.3558 -0.54,3.5429 z m 1.009,-7.2001 c 0.14,-1.2163 0.264,-2.4256 0.372,-3.6273 l -2.408,-0.2156 c -0.106,1.181 -0.228,2.3698 -0.366,3.5659 z m 0.649,-7.2631 c 0.076,-1.2198 0.135,-2.4311 0.177,-3.6333 l -2.416,-0.0841 c -0.041,1.1795 -0.099,2.3684 -0.174,3.5661 z m 0.251,-7.2737 c 0.007,-1.229 -0.005,-2.4477 -0.036,-3.6554 l -2.416,0.0612 c 0.03,1.1824 0.041,2.3762 0.035,3.5807 z m -0.187,-7.302 c -0.071,-1.2241 -0.162,-2.4359 -0.273,-3.6348 l -2.407,0.223 c 0.108,1.1706 0.197,2.3548 0.267,3.5518 z m -0.675,-7.2622 c -0.159,-1.2233 -0.34,-2.4318 -0.542,-3.6246 l -2.383,0.4047 c 0.197,1.1609 0.373,2.3382 0.527,3.5309 z m -1.23,-7.2224 c -0.257,-1.2061 -0.538,-2.3945 -0.842,-3.5643 l -2.34,0.6093 c 0.296,1.134 0.568,2.2872 0.818,3.459 z m -1.85,-7.087 c -0.368,-1.1785 -0.762,-2.3359 -1.182,-3.471 l -2.268,0.8393 c 0.406,1.0951 0.787,2.2129 1.143,3.3527 z m -2.553,-6.8812 c -0.495,-1.1373 -1.018,-2.2493 -1.569,-3.3347 l -2.155,1.0956 c 0.529,1.0411 1.031,2.1092 1.507,3.2033 z m -3.345,-6.5681 c -0.632,-1.0675 -1.295,-2.105 -1.989,-3.1114 l -1.99,1.3723 c 0.661,0.9596 1.294,1.9503 1.899,2.9711 z m -4.197,-6.0769 c -0.777,-0.9664 -1.586,-1.8983 -2.427,-2.7942 l -1.762,1.6552 c 0.798,0.8497 1.566,1.7345 2.305,2.6533 z M 160.37,10.45 c -0.916,-0.83002 -1.865,-1.62167 -2.848,-2.37341 l -1.469,1.9198 c 0.929,0.71071 1.827,1.45951 2.694,2.24521 z"
     id="path6"
     transform="translate(130.146,4.75)"
     inkscape:connector-curvature="0"
     style="fill:#02abfe"
     sodipodi:nodetypes="ccccccccccccccccccccccccccccccccccccccccccccccccccccccccccccccccccccccccccccccccccccccccccccccccccccccccccccccccccccccccccccccccccccccccccccccccccccccccccccccccccccccccccccccccccccccccccccccccccccccccccccccccccccccccccccccccccccccccccccccccccccccccccccccccccccccccccccccccccccccccccccccccccccccccccccccccccccccccccccccccccccccccccccccccccccccccccccccccccccccccccccccccccccccccccccccccccccccccccccccccccccccccccccccccccccccccccccccccccccccccccccccccc" />
  <path
     d="m 282.16929,3.7539025 -2.31662,0.4149985 1.45903,6.227297 -6.05202,2.050036 0.87205,2.188363 7.94348,-2.701479 z"
     id="path10"
     inkscape:connector-curvature="0"
     style="fill:#02abfe"
     sodipodi:nodetypes="ccccccc" />
  <path
     d="m 222.29702,8.4277868 -1.03863,2.1146492 5.87556,2.509753 -1.93604,6.09645 2.27764,0.592055 2.53247,-8.008154 -7.711,-3.3047532 z"
     id="path14"
     inkscape:connector-curvature="0"
     style="fill:#02abfe" />
  <path
     d="M12.4315 1.82608L10.9443 0L6.21573 4.30143L1.4872 0L0 1.82608L6.21573 7.46664L12.4315 1.82608Z"
     id="path18"
     fill="#02ABFE"
     transform="matrix(-0.945498 0.325628 -0.32486 -0.945762 142.18 201.914)" />
  <path
     d="M31.0716 31.4676L36.5889 33.8385L95.8282 0L96.046 94.2591L0.290388 149.004L0 49.213L31.0716 31.4676Z"
     id="path20"
     style="fill:#eef4fa;fill-opacity:0.61842108"
     fill="#EEF4FA"
     transform="translate(96 17)" />
  <path
     d="M5.46468 3.19194L0 0V32.8314L5.46468 35.5674V3.19194Z"
     id="path22"
     fill="#EEF4FA"
     transform="translate(362.006 27.918)" />
  <path
     d="M6.37546 3.19194L0 0V120.382L6.37546 123.118V3.19194Z"
     id="path24"
     fill="#EEF4FA"
     transform="translate(376.578 36.125)" />
  <path
     d="M45.9944 130.87L0 106.702L178.968 0L226.329 26.9035L45.9944 130.87Z"
     id="path26"
     fill="#EEF4FA"
     transform="translate(181.672 144.195)" />
  <path
     d="M31.0716 31.4676L36.5889 33.8385L95.8282 0L96.046 94.2591L0.290388 149.004L0 49.213L31.0716 31.4676Z"
     id="path28"
     style="fill:#ffffff;fill-opacity:0.24342105"
     stroke-linejoin="round"
     stroke-width="2"
     stroke="#02ABFE"
     fill="white"
     transform="translate(105 21.7734)" />
  <path
     d="M0 9L17 0"
     stroke-miterlimit="10"
     id="path30"
     stroke-linejoin="round"
     stroke-width="1.20873"
     stroke="#29AEF6"
     opacity="0.2"
     transform="translate(153 244)" />
  <path
     d="M0 248.548V114.028L196.537 0L240.756 25.1521V159.27L45.3424 271.771L0 248.548Z"
     stroke-miterlimit="10"
     id="path32"
     stroke-linejoin="round"
     stroke-width="1.20873"
     stroke="#29AEF6"
     opacity="0.2"
     transform="translate(153.436 5.11914)" />
  <path
     d="M0 248.548V114.028L196.537 0L240.756 25.1521V159.27L45.3424 271.771L0 248.548Z"
     stroke-miterlimit="10"
     id="path34"
     stroke-linejoin="round"
     stroke-width="1.20873"
     stroke="#29AEF6"
     opacity="0.2"
     transform="translate(153.436 5.11914)" />
  <path
     d="M182.596 0L183 118.166L0.5 223.5L0 105.333L182.596 0Z"
     stroke-miterlimit="10"
     id="path36"
     style="fill:none"
     stroke-linejoin="round"
     stroke-width="1.20873"
     stroke="#B2E2FC"
     fill="white"
     transform="translate(167 22)" />
  <path
     d="M181.37 0L181.771 117.644L0.321008 222.512L0 104.867L181.37 0Z"
     id="path38"
     style="fill:#ffffff;fill-opacity:0.29605263"
     stroke-linejoin="round"
     stroke-width="2.41746"
     stroke="#02ABFE"
     fill="white"
     transform="translate(180.396 29.2246)" />
  <path
     d="M181.37 0L181.771 117.644L0.321008 222.512L0 104.867L181.37 0Z"
     id="path40"
     style="fill:#ffffff;fill-opacity:0.6118421"
     stroke-linejoin="round"
     stroke-width="2.41746"
     stroke="#02ABFE"
     fill="white"
     transform="translate(194.844 36.2422)" />
  <path
     d="M16.6122 0.160714C16.6924 0.0803557 16.7727 0.0803581 16.8529 0V0.401791V1.12501C16.7727 1.12501 16.6924 1.20537 16.6122 1.28573C15.7294 1.84824 13.8836 2.97325 12.3588 4.66077C9.7105 7.63402 9.14874 10.4466 8.58697 13.5002C8.10546 16.6341 7.46345 19.8485 4.49412 23.3039C4.17311 23.6253 3.93235 23.9467 3.53109 24.2682C2.24706 24.5896 0.642017 25.3932 0 25.795V25.7146C0.802521 25.2325 2.80882 23.9467 4.01261 22.5806C6.50042 19.6877 7.06219 16.8752 7.62395 13.8216C8.26597 10.6876 8.90798 7.39294 11.8773 3.93754C13.6429 2.00895 15.5689 0.803579 16.6122 0.160714Z"
     id="path42"
     stroke-linejoin="round"
     stroke-width="0.9"
     stroke="#02ABFE"
     fill="#02ABFE"
     transform="translate(246.203 135.305)" />
  <path
     d="M30.0945 0.0602686C30.255 -0.0200895 30.4155 -0.0200895 30.5761 0.0602686L33.8664 2.79245L33.9466 2.8728L34.1071 3.03352C34.2677 3.19423 34.2677 3.59603 34.1071 3.91746L30.6563 10.8283C30.5761 11.0693 30.3353 11.23 30.1748 11.3908L0.642019 28.5071C0.321011 28.6678 0 28.5071 0 28.1856V23.2838V20.873V19.748V18.3819C0 17.9801 0.240759 17.498 0.642019 17.3373L30.0945 0.0602686Z"
     id="path44"
     stroke-linejoin="round"
     stroke-width="2.41746"
     stroke="#02ABFE"
     fill="white"
     transform="translate(263.217 147.861)" />
  <path
     d="M0 1.60716C0.722269 1.20537 2.24706 0.401789 3.53109 0.0803569C3.8521 -1.22737e-06 4.17311 0 4.49412 0C7.46345 0.0803581 8.10546 2.57146 8.66723 5.06256C9.30924 7.4733 9.87101 9.72334 12.4391 9.64298C13.8836 9.64298 15.7294 8.67868 16.6924 8.11617C16.7727 8.03581 16.8529 8.03581 16.9332 7.95545V9.08047C16.8529 9.16082 16.7727 9.16083 16.6924 9.24119C15.6492 9.80369 13.7231 10.8483 12.0378 10.8483C8.98824 10.9287 8.34622 8.27689 7.7042 5.78578C7.14244 3.4554 6.58067 1.20537 4.01261 1.20537C2.80882 1.20537 0.802521 2.25002 0 2.73217V2.00895V1.60716Z"
     id="path46"
     stroke-linejoin="round"
     stroke-width="0.9"
     stroke="#02ABFE"
     fill="#02ABFE"
     transform="translate(246.203 159.412)" />
  <path
     d="M18.0567 0V0.401791V1.12501L6.42017 7.8751L0 11.5716L0.240759 11.1698C0.401263 10.8483 0.401263 10.4466 0.240759 10.2858L18.0567 0Z"
     id="path48"
     stroke-linejoin="round"
     stroke-width="0.9"
     stroke="#02ABFE"
     fill="#02ABFE"
     transform="translate(297.004 105.25)" />
  <path
     d="M11.6737 12.3836C13.1535 12.5521 15.6198 11.2042 16.8529 10.446V10.5303V11.6254C15.5376 12.3836 12.8247 13.8157 11.1805 13.6472C8.22095 13.3945 7.56327 10.2775 6.98781 7.24483C6.41234 4.3806 5.83688 1.68485 3.37059 1.34788C2.71292 1.26364 1.31535 1.85333 0 2.44302L4.11047 0C6.82339 0.505453 7.39886 3.45393 7.97432 6.40241C8.54979 9.43513 9.12526 12.1309 11.6737 12.3836Z"
     id="path50"
     stroke-linejoin="round"
     stroke-width="0.9"
     stroke="#02ABFE"
     fill="#02ABFE"
     transform="translate(299.168 147.135)" />
  <path
     d="M33.7861 0.0630498C34.1072 -0.0976665 34.4282 0.0630498 34.4282 0.384482V5.28633V10.1882C34.4282 10.59 34.1874 11.0721 33.7861 11.2328L0.642019 30.5188C0.321011 30.6795 0 30.5188 0 30.1974V26.0187V25.2955V24.8937V20.3937C0 19.9919 0.240759 19.5097 0.642019 19.349L33.7861 0.0630498Z"
     id="path52"
     stroke-linejoin="round"
     stroke-width="2.41746"
     stroke="#02ABFE"
     fill="white"
     transform="translate(315.059 80.4375)" />
  <path
     d="M30.0945 0.0602686C30.255 -0.0200895 30.4155 -0.0200895 30.576 0.0602686L34.1071 2.95316C34.2677 3.11388 34.2677 3.51567 34.1071 3.8371L30.6563 10.8283C30.5761 11.0693 30.3353 11.23 30.1748 11.3908L0.642007 28.5071C0.320999 28.6678 0 28.5071 0 28.1856V24.1677V23.2838V23.0427V18.3819C0 17.9801 0.240747 17.498 0.642007 17.3373L30.0945 0.0602686Z"
     id="path54"
     stroke-linejoin="round"
     stroke-width="2.41746"
     stroke="#02ABFE"
     fill="white"
     transform="translate(315.379 100.049)" />
  <path
     d="M33.8664 0.0630496C34.1874 -0.0976667 34.5084 0.0630508 34.5084 0.384483V5.28633V10.1882C34.5084 10.59 34.2676 11.0721 33.8664 11.2328L0.642007 30.4384C0.320999 30.5991 0 30.4384 0 30.117V26.2598V25.2151V20.3133C0 19.9115 0.240747 19.4294 0.642007 19.2686L33.8664 0.0630496Z"
     id="path56"
     stroke-linejoin="round"
     stroke-width="2.41746"
     stroke="#02ABFE"
     fill="white"
     transform="translate(315.781 132.912)" />
  <path
     d="M30.0945 0.0602686C30.255 -0.0200895 30.4156 -0.0200895 30.5761 0.0602686L34.1071 2.95316C34.2677 3.11388 34.2677 3.51567 34.1071 3.8371L30.6563 10.7479C30.5761 10.989 30.3353 11.1497 30.1748 11.3104L0.642019 28.4267C0.321011 28.5874 0 28.4267 0 28.1053V23.6052V23.1231V22.3998V18.1409C0 17.7391 0.240759 17.2569 0.642019 17.0962L30.0945 0.0602686Z"
     id="path58"
     stroke-linejoin="round"
     stroke-width="2.41746"
     stroke="#02ABFE"
     fill="white"
     transform="translate(315.621 117.564)" />
  <path
     d="M18.458 0V0.723225V1.20537L6.25966 8.27689L2.24706 10.6073L0.160502 11.8127C0.321006 11.4109 0.321006 11.0894 0.160502 10.9287L0 10.768L2.32731 9.40191L18.458 0Z"
     id="path60"
     stroke-linejoin="round"
     stroke-width="0.9"
     stroke="#02ABFE"
     fill="#02ABFE"
     transform="translate(297.084 139.098)" />
  <path
     d="M30.0945 0.0602686C30.255 -0.0200895 30.4155 -0.0200895 30.5761 0.0602686L34.1071 2.95316C34.2677 3.11388 34.2677 3.51567 34.1071 3.8371L33.8664 4.23889L33.7861 4.39961L30.5761 10.8283C30.4958 11.0693 30.255 11.2301 30.0945 11.3908L0.561762 28.4267C0.240754 28.6678 0 28.5071 0 28.1053V23.9266V23.2034V22.8016V18.3016C0 17.8998 0.240759 17.4176 0.642019 17.2569L30.0945 0.0602686Z"
     id="path62"
     stroke-linejoin="round"
     stroke-width="2.41746"
     stroke="#02ABFE"
     fill="white"
     transform="translate(263.137 112.582)" />
  <path
     d="M6.42017 0C9.06849 0.401791 9.63026 3.21433 10.1118 5.9465C10.6735 8.59832 11.155 11.1698 13.4824 11.4109C14.8466 11.5716 17.2542 10.3662 18.2975 9.80369V10.0448V10.9287C17.174 11.5716 14.5256 12.8573 12.9206 12.6966C10.2723 12.3752 9.63025 9.48226 9.14874 6.75009C8.58698 4.09827 8.10546 1.60716 5.93866 1.28573C4.81513 1.12502 2.88908 2.16967 2.32731 2.4911C2.24706 2.57146 2.16681 2.57146 2.16681 2.57146L0 3.85719L0.080257 3.69648L6.42017 0Z"
     id="path64"
     stroke-linejoin="round"
     stroke-width="0.9"
     stroke="#02ABFE"
     fill="#02ABFE"
     transform="translate(297.004 113.205)" />
  <path
     d="M0 1.28574C0.561765 0.964303 1.44454 0.482149 2.40756 0L0.0802509 1.36609L0 1.28574Z"
     id="path66"
     stroke-linejoin="round"
     stroke-width="1.4"
     stroke="#02ABFE"
     transform="translate(297.084 149.287)" />
  <path
     d="M33.9466 0.0630506C34.2676 -0.0976656 34.5887 0.0630458 34.5887 0.384478L34.5084 4.80418V5.28633V6.00955L34.5887 10.1882C34.5887 10.59 34.3479 11.0721 33.9466 11.2328L0.642017 30.5188C0.321008 30.6795 0 30.5188 0 30.1974V25.2955V20.3937C0 19.9919 0.240756 19.5097 0.642017 19.349L33.9466 0.0630506Z"
     id="path68"
     stroke-linejoin="round"
     stroke-width="2.41746"
     stroke="#02ABFE"
     fill="white"
     transform="translate(211.695 156.133)" />
  <path
     d="M195.414 0L0 112.501"
     stroke-miterlimit="10"
     id="path70"
     stroke-linejoin="round"
     stroke-width="1.20873"
     stroke="#29AEF6"
     opacity="0.2"
     transform="translate(198.977 30.6543)" />
  <path
     d="M9.78525 16.716V5.43933L0 0"
     stroke-miterlimit="10"
     id="path72"
     stroke-linejoin="round"
     stroke-width="1.8131"
     stroke="#29AEF6"
     transform="translate(384.562 25.209)" />
  <path
     d="M-2.01772e-06 5.70466L9.65301 5.06083e-07"
     stroke-miterlimit="10"
     id="path74"
     stroke-linejoin="round"
     stroke-width="1.8131"
     stroke="#29AEF6"
     transform="translate(384.697 30.6465)" />
  <path
     d="M0 134.062V0"
     stroke-miterlimit="10"
     id="path76"
     stroke-linejoin="round"
     stroke-width="1.20873"
     stroke="#29AEF6"
     opacity="0.2"
     transform="translate(198.977 142.828)" />
  <path
     d="M-2.2899e-06 19.2721L10.9552 12.7979V-2.29741e-06"
     stroke-miterlimit="10"
     id="path78"
     stroke-linejoin="round"
     stroke-width="1.8131"
     stroke="#29AEF6"
     transform="translate(383.182 151.492)" />
  <path
     d="M0 0V12.7979L10.9294 18.6957"
     stroke-miterlimit="10"
     id="path80"
     stroke-linejoin="round"
     stroke-width="1.8131"
     stroke="#29AEF6"
     transform="translate(153.438 240.639)" />
  <path
     d="M10.9552 0L1.78899e-08 6.17309V18.971"
     stroke-miterlimit="10"
     id="path82"
     stroke-linejoin="round"
     stroke-width="1.8131"
     stroke="#29AEF6"
     transform="translate(153.438 112.732)" />
  <path
     d="M10.9294 5.91008L0 0"
     stroke-miterlimit="10"
     id="path84"
     stroke-linejoin="round"
     stroke-width="1.8131"
     stroke="#29AEF6"
     transform="translate(153.438 118.906)" />
  <path
     d="M0 1.04379L10.9552 6.62478L21.9104 0"
     stroke-miterlimit="10"
     id="path86"
     stroke-linejoin="round"
     stroke-width="1.8131"
     stroke="#29AEF6"
     transform="translate(188.047 270.375)" />
  <path
     d="M-7.62939e-07 2.29741e-06V12.6473"
     stroke-miterlimit="10"
     id="path88"
     stroke-linejoin="round"
     stroke-width="1.8131"
     stroke="#29AEF6"
     transform="translate(199.002 264.352)" />
  <path
     d="M21.9104 6.62478L10.9552 -1.79485e-08L0 6.47422"
     stroke-miterlimit="10"
     id="path90"
     stroke-linejoin="round"
     stroke-width="1.8131"
     stroke="#29AEF6"
     transform="translate(339.236 4.89258)" />
  <path
     d="M0 0L45.0836 24.1676"
     stroke-miterlimit="10"
     id="path92"
     stroke-linejoin="round"
     stroke-width="1.20873"
     stroke="#29AEF6"
     opacity="0.2"
     transform="translate(153.893 119.117)" />
  <path
     d="M31.0716 31.4676L36.5889 33.8385L95.8282 0L96.046 94.2591L0.290388 149.004L0 49.213L31.0716 31.4676Z"
     id="path94"
     style="fill:#ffffff;fill-opacity:0.77631581"
     stroke-linejoin="round"
     stroke-width="2.41746"
     stroke="#02ABFE"
     fill="white"
     transform="translate(116.592 27.5664)" />
  <path
     d="M0.0395088 30.8675L0 10.3302L17.2258 0L17.3048 20.5373L0.0395088 30.8675Z"
     id="path96"
     stroke-linejoin="round"
     stroke-width="2.41746"
     stroke="#02ABFE"
     fill="white"
     transform="translate(135.221 80.8125)" />
  <path
     d="M0 11.2691L19.0391 0"
     id="path98"
     stroke-linejoin="round"
     stroke-linecap="round"
     stroke-width="2.41746"
     stroke="#02ABFE"
     transform="translate(159.812 78.0781)" />
  <path
     d="M0 20.0636L33.6989 0"
     id="path100"
     stroke-linejoin="round"
     stroke-linecap="round"
     stroke-width="2.41746"
     stroke="#02ABFE"
     transform="translate(159.812 62.5742)" />
  <path
     d="M0.0395088 30.8675L0 10.3302L17.2258 0L17.3048 20.5373L0.0395088 30.8675Z"
     id="path102"
     stroke-linejoin="round"
     stroke-width="2.41746"
     stroke="#02ABFE"
     fill="white"
     transform="translate(135.221 112.732)" />
  <path
     d="M0 11.2691L19.0391 0"
     id="path104"
     stroke-linejoin="round"
     stroke-linecap="round"
     stroke-width="2.41746"
     stroke="#02ABFE"
     transform="translate(159.812 109.996)" />
  <path
     d="M0 20.0636L33.6989 0"
     id="path106"
     stroke-linejoin="round"
     stroke-linecap="round"
     stroke-width="2.41746"
     stroke="#02ABFE"
     transform="translate(159.812 94.4922)" />
  <rect
     width="97"
     height="1"
     id="rect108"
     transform="scale(-1,1)"
     x="-618"
     y="143"
     style="fill:#02abfe" />
  <rect
     width="19"
     height="2"
     id="rect110"
     x="616"
     y="109"
     style="fill:#02abfe" />
  <rect
     width="88"
     height="30"
     id="rect112"
     transform="scale(-1,1)"
     x="-635"
     y="114"
     style="fill:#02abfe" />
  <rect
     width="67"
     height="1"
     id="rect116"
     transform="scale(-1,1)"
     x="33"
     y="115"
     style="fill:#02abfe" />
  <rect
     width="19"
     height="2"
     id="rect118"
     x="-160"
     y="81"
     style="fill:#02abfe" />
  <rect
     width="88"
     height="30"
     id="rect120"
     transform="scale(-1,1)"
     x="72"
     y="86"
     style="fill:#02abfe" />
</svg>
